G04 #@! TF.FileFunction,Paste,Bot*
%FSLAX46Y46*%
G04 Gerber Fmt 4.6, Leading zero omitted, Abs format (unit mm)*
G04 Created by KiCad (PCBNEW 4.0.1-stable) date 03/25/18 14:57:27*
%MOMM*%
G01*
G04 APERTURE LIST*
%ADD10C,0.050000*%
%ADD11R,1.100000X1.000000*%
%ADD12O,1.800000X1.524000*%
%ADD13R,1.597660X2.199640*%
%ADD14R,0.900000X0.800000*%
%ADD15R,0.450000X1.500000*%
%ADD16R,2.300000X2.650000*%
%ADD17R,1.400000X0.300000*%
%ADD18R,0.900000X1.200000*%
G04 APERTURE END LIST*
D10*
D11*
X180650000Y-132500000D03*
X182350000Y-132500000D03*
X167850000Y-120500000D03*
X166150000Y-120500000D03*
X166150000Y-118000000D03*
X167850000Y-118000000D03*
X166150000Y-133500000D03*
X167850000Y-133500000D03*
X166150000Y-136000000D03*
X167850000Y-136000000D03*
X166150000Y-138500000D03*
X167850000Y-138500000D03*
X166150000Y-141000000D03*
X167850000Y-141000000D03*
X158650000Y-133500000D03*
X160350000Y-133500000D03*
X158650000Y-136000000D03*
X160350000Y-136000000D03*
X158650000Y-123000000D03*
X160350000Y-123000000D03*
X158650000Y-138500000D03*
X160350000Y-138500000D03*
X166150000Y-123000000D03*
X167850000Y-123000000D03*
X158650000Y-141000000D03*
X160350000Y-141000000D03*
D12*
X190000000Y-130000000D03*
X190000000Y-128000000D03*
X190000000Y-126000000D03*
X190000000Y-124000000D03*
D13*
X166100460Y-113500000D03*
X168899540Y-113500000D03*
D14*
X158500000Y-128500000D03*
X158500000Y-126500000D03*
X160500000Y-127500000D03*
D11*
X177150000Y-121500000D03*
X178850000Y-121500000D03*
X179650000Y-116000000D03*
X181350000Y-116000000D03*
X166150000Y-129000000D03*
X167850000Y-129000000D03*
X166150000Y-126500000D03*
X167850000Y-126500000D03*
X177650000Y-136000000D03*
X179350000Y-136000000D03*
X179150000Y-136000000D03*
X180850000Y-136000000D03*
X177650000Y-138500000D03*
X179350000Y-138500000D03*
X179150000Y-138500000D03*
X180850000Y-138500000D03*
X177650000Y-141000000D03*
X179350000Y-141000000D03*
X179150000Y-141000000D03*
X180850000Y-141000000D03*
X178150000Y-116000000D03*
X179850000Y-116000000D03*
D15*
X177725000Y-124050000D03*
X178375000Y-124050000D03*
X179025000Y-124050000D03*
X179675000Y-124050000D03*
X180325000Y-124050000D03*
X180975000Y-124050000D03*
X181625000Y-124050000D03*
X182275000Y-124050000D03*
X182275000Y-129950000D03*
X181625000Y-129950000D03*
X180975000Y-129950000D03*
X180325000Y-129950000D03*
X179675000Y-129950000D03*
X179025000Y-129950000D03*
X178375000Y-129950000D03*
X177725000Y-129950000D03*
D16*
X153000000Y-119500000D03*
D17*
X154000000Y-133000000D03*
X154000000Y-132500000D03*
X154000000Y-132000000D03*
X154000000Y-131500000D03*
X154000000Y-131000000D03*
X154000000Y-130500000D03*
X154000000Y-130000000D03*
X154000000Y-129500000D03*
X154000000Y-129000000D03*
X154000000Y-128500000D03*
X154000000Y-128000000D03*
X154000000Y-127500000D03*
X154000000Y-127000000D03*
X154000000Y-126500000D03*
X154000000Y-126000000D03*
X154000000Y-125500000D03*
X154000000Y-125000000D03*
X154000000Y-124500000D03*
X154000000Y-124000000D03*
X154000000Y-123500000D03*
X154000000Y-123000000D03*
X154000000Y-122500000D03*
X154000000Y-122000000D03*
X154000000Y-121500000D03*
D16*
X153000000Y-135000000D03*
D18*
X158400000Y-113500000D03*
X161600000Y-113500000D03*
X161600000Y-116500000D03*
X158400000Y-116500000D03*
X158400000Y-119500000D03*
X161600000Y-119500000D03*
D11*
X182150000Y-121500000D03*
X183850000Y-121500000D03*
X182150000Y-119000000D03*
X183850000Y-119000000D03*
M02*
