G04 #@! TF.FileFunction,Copper,L2,Bot,Signal*
%FSLAX46Y46*%
G04 Gerber Fmt 4.6, Leading zero omitted, Abs format (unit mm)*
G04 Created by KiCad (PCBNEW 4.0.1-stable) date 2018/04/18 7:14:41*
%MOMM*%
G01*
G04 APERTURE LIST*
%ADD10C,0.050000*%
%ADD11R,1.100000X1.000000*%
%ADD12O,1.800000X1.524000*%
%ADD13R,1.597660X2.199640*%
%ADD14R,0.900000X0.800000*%
%ADD15R,0.450000X1.500000*%
%ADD16R,2.300000X2.650000*%
%ADD17R,1.400000X0.300000*%
%ADD18R,0.900000X1.200000*%
%ADD19C,0.800000*%
%ADD20C,0.200000*%
%ADD21C,0.254000*%
G04 APERTURE END LIST*
D10*
D11*
X180650000Y-132500000D03*
X182350000Y-132500000D03*
X169850000Y-120500000D03*
X168150000Y-120500000D03*
X168150000Y-118000000D03*
X169850000Y-118000000D03*
X168150000Y-133500000D03*
X169850000Y-133500000D03*
X168150000Y-136000000D03*
X169850000Y-136000000D03*
X168150000Y-138500000D03*
X169850000Y-138500000D03*
X168150000Y-141000000D03*
X169850000Y-141000000D03*
X161650000Y-133500000D03*
X163350000Y-133500000D03*
X161650000Y-136000000D03*
X163350000Y-136000000D03*
X161650000Y-123000000D03*
X163350000Y-123000000D03*
X161650000Y-138500000D03*
X163350000Y-138500000D03*
X168150000Y-123000000D03*
X169850000Y-123000000D03*
X161650000Y-141000000D03*
X163350000Y-141000000D03*
D12*
X190000000Y-130000000D03*
X190000000Y-128000000D03*
X190000000Y-126000000D03*
X190000000Y-124000000D03*
D13*
X168100460Y-113500000D03*
X170899540Y-113500000D03*
D14*
X161500000Y-128500000D03*
X161500000Y-126500000D03*
X163500000Y-127500000D03*
D11*
X177150000Y-121500000D03*
X178850000Y-121500000D03*
X179650000Y-116000000D03*
X181350000Y-116000000D03*
X168150000Y-129000000D03*
X169850000Y-129000000D03*
X168150000Y-126500000D03*
X169850000Y-126500000D03*
X177650000Y-136000000D03*
X179350000Y-136000000D03*
X179150000Y-136000000D03*
X180850000Y-136000000D03*
X177650000Y-138500000D03*
X179350000Y-138500000D03*
X179150000Y-138500000D03*
X180850000Y-138500000D03*
X177650000Y-141000000D03*
X179350000Y-141000000D03*
X179150000Y-141000000D03*
X180850000Y-141000000D03*
X178150000Y-116000000D03*
X179850000Y-116000000D03*
D15*
X177725000Y-124050000D03*
X178375000Y-124050000D03*
X179025000Y-124050000D03*
X179675000Y-124050000D03*
X180325000Y-124050000D03*
X180975000Y-124050000D03*
X181625000Y-124050000D03*
X182275000Y-124050000D03*
X182275000Y-129950000D03*
X181625000Y-129950000D03*
X180975000Y-129950000D03*
X180325000Y-129950000D03*
X179675000Y-129950000D03*
X179025000Y-129950000D03*
X178375000Y-129950000D03*
X177725000Y-129950000D03*
D16*
X156500000Y-119000000D03*
D17*
X157500000Y-132500000D03*
X157500000Y-132000000D03*
X157500000Y-131500000D03*
X157500000Y-131000000D03*
X157500000Y-130500000D03*
X157500000Y-130000000D03*
X157500000Y-129500000D03*
X157500000Y-129000000D03*
X157500000Y-128500000D03*
X157500000Y-128000000D03*
X157500000Y-127500000D03*
X157500000Y-127000000D03*
X157500000Y-126500000D03*
X157500000Y-126000000D03*
X157500000Y-125500000D03*
X157500000Y-125000000D03*
X157500000Y-124500000D03*
X157500000Y-124000000D03*
X157500000Y-123500000D03*
X157500000Y-123000000D03*
X157500000Y-122500000D03*
X157500000Y-122000000D03*
X157500000Y-121500000D03*
X157500000Y-121000000D03*
D16*
X156500000Y-134500000D03*
D18*
X160400000Y-113500000D03*
X163600000Y-113500000D03*
X163600000Y-116500000D03*
X160400000Y-116500000D03*
X160400000Y-119500000D03*
X163600000Y-119500000D03*
D11*
X182150000Y-121500000D03*
X183850000Y-121500000D03*
X182150000Y-119000000D03*
X183850000Y-119000000D03*
D19*
X177889500Y-134625700D03*
X177650000Y-139641100D03*
X153000000Y-139000000D03*
X162000000Y-114000000D03*
X153000000Y-114000000D03*
X166000000Y-121000000D03*
X171000000Y-129000000D03*
X174000000Y-133000000D03*
X184000000Y-140000000D03*
X185000000Y-116000000D03*
X156152700Y-130347000D03*
X166999700Y-140700000D03*
X158943500Y-123105300D03*
X166986000Y-123105300D03*
X156194500Y-126089500D03*
X176958500Y-125866800D03*
X156177900Y-125000000D03*
X178147500Y-125698900D03*
X180062100Y-125956800D03*
X156196500Y-127911700D03*
X160458200Y-127777800D03*
X176339100Y-129132500D03*
D20*
X177150000Y-121500000D02*
X177150000Y-120699700D01*
X180325000Y-131374700D02*
X180650000Y-131699700D01*
X180325000Y-129950000D02*
X180325000Y-131374700D01*
X177650000Y-141000000D02*
X177650000Y-140199700D01*
X180650000Y-132299900D02*
X180650000Y-131699700D01*
X168150000Y-133500000D02*
X168150000Y-132799800D01*
X180325000Y-129950000D02*
X180325000Y-128899700D01*
X169850000Y-120500000D02*
X170700300Y-120500000D01*
X170899500Y-113500000D02*
X170899500Y-114900100D01*
X178150000Y-116000000D02*
X178150000Y-116800300D01*
X171135300Y-115135900D02*
X171135300Y-120065000D01*
X170899500Y-114900100D02*
X171135300Y-115135900D01*
X171135300Y-120065000D02*
X170700300Y-120500000D01*
X180650000Y-132500000D02*
X180650000Y-132299900D01*
X180650000Y-132500000D02*
X179799700Y-132500000D01*
X182150000Y-119000000D02*
X182150000Y-121500000D01*
X182150000Y-119000000D02*
X181299700Y-119000000D01*
X178150000Y-119000000D02*
X181299700Y-119000000D01*
X178150000Y-119000000D02*
X178150000Y-116800300D01*
X176800200Y-120349800D02*
X178150000Y-119000000D01*
X177150000Y-120699700D02*
X176800200Y-120349800D01*
X176515300Y-120065000D02*
X171135300Y-120065000D01*
X176800200Y-120349800D02*
X176515300Y-120065000D01*
X177650000Y-138500000D02*
X177650000Y-139641100D01*
X177650000Y-139641100D02*
X177650000Y-140199700D01*
X177650000Y-136000000D02*
X177650000Y-135199700D01*
X177889500Y-134960200D02*
X177889500Y-134625700D01*
X177650000Y-135199700D02*
X177889500Y-134960200D01*
X177889500Y-134410200D02*
X177889500Y-134625700D01*
X179799700Y-132500000D02*
X177889500Y-134410200D01*
X184527300Y-118199700D02*
X182150000Y-118199700D01*
X185439800Y-119112200D02*
X184527300Y-118199700D01*
X185439800Y-121439800D02*
X185439800Y-119112200D01*
X190000000Y-126000000D02*
X185439800Y-121439800D01*
X182150000Y-119000000D02*
X182150000Y-118199700D01*
X157500000Y-128000000D02*
X158500300Y-128000000D01*
X157500000Y-128500000D02*
X158481800Y-128500000D01*
X158500300Y-128000000D02*
X158500300Y-128481500D01*
X158481800Y-128500000D02*
X158500300Y-128481500D01*
X166091500Y-130641200D02*
X168150000Y-132699700D01*
X160887700Y-130641200D02*
X166091500Y-130641200D01*
X158728000Y-128481500D02*
X160887700Y-130641200D01*
X158500300Y-128481500D02*
X158728000Y-128481500D01*
X171639800Y-132699700D02*
X168150000Y-132699700D01*
X175917100Y-128422400D02*
X171639800Y-132699700D01*
X179847700Y-128422400D02*
X175917100Y-128422400D01*
X180325000Y-128899700D02*
X179847700Y-128422400D01*
X168150000Y-132699700D02*
X168150000Y-132799800D01*
X163350000Y-141000000D02*
X163350000Y-142650000D01*
X157000000Y-143000000D02*
X153000000Y-139000000D01*
X163000000Y-143000000D02*
X157000000Y-143000000D01*
X163350000Y-142650000D02*
X163000000Y-143000000D01*
X161500000Y-113500000D02*
X162000000Y-114000000D01*
X161500000Y-113500000D02*
X160400000Y-113500000D01*
X168150000Y-120500000D02*
X166500000Y-120500000D01*
X166500000Y-120500000D02*
X166000000Y-121000000D01*
X169850000Y-129000000D02*
X171000000Y-129000000D01*
X169850000Y-133500000D02*
X173500000Y-133500000D01*
X173500000Y-133500000D02*
X174000000Y-133000000D01*
X180850000Y-141000000D02*
X183000000Y-141000000D01*
X183000000Y-141000000D02*
X184000000Y-140000000D01*
X181350000Y-116000000D02*
X185000000Y-116000000D01*
X180850000Y-138500000D02*
X180850000Y-136000000D01*
X169049400Y-122199700D02*
X168150000Y-121300300D01*
X169850000Y-122199700D02*
X169049400Y-122199700D01*
X163350000Y-138500000D02*
X163350000Y-136000000D01*
X169850000Y-122255700D02*
X169850000Y-122199700D01*
X169850000Y-122369300D02*
X169850000Y-122255700D01*
X168150000Y-120500000D02*
X168150000Y-119699700D01*
X163350000Y-134300300D02*
X163350000Y-135199700D01*
X163350000Y-133500000D02*
X163350000Y-134300300D01*
X163350000Y-136000000D02*
X163350000Y-135199700D01*
X169850000Y-138500000D02*
X169850000Y-136000000D01*
X157500000Y-129000000D02*
X158500300Y-129000000D01*
X169850000Y-136000000D02*
X169850000Y-134301900D01*
X169850000Y-134301900D02*
X169850000Y-133500000D01*
X179675000Y-124050000D02*
X179675000Y-125100300D01*
X169850000Y-126500000D02*
X170700300Y-126500000D01*
X179354100Y-125421200D02*
X179354100Y-126567500D01*
X179675000Y-125100300D02*
X179354100Y-125421200D01*
X168150000Y-120500000D02*
X168150000Y-121300300D01*
X169850000Y-122899800D02*
X169850000Y-122369300D01*
X169850000Y-129000000D02*
X169850000Y-126500000D01*
X170767800Y-126567500D02*
X179354100Y-126567500D01*
X170700300Y-126500000D02*
X170767800Y-126567500D01*
X160400000Y-113500000D02*
X161150300Y-113500000D01*
X163350000Y-123000000D02*
X163350000Y-122199700D01*
X161150300Y-113500000D02*
X162200300Y-113500000D01*
X162200300Y-113368700D02*
X162200300Y-113500000D01*
X163469200Y-112099800D02*
X162200300Y-113368700D01*
X169105000Y-112099800D02*
X163469200Y-112099800D01*
X169199800Y-112194600D02*
X169105000Y-112099800D01*
X169199800Y-115133900D02*
X169199800Y-112194600D01*
X170734900Y-116669000D02*
X169199800Y-115133900D01*
X170734900Y-118589900D02*
X170734900Y-116669000D01*
X169625100Y-119699700D02*
X170734900Y-118589900D01*
X168150000Y-119699700D02*
X169625100Y-119699700D01*
X162200300Y-121050000D02*
X163350000Y-122199700D01*
X162200300Y-113500000D02*
X162200300Y-121050000D01*
X179443800Y-126657200D02*
X179354100Y-126567500D01*
X180411000Y-126657200D02*
X179443800Y-126657200D01*
X182800400Y-129046600D02*
X180411000Y-126657200D01*
X182800400Y-131488000D02*
X182800400Y-129046600D01*
X191636500Y-125636500D02*
X190000000Y-124000000D01*
X191636500Y-130648200D02*
X191636500Y-125636500D01*
X190796700Y-131488000D02*
X191636500Y-130648200D01*
X182800400Y-131488000D02*
X190796700Y-131488000D01*
X183062300Y-116000000D02*
X190000000Y-122937700D01*
X181350000Y-116000000D02*
X183062300Y-116000000D01*
X190000000Y-124000000D02*
X190000000Y-122937700D01*
X180850000Y-138500000D02*
X180850000Y-141000000D01*
X170290200Y-142240500D02*
X169850000Y-141800300D01*
X180409800Y-142240500D02*
X170290200Y-142240500D01*
X180850000Y-141800300D02*
X180409800Y-142240500D01*
X180850000Y-141000000D02*
X180850000Y-141800300D01*
X169850000Y-141000000D02*
X169850000Y-141800300D01*
X163350000Y-138500000D02*
X163350000Y-139300300D01*
X169850000Y-139300300D02*
X163350000Y-139300300D01*
X169850000Y-141000000D02*
X169850000Y-139300300D01*
X169850000Y-139300300D02*
X169850000Y-138500000D01*
X163350000Y-141000000D02*
X163350000Y-139300300D01*
X182588700Y-131699700D02*
X182350000Y-131699700D01*
X182800400Y-131488000D02*
X182588700Y-131699700D01*
X182350000Y-133699700D02*
X180850000Y-135199700D01*
X182350000Y-132500000D02*
X182350000Y-133699700D01*
X180850000Y-136000000D02*
X180850000Y-135199700D01*
X182350000Y-132500000D02*
X182350000Y-131699700D01*
X167403700Y-134301900D02*
X169850000Y-134301900D01*
X164145100Y-131043300D02*
X167403700Y-134301900D01*
X160723500Y-131043300D02*
X164145100Y-131043300D01*
X158680200Y-129000000D02*
X160723500Y-131043300D01*
X158500300Y-129000000D02*
X158680200Y-129000000D01*
X169850000Y-122899800D02*
X169850000Y-123000000D01*
X169850000Y-123000000D02*
X169850000Y-126500000D01*
X163600000Y-116500000D02*
X163600000Y-113500000D01*
X168150000Y-118000000D02*
X168150000Y-117199700D01*
X167450300Y-116500000D02*
X168150000Y-117199700D01*
X163600000Y-116500000D02*
X167450300Y-116500000D01*
X168100500Y-115450200D02*
X168100500Y-113500000D01*
X169850000Y-117199700D02*
X168100500Y-115450200D01*
X169850000Y-118000000D02*
X169850000Y-117199700D01*
X165050000Y-118800300D02*
X169850000Y-118800300D01*
X164350300Y-119500000D02*
X165050000Y-118800300D01*
X169850000Y-118000000D02*
X169850000Y-118800300D01*
X164200400Y-126099300D02*
X164200400Y-119500000D01*
X163500000Y-126799700D02*
X164200400Y-126099300D01*
X163600000Y-119500000D02*
X164200400Y-119500000D01*
X164200400Y-119500000D02*
X164350300Y-119500000D01*
X163500000Y-127500000D02*
X163500000Y-126799700D01*
X168150000Y-136000000D02*
X168150000Y-135199700D01*
X167735400Y-135199700D02*
X168150000Y-135199700D01*
X164379600Y-131843900D02*
X167735400Y-135199700D01*
X160958000Y-131843900D02*
X164379600Y-131843900D01*
X158614100Y-129500000D02*
X160958000Y-131843900D01*
X157500000Y-129500000D02*
X158614100Y-129500000D01*
X166450400Y-136000100D02*
X168150000Y-137699700D01*
X166450400Y-135124500D02*
X166450400Y-136000100D01*
X163853500Y-132527600D02*
X166450400Y-135124500D01*
X161027900Y-132527600D02*
X163853500Y-132527600D01*
X158500300Y-130000000D02*
X161027900Y-132527600D01*
X157500000Y-130000000D02*
X158500300Y-130000000D01*
X168150000Y-138500000D02*
X168150000Y-137699700D01*
X156305700Y-130500000D02*
X156152700Y-130347000D01*
X157500000Y-130500000D02*
X156305700Y-130500000D01*
X168150000Y-141000000D02*
X167299700Y-141000000D01*
X166999700Y-140700000D02*
X167299700Y-141000000D01*
X161650000Y-133500000D02*
X160799700Y-133500000D01*
X160400000Y-119500000D02*
X160400000Y-118599700D01*
X157500000Y-131000000D02*
X156499700Y-131000000D01*
X156450100Y-131049600D02*
X156499700Y-131000000D01*
X155843800Y-131049600D02*
X156450100Y-131049600D01*
X153848700Y-129054500D02*
X155843800Y-131049600D01*
X153848700Y-117022600D02*
X153848700Y-129054500D01*
X154697600Y-116173700D02*
X153848700Y-117022600D01*
X158333800Y-116173700D02*
X154697600Y-116173700D01*
X160400000Y-118239900D02*
X158333800Y-116173700D01*
X160400000Y-118599700D02*
X160400000Y-118239900D01*
X158726100Y-131000000D02*
X157500000Y-131000000D01*
X160799700Y-133073600D02*
X158726100Y-131000000D01*
X160799700Y-133500000D02*
X160799700Y-133073600D01*
X161650000Y-136000000D02*
X161650000Y-135199700D01*
X158632900Y-131500000D02*
X157500000Y-131500000D01*
X159103200Y-131970300D02*
X158632900Y-131500000D01*
X159103200Y-132652900D02*
X159103200Y-131970300D01*
X161650000Y-135199700D02*
X159103200Y-132652900D01*
X161000500Y-122199700D02*
X161650000Y-122199700D01*
X158516900Y-119716100D02*
X161000500Y-122199700D01*
X158516900Y-117489000D02*
X158516900Y-119716100D01*
X158002200Y-116974300D02*
X158516900Y-117489000D01*
X155029200Y-116974300D02*
X158002200Y-116974300D01*
X154649300Y-117354200D02*
X155029200Y-116974300D01*
X154649300Y-120715900D02*
X154649300Y-117354200D01*
X156433400Y-122500000D02*
X154649300Y-120715900D01*
X157500000Y-122500000D02*
X156433400Y-122500000D01*
X161650000Y-123000000D02*
X161650000Y-122199700D01*
X160400000Y-116500000D02*
X159649700Y-116500000D01*
X156204700Y-132000000D02*
X157500000Y-132000000D01*
X153448400Y-129243700D02*
X156204700Y-132000000D01*
X153448400Y-116856800D02*
X153448400Y-129243700D01*
X154531800Y-115773400D02*
X153448400Y-116856800D01*
X158923100Y-115773400D02*
X154531800Y-115773400D01*
X159649700Y-116500000D02*
X158923100Y-115773400D01*
X158500300Y-134550000D02*
X161650000Y-137699700D01*
X158500300Y-132000000D02*
X158500300Y-134550000D01*
X157500000Y-132000000D02*
X158500300Y-132000000D01*
X161650000Y-138500000D02*
X161650000Y-137699700D01*
X167194400Y-123105300D02*
X167299700Y-123000000D01*
X166986000Y-123105300D02*
X167194400Y-123105300D01*
X168150000Y-123000000D02*
X167299700Y-123000000D01*
X158838200Y-123000000D02*
X158943500Y-123105300D01*
X157500000Y-123000000D02*
X158838200Y-123000000D01*
X157950400Y-136500100D02*
X161650000Y-140199700D01*
X157950400Y-132950400D02*
X157950400Y-136500100D01*
X157500000Y-132500000D02*
X157950400Y-132950400D01*
X161650000Y-141000000D02*
X161650000Y-140199700D01*
X182275000Y-124050000D02*
X182275000Y-122999700D01*
X183850000Y-121500000D02*
X183850000Y-122300300D01*
X183150600Y-123150600D02*
X183150600Y-122999700D01*
X190000000Y-130000000D02*
X183150600Y-123150600D01*
X182275000Y-122999700D02*
X183150600Y-122999700D01*
X183150600Y-122999700D02*
X183850000Y-122300300D01*
X183850000Y-119000000D02*
X183850000Y-119800300D01*
X184937700Y-120888000D02*
X183850000Y-119800300D01*
X184937800Y-120888000D02*
X184937700Y-120888000D01*
X184937800Y-122937800D02*
X184937800Y-120888000D01*
X190000000Y-128000000D02*
X184937800Y-122937800D01*
X191207200Y-129207200D02*
X190000000Y-128000000D01*
X191207200Y-130459200D02*
X191207200Y-129207200D01*
X190590100Y-131076300D02*
X191207200Y-130459200D01*
X187601000Y-131076300D02*
X190590100Y-131076300D01*
X181625000Y-125100300D02*
X187601000Y-131076300D01*
X181625000Y-124050000D02*
X181625000Y-125100300D01*
X157500000Y-121500000D02*
X158500300Y-121500000D01*
X161500000Y-128474900D02*
X161500000Y-127799700D01*
X161500000Y-128474900D02*
X161500000Y-128500000D01*
X160280200Y-123279900D02*
X158500300Y-121500000D01*
X160280200Y-126579900D02*
X160280200Y-123279900D01*
X161500000Y-127799700D02*
X160280200Y-126579900D01*
X162000000Y-129000000D02*
X161500000Y-128500000D01*
X167299700Y-129000000D02*
X162000000Y-129000000D01*
X168150000Y-129000000D02*
X167299700Y-129000000D01*
X161500000Y-126149800D02*
X161500000Y-125799700D01*
X161500000Y-126149800D02*
X161500000Y-126500000D01*
X167249900Y-128200400D02*
X168150000Y-127300300D01*
X162500100Y-128200400D02*
X167249900Y-128200400D01*
X161500000Y-127200300D02*
X162500100Y-128200400D01*
X161500000Y-126500000D02*
X161500000Y-127200300D01*
X168150000Y-126500000D02*
X168150000Y-127300300D01*
X157500000Y-122000000D02*
X156499700Y-122000000D01*
X160799700Y-125099400D02*
X161500000Y-125799700D01*
X160799700Y-122581800D02*
X160799700Y-125099400D01*
X158058000Y-119840100D02*
X160799700Y-122581800D01*
X158058000Y-117636900D02*
X158058000Y-119840100D01*
X157795700Y-117374600D02*
X158058000Y-117636900D01*
X155195000Y-117374600D02*
X157795700Y-117374600D01*
X155049600Y-117520000D02*
X155195000Y-117374600D01*
X155049600Y-120549900D02*
X155049600Y-117520000D01*
X156499700Y-122000000D02*
X155049600Y-120549900D01*
X179025000Y-122475300D02*
X178850000Y-122300300D01*
X179025000Y-124050000D02*
X179025000Y-122475300D01*
X178850000Y-121500000D02*
X178850000Y-122300300D01*
X179850000Y-116000000D02*
X179650000Y-116000000D01*
X179650000Y-116000000D02*
X179650000Y-115199700D01*
X156681400Y-124500000D02*
X157500000Y-124500000D01*
X154249000Y-122067600D02*
X156681400Y-124500000D01*
X154249000Y-117188400D02*
X154249000Y-122067600D01*
X154863400Y-116574000D02*
X154249000Y-117188400D01*
X158168000Y-116574000D02*
X154863400Y-116574000D01*
X159117300Y-117523300D02*
X158168000Y-116574000D01*
X159117300Y-119750200D02*
X159117300Y-117523300D01*
X159791900Y-120424800D02*
X159117300Y-119750200D01*
X160966900Y-120424800D02*
X159791900Y-120424800D01*
X161150400Y-120241300D02*
X160966900Y-120424800D01*
X161150400Y-115775700D02*
X161150400Y-120241300D01*
X159632200Y-114257500D02*
X161150400Y-115775700D01*
X159632200Y-112759200D02*
X159632200Y-114257500D01*
X160700600Y-111690800D02*
X159632200Y-112759200D01*
X176141100Y-111690800D02*
X160700600Y-111690800D01*
X179650000Y-115199700D02*
X176141100Y-111690800D01*
X179150000Y-136000000D02*
X179350000Y-136000000D01*
X179150000Y-136000000D02*
X179150000Y-136800300D01*
X179025000Y-132493100D02*
X179025000Y-129950000D01*
X176788800Y-134729300D02*
X179025000Y-132493100D01*
X176788800Y-136621500D02*
X176788800Y-134729300D01*
X176967600Y-136800300D02*
X176788800Y-136621500D01*
X179150000Y-136800300D02*
X176967600Y-136800300D01*
X179150000Y-138500000D02*
X179350000Y-138500000D01*
X177237600Y-137699700D02*
X179150000Y-137699700D01*
X176378300Y-136840400D02*
X177237600Y-137699700D01*
X176378300Y-132997000D02*
X176378300Y-136840400D01*
X178375000Y-131000300D02*
X176378300Y-132997000D01*
X178375000Y-129950000D02*
X178375000Y-131000300D01*
X179150000Y-138500000D02*
X179150000Y-137699700D01*
X179150000Y-141000000D02*
X179350000Y-141000000D01*
X176970400Y-141800300D02*
X179150000Y-141800300D01*
X175977900Y-140807800D02*
X176970400Y-141800300D01*
X175977900Y-132747400D02*
X175977900Y-140807800D01*
X177725000Y-131000300D02*
X175977900Y-132747400D01*
X177725000Y-129950000D02*
X177725000Y-131000300D01*
X179150000Y-141000000D02*
X179150000Y-141800300D01*
X177725000Y-124050000D02*
X177725000Y-125100300D01*
X156499700Y-126394700D02*
X156194500Y-126089500D01*
X156499700Y-126500000D02*
X156499700Y-126394700D01*
X157500000Y-126500000D02*
X156499700Y-126500000D01*
X177725000Y-125100300D02*
X176958500Y-125866800D01*
X178375000Y-125471400D02*
X178147500Y-125698900D01*
X178375000Y-124050000D02*
X178375000Y-125471400D01*
X157500000Y-125000000D02*
X156177900Y-125000000D01*
X156499700Y-127608500D02*
X156499700Y-127500000D01*
X156196500Y-127911700D02*
X156499700Y-127608500D01*
X157500000Y-127500000D02*
X156499700Y-127500000D01*
X180975000Y-124050000D02*
X180975000Y-125100300D01*
X180918600Y-125100300D02*
X180062100Y-125956800D01*
X180975000Y-125100300D02*
X180918600Y-125100300D01*
X181625000Y-129950000D02*
X181625000Y-128899700D01*
X157500000Y-126000000D02*
X158500300Y-126000000D01*
X159757900Y-127257600D02*
X158500300Y-126000000D01*
X159757900Y-128067800D02*
X159757900Y-127257600D01*
X161530500Y-129840400D02*
X159757900Y-128067800D01*
X171899800Y-129840400D02*
X161530500Y-129840400D01*
X174118400Y-127621800D02*
X171899800Y-129840400D01*
X180347100Y-127621800D02*
X174118400Y-127621800D01*
X181625000Y-128899700D02*
X180347100Y-127621800D01*
X157500000Y-127000000D02*
X158500300Y-127000000D01*
X180975000Y-129950000D02*
X180975000Y-128899700D01*
X158900700Y-127400400D02*
X158500300Y-127000000D01*
X158900700Y-127853100D02*
X158900700Y-127400400D01*
X161288400Y-130240800D02*
X158900700Y-127853100D01*
X172203300Y-130240800D02*
X161288400Y-130240800D01*
X174422000Y-128022100D02*
X172203300Y-130240800D01*
X180097400Y-128022100D02*
X174422000Y-128022100D01*
X180975000Y-128899700D02*
X180097400Y-128022100D01*
X160458200Y-127388300D02*
X160458200Y-127777800D01*
X158569900Y-125500000D02*
X160458200Y-127388300D01*
X157500000Y-125500000D02*
X158569900Y-125500000D01*
X179675000Y-129950000D02*
X179675000Y-128899700D01*
X176571900Y-128899700D02*
X176339100Y-129132500D01*
X179675000Y-128899700D02*
X176571900Y-128899700D01*
D21*
G36*
X192105655Y-110744926D02*
X192195225Y-110804774D01*
X192255074Y-110894345D01*
X192290000Y-111069930D01*
X192290000Y-143930070D01*
X192255074Y-144105655D01*
X192195225Y-144195226D01*
X192105655Y-144255074D01*
X191930070Y-144290000D01*
X144069930Y-144290000D01*
X143894345Y-144255074D01*
X143804774Y-144195225D01*
X143744926Y-144105655D01*
X143710000Y-143930070D01*
X143710000Y-142422815D01*
X143864630Y-142422815D01*
X144188980Y-143207800D01*
X144789041Y-143808909D01*
X145573459Y-144134628D01*
X146422815Y-144135370D01*
X147207800Y-143811020D01*
X147808909Y-143210959D01*
X148134628Y-142426541D01*
X148135370Y-141577185D01*
X147811020Y-140792200D01*
X147210959Y-140191091D01*
X146426541Y-139865372D01*
X145577185Y-139864630D01*
X144792200Y-140188980D01*
X144191091Y-140789041D01*
X143865372Y-141573459D01*
X143864630Y-142422815D01*
X143710000Y-142422815D01*
X143710000Y-119000000D01*
X145290000Y-119000000D01*
X145290000Y-136000000D01*
X145303642Y-136068584D01*
X145303642Y-136138513D01*
X145379762Y-136521196D01*
X145395474Y-136559128D01*
X145485776Y-136777138D01*
X145702549Y-137101561D01*
X145702550Y-137101562D01*
X145898438Y-137297451D01*
X146222862Y-137514223D01*
X146305757Y-137548559D01*
X146478804Y-137620238D01*
X146861486Y-137696358D01*
X147138513Y-137696358D01*
X147521196Y-137620238D01*
X147629444Y-137575400D01*
X147777138Y-137514224D01*
X148101561Y-137297451D01*
X148163912Y-137235100D01*
X148297451Y-137101562D01*
X148514223Y-136777138D01*
X148578690Y-136621500D01*
X148620238Y-136521196D01*
X148696358Y-136138514D01*
X148696358Y-136068584D01*
X148710000Y-136000000D01*
X148710000Y-119000000D01*
X148696358Y-118931416D01*
X148696358Y-118861486D01*
X148620238Y-118478804D01*
X148538129Y-118280577D01*
X148514223Y-118222862D01*
X148297451Y-117898438D01*
X148101562Y-117702550D01*
X148101561Y-117702549D01*
X147777138Y-117485776D01*
X147593368Y-117409657D01*
X147521196Y-117379762D01*
X147138513Y-117303642D01*
X147000000Y-117303642D01*
X146478804Y-117379762D01*
X146334143Y-117439683D01*
X146222862Y-117485777D01*
X145898438Y-117702549D01*
X145799716Y-117801272D01*
X145702549Y-117898439D01*
X145485776Y-118222862D01*
X145447218Y-118315951D01*
X145379762Y-118478804D01*
X145303642Y-118861487D01*
X145303642Y-118931416D01*
X145290000Y-119000000D01*
X143710000Y-119000000D01*
X143710000Y-116856800D01*
X152713400Y-116856800D01*
X152713400Y-129243700D01*
X152760458Y-129480276D01*
X152769349Y-129524972D01*
X152928677Y-129763423D01*
X155684977Y-132519724D01*
X155696704Y-132527560D01*
X155350000Y-132527560D01*
X155114683Y-132571838D01*
X154898559Y-132710910D01*
X154753569Y-132923110D01*
X154702560Y-133175000D01*
X154702560Y-135825000D01*
X154746838Y-136060317D01*
X154885910Y-136276441D01*
X155098110Y-136421431D01*
X155350000Y-136472440D01*
X157215400Y-136472440D01*
X157215400Y-136500100D01*
X157246402Y-136655954D01*
X157271349Y-136781372D01*
X157430677Y-137019823D01*
X160566646Y-140155793D01*
X160503569Y-140248110D01*
X160452560Y-140500000D01*
X160452560Y-141500000D01*
X160496838Y-141735317D01*
X160635910Y-141951441D01*
X160848110Y-142096431D01*
X161100000Y-142147440D01*
X162200000Y-142147440D01*
X162435317Y-142103162D01*
X162498568Y-142062461D01*
X162673691Y-142135000D01*
X163064250Y-142135000D01*
X163223000Y-141976250D01*
X163223000Y-141127000D01*
X163477000Y-141127000D01*
X163477000Y-141976250D01*
X163635750Y-142135000D01*
X164026309Y-142135000D01*
X164259698Y-142038327D01*
X164438327Y-141859699D01*
X164535000Y-141626310D01*
X164535000Y-141285750D01*
X164376250Y-141127000D01*
X163477000Y-141127000D01*
X163223000Y-141127000D01*
X163203000Y-141127000D01*
X163203000Y-140904971D01*
X165964521Y-140904971D01*
X166121758Y-141285515D01*
X166412654Y-141576919D01*
X166792923Y-141734820D01*
X166996778Y-141734998D01*
X166996838Y-141735317D01*
X167135910Y-141951441D01*
X167348110Y-142096431D01*
X167600000Y-142147440D01*
X168700000Y-142147440D01*
X168935317Y-142103162D01*
X168998568Y-142062461D01*
X169173691Y-142135000D01*
X169564250Y-142135000D01*
X169723000Y-141976250D01*
X169723000Y-141127000D01*
X169977000Y-141127000D01*
X169977000Y-141976250D01*
X170135750Y-142135000D01*
X170526309Y-142135000D01*
X170759698Y-142038327D01*
X170938327Y-141859699D01*
X171035000Y-141626310D01*
X171035000Y-141285750D01*
X170876250Y-141127000D01*
X169977000Y-141127000D01*
X169723000Y-141127000D01*
X169703000Y-141127000D01*
X169703000Y-140873000D01*
X169723000Y-140873000D01*
X169723000Y-140023750D01*
X169977000Y-140023750D01*
X169977000Y-140873000D01*
X170876250Y-140873000D01*
X171035000Y-140714250D01*
X171035000Y-140373690D01*
X170938327Y-140140301D01*
X170759698Y-139961673D01*
X170526309Y-139865000D01*
X170135750Y-139865000D01*
X169977000Y-140023750D01*
X169723000Y-140023750D01*
X169564250Y-139865000D01*
X169173691Y-139865000D01*
X169000459Y-139936755D01*
X168951890Y-139903569D01*
X168700000Y-139852560D01*
X167616174Y-139852560D01*
X167586746Y-139823081D01*
X167206477Y-139665180D01*
X166794729Y-139664821D01*
X166414185Y-139822058D01*
X166122781Y-140112954D01*
X165964880Y-140493223D01*
X165964521Y-140904971D01*
X163203000Y-140904971D01*
X163203000Y-140873000D01*
X163223000Y-140873000D01*
X163223000Y-140023750D01*
X163477000Y-140023750D01*
X163477000Y-140873000D01*
X164376250Y-140873000D01*
X164535000Y-140714250D01*
X164535000Y-140373690D01*
X164438327Y-140140301D01*
X164259698Y-139961673D01*
X164026309Y-139865000D01*
X163635750Y-139865000D01*
X163477000Y-140023750D01*
X163223000Y-140023750D01*
X163064250Y-139865000D01*
X162673691Y-139865000D01*
X162500459Y-139936755D01*
X162451890Y-139903569D01*
X162298347Y-139872476D01*
X162169723Y-139679976D01*
X162137187Y-139647440D01*
X162200000Y-139647440D01*
X162435317Y-139603162D01*
X162498568Y-139562461D01*
X162673691Y-139635000D01*
X163064250Y-139635000D01*
X163223000Y-139476250D01*
X163223000Y-138627000D01*
X163477000Y-138627000D01*
X163477000Y-139476250D01*
X163635750Y-139635000D01*
X164026309Y-139635000D01*
X164259698Y-139538327D01*
X164438327Y-139359699D01*
X164535000Y-139126310D01*
X164535000Y-138785750D01*
X164376250Y-138627000D01*
X163477000Y-138627000D01*
X163223000Y-138627000D01*
X163203000Y-138627000D01*
X163203000Y-138373000D01*
X163223000Y-138373000D01*
X163223000Y-137523750D01*
X163477000Y-137523750D01*
X163477000Y-138373000D01*
X164376250Y-138373000D01*
X164535000Y-138214250D01*
X164535000Y-137873690D01*
X164438327Y-137640301D01*
X164259698Y-137461673D01*
X164026309Y-137365000D01*
X163635750Y-137365000D01*
X163477000Y-137523750D01*
X163223000Y-137523750D01*
X163064250Y-137365000D01*
X162673691Y-137365000D01*
X162500459Y-137436755D01*
X162451890Y-137403569D01*
X162298347Y-137372476D01*
X162169723Y-137179976D01*
X162137187Y-137147440D01*
X162200000Y-137147440D01*
X162435317Y-137103162D01*
X162498568Y-137062461D01*
X162673691Y-137135000D01*
X163064250Y-137135000D01*
X163223000Y-136976250D01*
X163223000Y-136127000D01*
X163477000Y-136127000D01*
X163477000Y-136976250D01*
X163635750Y-137135000D01*
X164026309Y-137135000D01*
X164259698Y-137038327D01*
X164438327Y-136859699D01*
X164535000Y-136626310D01*
X164535000Y-136285750D01*
X164376250Y-136127000D01*
X163477000Y-136127000D01*
X163223000Y-136127000D01*
X163203000Y-136127000D01*
X163203000Y-135873000D01*
X163223000Y-135873000D01*
X163223000Y-135023750D01*
X163477000Y-135023750D01*
X163477000Y-135873000D01*
X164376250Y-135873000D01*
X164535000Y-135714250D01*
X164535000Y-135373690D01*
X164438327Y-135140301D01*
X164259698Y-134961673D01*
X164026309Y-134865000D01*
X163635750Y-134865000D01*
X163477000Y-135023750D01*
X163223000Y-135023750D01*
X163064250Y-134865000D01*
X162673691Y-134865000D01*
X162500459Y-134936755D01*
X162451890Y-134903569D01*
X162298347Y-134872476D01*
X162293352Y-134865000D01*
X162169723Y-134679976D01*
X162137187Y-134647440D01*
X162200000Y-134647440D01*
X162435317Y-134603162D01*
X162498568Y-134562461D01*
X162673691Y-134635000D01*
X163064250Y-134635000D01*
X163223000Y-134476250D01*
X163223000Y-133627000D01*
X163203000Y-133627000D01*
X163203000Y-133373000D01*
X163223000Y-133373000D01*
X163223000Y-133353000D01*
X163477000Y-133353000D01*
X163477000Y-133373000D01*
X163497000Y-133373000D01*
X163497000Y-133627000D01*
X163477000Y-133627000D01*
X163477000Y-134476250D01*
X163635750Y-134635000D01*
X164026309Y-134635000D01*
X164259698Y-134538327D01*
X164438327Y-134359699D01*
X164499198Y-134212744D01*
X165715400Y-135428947D01*
X165715400Y-136000100D01*
X165760638Y-136227523D01*
X165771349Y-136281372D01*
X165930677Y-136519823D01*
X167066646Y-137655793D01*
X167003569Y-137748110D01*
X166952560Y-138000000D01*
X166952560Y-139000000D01*
X166996838Y-139235317D01*
X167135910Y-139451441D01*
X167348110Y-139596431D01*
X167600000Y-139647440D01*
X168700000Y-139647440D01*
X168935317Y-139603162D01*
X168998568Y-139562461D01*
X169173691Y-139635000D01*
X169564250Y-139635000D01*
X169723000Y-139476250D01*
X169723000Y-138627000D01*
X169977000Y-138627000D01*
X169977000Y-139476250D01*
X170135750Y-139635000D01*
X170526309Y-139635000D01*
X170759698Y-139538327D01*
X170938327Y-139359699D01*
X171035000Y-139126310D01*
X171035000Y-138785750D01*
X170876250Y-138627000D01*
X169977000Y-138627000D01*
X169723000Y-138627000D01*
X169703000Y-138627000D01*
X169703000Y-138373000D01*
X169723000Y-138373000D01*
X169723000Y-137523750D01*
X169977000Y-137523750D01*
X169977000Y-138373000D01*
X170876250Y-138373000D01*
X171035000Y-138214250D01*
X171035000Y-137873690D01*
X170938327Y-137640301D01*
X170759698Y-137461673D01*
X170526309Y-137365000D01*
X170135750Y-137365000D01*
X169977000Y-137523750D01*
X169723000Y-137523750D01*
X169564250Y-137365000D01*
X169173691Y-137365000D01*
X169000459Y-137436755D01*
X168951890Y-137403569D01*
X168798347Y-137372476D01*
X168787672Y-137356500D01*
X168669723Y-137179976D01*
X168637187Y-137147440D01*
X168700000Y-137147440D01*
X168935317Y-137103162D01*
X168998568Y-137062461D01*
X169173691Y-137135000D01*
X169564250Y-137135000D01*
X169723000Y-136976250D01*
X169723000Y-136127000D01*
X169977000Y-136127000D01*
X169977000Y-136976250D01*
X170135750Y-137135000D01*
X170526309Y-137135000D01*
X170759698Y-137038327D01*
X170938327Y-136859699D01*
X171035000Y-136626310D01*
X171035000Y-136285750D01*
X170876250Y-136127000D01*
X169977000Y-136127000D01*
X169723000Y-136127000D01*
X169703000Y-136127000D01*
X169703000Y-135873000D01*
X169723000Y-135873000D01*
X169723000Y-135023750D01*
X169977000Y-135023750D01*
X169977000Y-135873000D01*
X170876250Y-135873000D01*
X171035000Y-135714250D01*
X171035000Y-135373690D01*
X170938327Y-135140301D01*
X170759698Y-134961673D01*
X170526309Y-134865000D01*
X170135750Y-134865000D01*
X169977000Y-135023750D01*
X169723000Y-135023750D01*
X169564250Y-134865000D01*
X169173691Y-134865000D01*
X169000459Y-134936755D01*
X168951890Y-134903569D01*
X168798347Y-134872476D01*
X168669723Y-134679977D01*
X168621028Y-134647440D01*
X168700000Y-134647440D01*
X168935317Y-134603162D01*
X168998568Y-134562461D01*
X169173691Y-134635000D01*
X169564250Y-134635000D01*
X169723000Y-134476250D01*
X169723000Y-133627000D01*
X169977000Y-133627000D01*
X169977000Y-134476250D01*
X170135750Y-134635000D01*
X170526309Y-134635000D01*
X170759698Y-134538327D01*
X170938327Y-134359699D01*
X171035000Y-134126310D01*
X171035000Y-133785750D01*
X170876250Y-133627000D01*
X169977000Y-133627000D01*
X169723000Y-133627000D01*
X169703000Y-133627000D01*
X169703000Y-133434700D01*
X171639800Y-133434700D01*
X171921072Y-133378751D01*
X172159523Y-133219423D01*
X175560958Y-129817989D01*
X175752054Y-130009419D01*
X176132323Y-130167320D01*
X176544071Y-130167679D01*
X176852560Y-130040214D01*
X176852560Y-130700000D01*
X176873669Y-130812184D01*
X175458177Y-132227677D01*
X175298849Y-132466128D01*
X175242900Y-132747400D01*
X175242900Y-140807800D01*
X175294120Y-141065300D01*
X175298849Y-141089072D01*
X175458177Y-141327523D01*
X176450677Y-142320024D01*
X176610092Y-142426541D01*
X176689128Y-142479351D01*
X176970400Y-142535300D01*
X179150000Y-142535300D01*
X179431272Y-142479351D01*
X179515884Y-142422815D01*
X187864630Y-142422815D01*
X188188980Y-143207800D01*
X188789041Y-143808909D01*
X189573459Y-144134628D01*
X190422815Y-144135370D01*
X191207800Y-143811020D01*
X191808909Y-143210959D01*
X192134628Y-142426541D01*
X192135370Y-141577185D01*
X191811020Y-140792200D01*
X191210959Y-140191091D01*
X190426541Y-139865372D01*
X189577185Y-139864630D01*
X188792200Y-140188980D01*
X188191091Y-140789041D01*
X187865372Y-141573459D01*
X187864630Y-142422815D01*
X179515884Y-142422815D01*
X179669723Y-142320023D01*
X179785039Y-142147440D01*
X179900000Y-142147440D01*
X180108850Y-142108142D01*
X180173691Y-142135000D01*
X180564250Y-142135000D01*
X180723000Y-141976250D01*
X180723000Y-141127000D01*
X180977000Y-141127000D01*
X180977000Y-141976250D01*
X181135750Y-142135000D01*
X181526309Y-142135000D01*
X181759698Y-142038327D01*
X181938327Y-141859699D01*
X182035000Y-141626310D01*
X182035000Y-141285750D01*
X181876250Y-141127000D01*
X180977000Y-141127000D01*
X180723000Y-141127000D01*
X180703000Y-141127000D01*
X180703000Y-140873000D01*
X180723000Y-140873000D01*
X180723000Y-140023750D01*
X180977000Y-140023750D01*
X180977000Y-140873000D01*
X181876250Y-140873000D01*
X182035000Y-140714250D01*
X182035000Y-140373690D01*
X181938327Y-140140301D01*
X181759698Y-139961673D01*
X181526309Y-139865000D01*
X181135750Y-139865000D01*
X180977000Y-140023750D01*
X180723000Y-140023750D01*
X180564250Y-139865000D01*
X180173691Y-139865000D01*
X180103993Y-139893870D01*
X179900000Y-139852560D01*
X178682875Y-139852560D01*
X178684820Y-139847877D01*
X178684995Y-139647440D01*
X179900000Y-139647440D01*
X180108850Y-139608142D01*
X180173691Y-139635000D01*
X180564250Y-139635000D01*
X180723000Y-139476250D01*
X180723000Y-138627000D01*
X180977000Y-138627000D01*
X180977000Y-139476250D01*
X181135750Y-139635000D01*
X181526309Y-139635000D01*
X181759698Y-139538327D01*
X181938327Y-139359699D01*
X182035000Y-139126310D01*
X182035000Y-138785750D01*
X181876250Y-138627000D01*
X180977000Y-138627000D01*
X180723000Y-138627000D01*
X180703000Y-138627000D01*
X180703000Y-138373000D01*
X180723000Y-138373000D01*
X180723000Y-137523750D01*
X180977000Y-137523750D01*
X180977000Y-138373000D01*
X181876250Y-138373000D01*
X182035000Y-138214250D01*
X182035000Y-137873690D01*
X181938327Y-137640301D01*
X181759698Y-137461673D01*
X181526309Y-137365000D01*
X181135750Y-137365000D01*
X180977000Y-137523750D01*
X180723000Y-137523750D01*
X180564250Y-137365000D01*
X180173691Y-137365000D01*
X180103993Y-137393870D01*
X179900000Y-137352560D01*
X179785039Y-137352560D01*
X179716511Y-137250000D01*
X179785039Y-137147440D01*
X179900000Y-137147440D01*
X180108850Y-137108142D01*
X180173691Y-137135000D01*
X180564250Y-137135000D01*
X180723000Y-136976250D01*
X180723000Y-136127000D01*
X180977000Y-136127000D01*
X180977000Y-136976250D01*
X181135750Y-137135000D01*
X181526309Y-137135000D01*
X181759698Y-137038327D01*
X181938327Y-136859699D01*
X182035000Y-136626310D01*
X182035000Y-136285750D01*
X181876250Y-136127000D01*
X180977000Y-136127000D01*
X180723000Y-136127000D01*
X180703000Y-136127000D01*
X180703000Y-135873000D01*
X180723000Y-135873000D01*
X180723000Y-135023750D01*
X180977000Y-135023750D01*
X180977000Y-135873000D01*
X181876250Y-135873000D01*
X182035000Y-135714250D01*
X182035000Y-135373690D01*
X181938327Y-135140301D01*
X181759698Y-134961673D01*
X181526309Y-134865000D01*
X181135750Y-134865000D01*
X180977000Y-135023750D01*
X180723000Y-135023750D01*
X180564250Y-134865000D01*
X180173691Y-134865000D01*
X180103993Y-134893870D01*
X179900000Y-134852560D01*
X178915981Y-134852560D01*
X178924320Y-134832477D01*
X178924679Y-134420729D01*
X178922848Y-134416298D01*
X179785497Y-133553650D01*
X179848110Y-133596431D01*
X180100000Y-133647440D01*
X181200000Y-133647440D01*
X181435317Y-133603162D01*
X181498568Y-133562461D01*
X181673691Y-133635000D01*
X182064250Y-133635000D01*
X182223000Y-133476250D01*
X182223000Y-132627000D01*
X182477000Y-132627000D01*
X182477000Y-133476250D01*
X182635750Y-133635000D01*
X183026309Y-133635000D01*
X183259698Y-133538327D01*
X183438327Y-133359699D01*
X183535000Y-133126310D01*
X183535000Y-132785750D01*
X183376250Y-132627000D01*
X182477000Y-132627000D01*
X182223000Y-132627000D01*
X182203000Y-132627000D01*
X182203000Y-132373000D01*
X182223000Y-132373000D01*
X182223000Y-131523750D01*
X182477000Y-131523750D01*
X182477000Y-132373000D01*
X183376250Y-132373000D01*
X183535000Y-132214250D01*
X183535000Y-131873690D01*
X183438327Y-131640301D01*
X183259698Y-131461673D01*
X183026309Y-131365000D01*
X182635750Y-131365000D01*
X182477000Y-131523750D01*
X182223000Y-131523750D01*
X182064250Y-131365000D01*
X181673691Y-131365000D01*
X181500459Y-131436755D01*
X181451890Y-131403569D01*
X181298347Y-131372476D01*
X181272503Y-131333798D01*
X181303671Y-131327933D01*
X181400000Y-131347440D01*
X181850000Y-131347440D01*
X181953671Y-131327933D01*
X182050000Y-131347440D01*
X182500000Y-131347440D01*
X182735317Y-131303162D01*
X182951441Y-131164090D01*
X183096431Y-130951890D01*
X183147440Y-130700000D01*
X183147440Y-129200000D01*
X183103162Y-128964683D01*
X182964090Y-128748559D01*
X182751890Y-128603569D01*
X182500000Y-128552560D01*
X182260040Y-128552560D01*
X182144724Y-128379977D01*
X180866823Y-127102077D01*
X180628372Y-126942749D01*
X180464910Y-126910234D01*
X180647615Y-126834742D01*
X180939019Y-126543846D01*
X181096920Y-126163577D01*
X181097096Y-125961250D01*
X181271800Y-125786546D01*
X187081276Y-131596023D01*
X187306378Y-131746431D01*
X187319728Y-131755351D01*
X187601000Y-131811300D01*
X190590100Y-131811300D01*
X190871372Y-131755351D01*
X191109823Y-131596023D01*
X191726923Y-130978924D01*
X191886251Y-130740472D01*
X191887340Y-130734999D01*
X191942200Y-130459200D01*
X191942200Y-129207200D01*
X191886251Y-128925928D01*
X191870189Y-128901890D01*
X191726924Y-128687477D01*
X191477865Y-128438419D01*
X191565072Y-128000000D01*
X191458732Y-127465391D01*
X191155900Y-127012172D01*
X191137683Y-127000000D01*
X191155900Y-126987828D01*
X191458732Y-126534609D01*
X191565072Y-126000000D01*
X191458732Y-125465391D01*
X191155900Y-125012172D01*
X191101922Y-124976105D01*
X191262135Y-124830328D01*
X191492220Y-124343070D01*
X191369720Y-124127000D01*
X190127000Y-124127000D01*
X190127000Y-124147000D01*
X189873000Y-124147000D01*
X189873000Y-124127000D01*
X189853000Y-124127000D01*
X189853000Y-123873000D01*
X189873000Y-123873000D01*
X189873000Y-122761251D01*
X190127000Y-122761251D01*
X190127000Y-123873000D01*
X191369720Y-123873000D01*
X191492220Y-123656930D01*
X191262135Y-123169672D01*
X190858812Y-122802689D01*
X190345752Y-122617986D01*
X190127000Y-122761251D01*
X189873000Y-122761251D01*
X189654248Y-122617986D01*
X189141188Y-122802689D01*
X188737865Y-123169672D01*
X188568272Y-123528825D01*
X186174800Y-121135354D01*
X186174800Y-119112200D01*
X186118851Y-118830928D01*
X186079796Y-118772478D01*
X185959524Y-118592477D01*
X185047023Y-117679977D01*
X184808572Y-117520649D01*
X184805309Y-117520000D01*
X184527300Y-117464700D01*
X182150000Y-117464700D01*
X181868728Y-117520649D01*
X181630277Y-117679977D01*
X181502731Y-117870862D01*
X181364683Y-117896838D01*
X181148559Y-118035910D01*
X181003569Y-118248110D01*
X181000149Y-118265000D01*
X178885000Y-118265000D01*
X178885000Y-117112630D01*
X178907342Y-117108426D01*
X179100000Y-117147440D01*
X180400000Y-117147440D01*
X180608850Y-117108142D01*
X180673691Y-117135000D01*
X181064250Y-117135000D01*
X181223000Y-116976250D01*
X181223000Y-116127000D01*
X181477000Y-116127000D01*
X181477000Y-116976250D01*
X181635750Y-117135000D01*
X182026309Y-117135000D01*
X182259698Y-117038327D01*
X182438327Y-116859699D01*
X182535000Y-116626310D01*
X182535000Y-116285750D01*
X182376250Y-116127000D01*
X181477000Y-116127000D01*
X181223000Y-116127000D01*
X181203000Y-116127000D01*
X181203000Y-115873000D01*
X181223000Y-115873000D01*
X181223000Y-115023750D01*
X181477000Y-115023750D01*
X181477000Y-115873000D01*
X182376250Y-115873000D01*
X182535000Y-115714250D01*
X182535000Y-115373690D01*
X182438327Y-115140301D01*
X182259698Y-114961673D01*
X182026309Y-114865000D01*
X181635750Y-114865000D01*
X181477000Y-115023750D01*
X181223000Y-115023750D01*
X181064250Y-114865000D01*
X180673691Y-114865000D01*
X180603993Y-114893870D01*
X180400000Y-114852560D01*
X180285040Y-114852560D01*
X180169724Y-114679977D01*
X178912562Y-113422815D01*
X187864630Y-113422815D01*
X188188980Y-114207800D01*
X188789041Y-114808909D01*
X189573459Y-115134628D01*
X190422815Y-115135370D01*
X191207800Y-114811020D01*
X191808909Y-114210959D01*
X192134628Y-113426541D01*
X192135370Y-112577185D01*
X191811020Y-111792200D01*
X191210959Y-111191091D01*
X190426541Y-110865372D01*
X189577185Y-110864630D01*
X188792200Y-111188980D01*
X188191091Y-111789041D01*
X187865372Y-112573459D01*
X187864630Y-113422815D01*
X178912562Y-113422815D01*
X176660823Y-111171077D01*
X176422372Y-111011749D01*
X176141100Y-110955800D01*
X160700600Y-110955800D01*
X160419328Y-111011749D01*
X160180877Y-111171076D01*
X159112477Y-112239477D01*
X158953149Y-112477928D01*
X158897200Y-112759200D01*
X158897200Y-114257500D01*
X158938415Y-114464700D01*
X158953149Y-114538772D01*
X159112477Y-114777223D01*
X159664429Y-115329175D01*
X159575528Y-115386382D01*
X159442823Y-115253677D01*
X159204372Y-115094349D01*
X158923100Y-115038400D01*
X154531800Y-115038400D01*
X154250528Y-115094349D01*
X154012077Y-115253676D01*
X152928677Y-116337077D01*
X152769349Y-116575528D01*
X152713400Y-116856800D01*
X143710000Y-116856800D01*
X143710000Y-113422815D01*
X143864630Y-113422815D01*
X144188980Y-114207800D01*
X144789041Y-114808909D01*
X145573459Y-115134628D01*
X146422815Y-115135370D01*
X147207800Y-114811020D01*
X147808909Y-114210959D01*
X148134628Y-113426541D01*
X148135370Y-112577185D01*
X147811020Y-111792200D01*
X147210959Y-111191091D01*
X146426541Y-110865372D01*
X145577185Y-110864630D01*
X144792200Y-111188980D01*
X144191091Y-111789041D01*
X143865372Y-112573459D01*
X143864630Y-113422815D01*
X143710000Y-113422815D01*
X143710000Y-111069930D01*
X143744926Y-110894345D01*
X143804774Y-110804775D01*
X143894345Y-110744926D01*
X144069930Y-110710000D01*
X191930070Y-110710000D01*
X192105655Y-110744926D01*
X192105655Y-110744926D01*
G37*
X192105655Y-110744926D02*
X192195225Y-110804774D01*
X192255074Y-110894345D01*
X192290000Y-111069930D01*
X192290000Y-143930070D01*
X192255074Y-144105655D01*
X192195225Y-144195226D01*
X192105655Y-144255074D01*
X191930070Y-144290000D01*
X144069930Y-144290000D01*
X143894345Y-144255074D01*
X143804774Y-144195225D01*
X143744926Y-144105655D01*
X143710000Y-143930070D01*
X143710000Y-142422815D01*
X143864630Y-142422815D01*
X144188980Y-143207800D01*
X144789041Y-143808909D01*
X145573459Y-144134628D01*
X146422815Y-144135370D01*
X147207800Y-143811020D01*
X147808909Y-143210959D01*
X148134628Y-142426541D01*
X148135370Y-141577185D01*
X147811020Y-140792200D01*
X147210959Y-140191091D01*
X146426541Y-139865372D01*
X145577185Y-139864630D01*
X144792200Y-140188980D01*
X144191091Y-140789041D01*
X143865372Y-141573459D01*
X143864630Y-142422815D01*
X143710000Y-142422815D01*
X143710000Y-119000000D01*
X145290000Y-119000000D01*
X145290000Y-136000000D01*
X145303642Y-136068584D01*
X145303642Y-136138513D01*
X145379762Y-136521196D01*
X145395474Y-136559128D01*
X145485776Y-136777138D01*
X145702549Y-137101561D01*
X145702550Y-137101562D01*
X145898438Y-137297451D01*
X146222862Y-137514223D01*
X146305757Y-137548559D01*
X146478804Y-137620238D01*
X146861486Y-137696358D01*
X147138513Y-137696358D01*
X147521196Y-137620238D01*
X147629444Y-137575400D01*
X147777138Y-137514224D01*
X148101561Y-137297451D01*
X148163912Y-137235100D01*
X148297451Y-137101562D01*
X148514223Y-136777138D01*
X148578690Y-136621500D01*
X148620238Y-136521196D01*
X148696358Y-136138514D01*
X148696358Y-136068584D01*
X148710000Y-136000000D01*
X148710000Y-119000000D01*
X148696358Y-118931416D01*
X148696358Y-118861486D01*
X148620238Y-118478804D01*
X148538129Y-118280577D01*
X148514223Y-118222862D01*
X148297451Y-117898438D01*
X148101562Y-117702550D01*
X148101561Y-117702549D01*
X147777138Y-117485776D01*
X147593368Y-117409657D01*
X147521196Y-117379762D01*
X147138513Y-117303642D01*
X147000000Y-117303642D01*
X146478804Y-117379762D01*
X146334143Y-117439683D01*
X146222862Y-117485777D01*
X145898438Y-117702549D01*
X145799716Y-117801272D01*
X145702549Y-117898439D01*
X145485776Y-118222862D01*
X145447218Y-118315951D01*
X145379762Y-118478804D01*
X145303642Y-118861487D01*
X145303642Y-118931416D01*
X145290000Y-119000000D01*
X143710000Y-119000000D01*
X143710000Y-116856800D01*
X152713400Y-116856800D01*
X152713400Y-129243700D01*
X152760458Y-129480276D01*
X152769349Y-129524972D01*
X152928677Y-129763423D01*
X155684977Y-132519724D01*
X155696704Y-132527560D01*
X155350000Y-132527560D01*
X155114683Y-132571838D01*
X154898559Y-132710910D01*
X154753569Y-132923110D01*
X154702560Y-133175000D01*
X154702560Y-135825000D01*
X154746838Y-136060317D01*
X154885910Y-136276441D01*
X155098110Y-136421431D01*
X155350000Y-136472440D01*
X157215400Y-136472440D01*
X157215400Y-136500100D01*
X157246402Y-136655954D01*
X157271349Y-136781372D01*
X157430677Y-137019823D01*
X160566646Y-140155793D01*
X160503569Y-140248110D01*
X160452560Y-140500000D01*
X160452560Y-141500000D01*
X160496838Y-141735317D01*
X160635910Y-141951441D01*
X160848110Y-142096431D01*
X161100000Y-142147440D01*
X162200000Y-142147440D01*
X162435317Y-142103162D01*
X162498568Y-142062461D01*
X162673691Y-142135000D01*
X163064250Y-142135000D01*
X163223000Y-141976250D01*
X163223000Y-141127000D01*
X163477000Y-141127000D01*
X163477000Y-141976250D01*
X163635750Y-142135000D01*
X164026309Y-142135000D01*
X164259698Y-142038327D01*
X164438327Y-141859699D01*
X164535000Y-141626310D01*
X164535000Y-141285750D01*
X164376250Y-141127000D01*
X163477000Y-141127000D01*
X163223000Y-141127000D01*
X163203000Y-141127000D01*
X163203000Y-140904971D01*
X165964521Y-140904971D01*
X166121758Y-141285515D01*
X166412654Y-141576919D01*
X166792923Y-141734820D01*
X166996778Y-141734998D01*
X166996838Y-141735317D01*
X167135910Y-141951441D01*
X167348110Y-142096431D01*
X167600000Y-142147440D01*
X168700000Y-142147440D01*
X168935317Y-142103162D01*
X168998568Y-142062461D01*
X169173691Y-142135000D01*
X169564250Y-142135000D01*
X169723000Y-141976250D01*
X169723000Y-141127000D01*
X169977000Y-141127000D01*
X169977000Y-141976250D01*
X170135750Y-142135000D01*
X170526309Y-142135000D01*
X170759698Y-142038327D01*
X170938327Y-141859699D01*
X171035000Y-141626310D01*
X171035000Y-141285750D01*
X170876250Y-141127000D01*
X169977000Y-141127000D01*
X169723000Y-141127000D01*
X169703000Y-141127000D01*
X169703000Y-140873000D01*
X169723000Y-140873000D01*
X169723000Y-140023750D01*
X169977000Y-140023750D01*
X169977000Y-140873000D01*
X170876250Y-140873000D01*
X171035000Y-140714250D01*
X171035000Y-140373690D01*
X170938327Y-140140301D01*
X170759698Y-139961673D01*
X170526309Y-139865000D01*
X170135750Y-139865000D01*
X169977000Y-140023750D01*
X169723000Y-140023750D01*
X169564250Y-139865000D01*
X169173691Y-139865000D01*
X169000459Y-139936755D01*
X168951890Y-139903569D01*
X168700000Y-139852560D01*
X167616174Y-139852560D01*
X167586746Y-139823081D01*
X167206477Y-139665180D01*
X166794729Y-139664821D01*
X166414185Y-139822058D01*
X166122781Y-140112954D01*
X165964880Y-140493223D01*
X165964521Y-140904971D01*
X163203000Y-140904971D01*
X163203000Y-140873000D01*
X163223000Y-140873000D01*
X163223000Y-140023750D01*
X163477000Y-140023750D01*
X163477000Y-140873000D01*
X164376250Y-140873000D01*
X164535000Y-140714250D01*
X164535000Y-140373690D01*
X164438327Y-140140301D01*
X164259698Y-139961673D01*
X164026309Y-139865000D01*
X163635750Y-139865000D01*
X163477000Y-140023750D01*
X163223000Y-140023750D01*
X163064250Y-139865000D01*
X162673691Y-139865000D01*
X162500459Y-139936755D01*
X162451890Y-139903569D01*
X162298347Y-139872476D01*
X162169723Y-139679976D01*
X162137187Y-139647440D01*
X162200000Y-139647440D01*
X162435317Y-139603162D01*
X162498568Y-139562461D01*
X162673691Y-139635000D01*
X163064250Y-139635000D01*
X163223000Y-139476250D01*
X163223000Y-138627000D01*
X163477000Y-138627000D01*
X163477000Y-139476250D01*
X163635750Y-139635000D01*
X164026309Y-139635000D01*
X164259698Y-139538327D01*
X164438327Y-139359699D01*
X164535000Y-139126310D01*
X164535000Y-138785750D01*
X164376250Y-138627000D01*
X163477000Y-138627000D01*
X163223000Y-138627000D01*
X163203000Y-138627000D01*
X163203000Y-138373000D01*
X163223000Y-138373000D01*
X163223000Y-137523750D01*
X163477000Y-137523750D01*
X163477000Y-138373000D01*
X164376250Y-138373000D01*
X164535000Y-138214250D01*
X164535000Y-137873690D01*
X164438327Y-137640301D01*
X164259698Y-137461673D01*
X164026309Y-137365000D01*
X163635750Y-137365000D01*
X163477000Y-137523750D01*
X163223000Y-137523750D01*
X163064250Y-137365000D01*
X162673691Y-137365000D01*
X162500459Y-137436755D01*
X162451890Y-137403569D01*
X162298347Y-137372476D01*
X162169723Y-137179976D01*
X162137187Y-137147440D01*
X162200000Y-137147440D01*
X162435317Y-137103162D01*
X162498568Y-137062461D01*
X162673691Y-137135000D01*
X163064250Y-137135000D01*
X163223000Y-136976250D01*
X163223000Y-136127000D01*
X163477000Y-136127000D01*
X163477000Y-136976250D01*
X163635750Y-137135000D01*
X164026309Y-137135000D01*
X164259698Y-137038327D01*
X164438327Y-136859699D01*
X164535000Y-136626310D01*
X164535000Y-136285750D01*
X164376250Y-136127000D01*
X163477000Y-136127000D01*
X163223000Y-136127000D01*
X163203000Y-136127000D01*
X163203000Y-135873000D01*
X163223000Y-135873000D01*
X163223000Y-135023750D01*
X163477000Y-135023750D01*
X163477000Y-135873000D01*
X164376250Y-135873000D01*
X164535000Y-135714250D01*
X164535000Y-135373690D01*
X164438327Y-135140301D01*
X164259698Y-134961673D01*
X164026309Y-134865000D01*
X163635750Y-134865000D01*
X163477000Y-135023750D01*
X163223000Y-135023750D01*
X163064250Y-134865000D01*
X162673691Y-134865000D01*
X162500459Y-134936755D01*
X162451890Y-134903569D01*
X162298347Y-134872476D01*
X162293352Y-134865000D01*
X162169723Y-134679976D01*
X162137187Y-134647440D01*
X162200000Y-134647440D01*
X162435317Y-134603162D01*
X162498568Y-134562461D01*
X162673691Y-134635000D01*
X163064250Y-134635000D01*
X163223000Y-134476250D01*
X163223000Y-133627000D01*
X163203000Y-133627000D01*
X163203000Y-133373000D01*
X163223000Y-133373000D01*
X163223000Y-133353000D01*
X163477000Y-133353000D01*
X163477000Y-133373000D01*
X163497000Y-133373000D01*
X163497000Y-133627000D01*
X163477000Y-133627000D01*
X163477000Y-134476250D01*
X163635750Y-134635000D01*
X164026309Y-134635000D01*
X164259698Y-134538327D01*
X164438327Y-134359699D01*
X164499198Y-134212744D01*
X165715400Y-135428947D01*
X165715400Y-136000100D01*
X165760638Y-136227523D01*
X165771349Y-136281372D01*
X165930677Y-136519823D01*
X167066646Y-137655793D01*
X167003569Y-137748110D01*
X166952560Y-138000000D01*
X166952560Y-139000000D01*
X166996838Y-139235317D01*
X167135910Y-139451441D01*
X167348110Y-139596431D01*
X167600000Y-139647440D01*
X168700000Y-139647440D01*
X168935317Y-139603162D01*
X168998568Y-139562461D01*
X169173691Y-139635000D01*
X169564250Y-139635000D01*
X169723000Y-139476250D01*
X169723000Y-138627000D01*
X169977000Y-138627000D01*
X169977000Y-139476250D01*
X170135750Y-139635000D01*
X170526309Y-139635000D01*
X170759698Y-139538327D01*
X170938327Y-139359699D01*
X171035000Y-139126310D01*
X171035000Y-138785750D01*
X170876250Y-138627000D01*
X169977000Y-138627000D01*
X169723000Y-138627000D01*
X169703000Y-138627000D01*
X169703000Y-138373000D01*
X169723000Y-138373000D01*
X169723000Y-137523750D01*
X169977000Y-137523750D01*
X169977000Y-138373000D01*
X170876250Y-138373000D01*
X171035000Y-138214250D01*
X171035000Y-137873690D01*
X170938327Y-137640301D01*
X170759698Y-137461673D01*
X170526309Y-137365000D01*
X170135750Y-137365000D01*
X169977000Y-137523750D01*
X169723000Y-137523750D01*
X169564250Y-137365000D01*
X169173691Y-137365000D01*
X169000459Y-137436755D01*
X168951890Y-137403569D01*
X168798347Y-137372476D01*
X168787672Y-137356500D01*
X168669723Y-137179976D01*
X168637187Y-137147440D01*
X168700000Y-137147440D01*
X168935317Y-137103162D01*
X168998568Y-137062461D01*
X169173691Y-137135000D01*
X169564250Y-137135000D01*
X169723000Y-136976250D01*
X169723000Y-136127000D01*
X169977000Y-136127000D01*
X169977000Y-136976250D01*
X170135750Y-137135000D01*
X170526309Y-137135000D01*
X170759698Y-137038327D01*
X170938327Y-136859699D01*
X171035000Y-136626310D01*
X171035000Y-136285750D01*
X170876250Y-136127000D01*
X169977000Y-136127000D01*
X169723000Y-136127000D01*
X169703000Y-136127000D01*
X169703000Y-135873000D01*
X169723000Y-135873000D01*
X169723000Y-135023750D01*
X169977000Y-135023750D01*
X169977000Y-135873000D01*
X170876250Y-135873000D01*
X171035000Y-135714250D01*
X171035000Y-135373690D01*
X170938327Y-135140301D01*
X170759698Y-134961673D01*
X170526309Y-134865000D01*
X170135750Y-134865000D01*
X169977000Y-135023750D01*
X169723000Y-135023750D01*
X169564250Y-134865000D01*
X169173691Y-134865000D01*
X169000459Y-134936755D01*
X168951890Y-134903569D01*
X168798347Y-134872476D01*
X168669723Y-134679977D01*
X168621028Y-134647440D01*
X168700000Y-134647440D01*
X168935317Y-134603162D01*
X168998568Y-134562461D01*
X169173691Y-134635000D01*
X169564250Y-134635000D01*
X169723000Y-134476250D01*
X169723000Y-133627000D01*
X169977000Y-133627000D01*
X169977000Y-134476250D01*
X170135750Y-134635000D01*
X170526309Y-134635000D01*
X170759698Y-134538327D01*
X170938327Y-134359699D01*
X171035000Y-134126310D01*
X171035000Y-133785750D01*
X170876250Y-133627000D01*
X169977000Y-133627000D01*
X169723000Y-133627000D01*
X169703000Y-133627000D01*
X169703000Y-133434700D01*
X171639800Y-133434700D01*
X171921072Y-133378751D01*
X172159523Y-133219423D01*
X175560958Y-129817989D01*
X175752054Y-130009419D01*
X176132323Y-130167320D01*
X176544071Y-130167679D01*
X176852560Y-130040214D01*
X176852560Y-130700000D01*
X176873669Y-130812184D01*
X175458177Y-132227677D01*
X175298849Y-132466128D01*
X175242900Y-132747400D01*
X175242900Y-140807800D01*
X175294120Y-141065300D01*
X175298849Y-141089072D01*
X175458177Y-141327523D01*
X176450677Y-142320024D01*
X176610092Y-142426541D01*
X176689128Y-142479351D01*
X176970400Y-142535300D01*
X179150000Y-142535300D01*
X179431272Y-142479351D01*
X179515884Y-142422815D01*
X187864630Y-142422815D01*
X188188980Y-143207800D01*
X188789041Y-143808909D01*
X189573459Y-144134628D01*
X190422815Y-144135370D01*
X191207800Y-143811020D01*
X191808909Y-143210959D01*
X192134628Y-142426541D01*
X192135370Y-141577185D01*
X191811020Y-140792200D01*
X191210959Y-140191091D01*
X190426541Y-139865372D01*
X189577185Y-139864630D01*
X188792200Y-140188980D01*
X188191091Y-140789041D01*
X187865372Y-141573459D01*
X187864630Y-142422815D01*
X179515884Y-142422815D01*
X179669723Y-142320023D01*
X179785039Y-142147440D01*
X179900000Y-142147440D01*
X180108850Y-142108142D01*
X180173691Y-142135000D01*
X180564250Y-142135000D01*
X180723000Y-141976250D01*
X180723000Y-141127000D01*
X180977000Y-141127000D01*
X180977000Y-141976250D01*
X181135750Y-142135000D01*
X181526309Y-142135000D01*
X181759698Y-142038327D01*
X181938327Y-141859699D01*
X182035000Y-141626310D01*
X182035000Y-141285750D01*
X181876250Y-141127000D01*
X180977000Y-141127000D01*
X180723000Y-141127000D01*
X180703000Y-141127000D01*
X180703000Y-140873000D01*
X180723000Y-140873000D01*
X180723000Y-140023750D01*
X180977000Y-140023750D01*
X180977000Y-140873000D01*
X181876250Y-140873000D01*
X182035000Y-140714250D01*
X182035000Y-140373690D01*
X181938327Y-140140301D01*
X181759698Y-139961673D01*
X181526309Y-139865000D01*
X181135750Y-139865000D01*
X180977000Y-140023750D01*
X180723000Y-140023750D01*
X180564250Y-139865000D01*
X180173691Y-139865000D01*
X180103993Y-139893870D01*
X179900000Y-139852560D01*
X178682875Y-139852560D01*
X178684820Y-139847877D01*
X178684995Y-139647440D01*
X179900000Y-139647440D01*
X180108850Y-139608142D01*
X180173691Y-139635000D01*
X180564250Y-139635000D01*
X180723000Y-139476250D01*
X180723000Y-138627000D01*
X180977000Y-138627000D01*
X180977000Y-139476250D01*
X181135750Y-139635000D01*
X181526309Y-139635000D01*
X181759698Y-139538327D01*
X181938327Y-139359699D01*
X182035000Y-139126310D01*
X182035000Y-138785750D01*
X181876250Y-138627000D01*
X180977000Y-138627000D01*
X180723000Y-138627000D01*
X180703000Y-138627000D01*
X180703000Y-138373000D01*
X180723000Y-138373000D01*
X180723000Y-137523750D01*
X180977000Y-137523750D01*
X180977000Y-138373000D01*
X181876250Y-138373000D01*
X182035000Y-138214250D01*
X182035000Y-137873690D01*
X181938327Y-137640301D01*
X181759698Y-137461673D01*
X181526309Y-137365000D01*
X181135750Y-137365000D01*
X180977000Y-137523750D01*
X180723000Y-137523750D01*
X180564250Y-137365000D01*
X180173691Y-137365000D01*
X180103993Y-137393870D01*
X179900000Y-137352560D01*
X179785039Y-137352560D01*
X179716511Y-137250000D01*
X179785039Y-137147440D01*
X179900000Y-137147440D01*
X180108850Y-137108142D01*
X180173691Y-137135000D01*
X180564250Y-137135000D01*
X180723000Y-136976250D01*
X180723000Y-136127000D01*
X180977000Y-136127000D01*
X180977000Y-136976250D01*
X181135750Y-137135000D01*
X181526309Y-137135000D01*
X181759698Y-137038327D01*
X181938327Y-136859699D01*
X182035000Y-136626310D01*
X182035000Y-136285750D01*
X181876250Y-136127000D01*
X180977000Y-136127000D01*
X180723000Y-136127000D01*
X180703000Y-136127000D01*
X180703000Y-135873000D01*
X180723000Y-135873000D01*
X180723000Y-135023750D01*
X180977000Y-135023750D01*
X180977000Y-135873000D01*
X181876250Y-135873000D01*
X182035000Y-135714250D01*
X182035000Y-135373690D01*
X181938327Y-135140301D01*
X181759698Y-134961673D01*
X181526309Y-134865000D01*
X181135750Y-134865000D01*
X180977000Y-135023750D01*
X180723000Y-135023750D01*
X180564250Y-134865000D01*
X180173691Y-134865000D01*
X180103993Y-134893870D01*
X179900000Y-134852560D01*
X178915981Y-134852560D01*
X178924320Y-134832477D01*
X178924679Y-134420729D01*
X178922848Y-134416298D01*
X179785497Y-133553650D01*
X179848110Y-133596431D01*
X180100000Y-133647440D01*
X181200000Y-133647440D01*
X181435317Y-133603162D01*
X181498568Y-133562461D01*
X181673691Y-133635000D01*
X182064250Y-133635000D01*
X182223000Y-133476250D01*
X182223000Y-132627000D01*
X182477000Y-132627000D01*
X182477000Y-133476250D01*
X182635750Y-133635000D01*
X183026309Y-133635000D01*
X183259698Y-133538327D01*
X183438327Y-133359699D01*
X183535000Y-133126310D01*
X183535000Y-132785750D01*
X183376250Y-132627000D01*
X182477000Y-132627000D01*
X182223000Y-132627000D01*
X182203000Y-132627000D01*
X182203000Y-132373000D01*
X182223000Y-132373000D01*
X182223000Y-131523750D01*
X182477000Y-131523750D01*
X182477000Y-132373000D01*
X183376250Y-132373000D01*
X183535000Y-132214250D01*
X183535000Y-131873690D01*
X183438327Y-131640301D01*
X183259698Y-131461673D01*
X183026309Y-131365000D01*
X182635750Y-131365000D01*
X182477000Y-131523750D01*
X182223000Y-131523750D01*
X182064250Y-131365000D01*
X181673691Y-131365000D01*
X181500459Y-131436755D01*
X181451890Y-131403569D01*
X181298347Y-131372476D01*
X181272503Y-131333798D01*
X181303671Y-131327933D01*
X181400000Y-131347440D01*
X181850000Y-131347440D01*
X181953671Y-131327933D01*
X182050000Y-131347440D01*
X182500000Y-131347440D01*
X182735317Y-131303162D01*
X182951441Y-131164090D01*
X183096431Y-130951890D01*
X183147440Y-130700000D01*
X183147440Y-129200000D01*
X183103162Y-128964683D01*
X182964090Y-128748559D01*
X182751890Y-128603569D01*
X182500000Y-128552560D01*
X182260040Y-128552560D01*
X182144724Y-128379977D01*
X180866823Y-127102077D01*
X180628372Y-126942749D01*
X180464910Y-126910234D01*
X180647615Y-126834742D01*
X180939019Y-126543846D01*
X181096920Y-126163577D01*
X181097096Y-125961250D01*
X181271800Y-125786546D01*
X187081276Y-131596023D01*
X187306378Y-131746431D01*
X187319728Y-131755351D01*
X187601000Y-131811300D01*
X190590100Y-131811300D01*
X190871372Y-131755351D01*
X191109823Y-131596023D01*
X191726923Y-130978924D01*
X191886251Y-130740472D01*
X191887340Y-130734999D01*
X191942200Y-130459200D01*
X191942200Y-129207200D01*
X191886251Y-128925928D01*
X191870189Y-128901890D01*
X191726924Y-128687477D01*
X191477865Y-128438419D01*
X191565072Y-128000000D01*
X191458732Y-127465391D01*
X191155900Y-127012172D01*
X191137683Y-127000000D01*
X191155900Y-126987828D01*
X191458732Y-126534609D01*
X191565072Y-126000000D01*
X191458732Y-125465391D01*
X191155900Y-125012172D01*
X191101922Y-124976105D01*
X191262135Y-124830328D01*
X191492220Y-124343070D01*
X191369720Y-124127000D01*
X190127000Y-124127000D01*
X190127000Y-124147000D01*
X189873000Y-124147000D01*
X189873000Y-124127000D01*
X189853000Y-124127000D01*
X189853000Y-123873000D01*
X189873000Y-123873000D01*
X189873000Y-122761251D01*
X190127000Y-122761251D01*
X190127000Y-123873000D01*
X191369720Y-123873000D01*
X191492220Y-123656930D01*
X191262135Y-123169672D01*
X190858812Y-122802689D01*
X190345752Y-122617986D01*
X190127000Y-122761251D01*
X189873000Y-122761251D01*
X189654248Y-122617986D01*
X189141188Y-122802689D01*
X188737865Y-123169672D01*
X188568272Y-123528825D01*
X186174800Y-121135354D01*
X186174800Y-119112200D01*
X186118851Y-118830928D01*
X186079796Y-118772478D01*
X185959524Y-118592477D01*
X185047023Y-117679977D01*
X184808572Y-117520649D01*
X184805309Y-117520000D01*
X184527300Y-117464700D01*
X182150000Y-117464700D01*
X181868728Y-117520649D01*
X181630277Y-117679977D01*
X181502731Y-117870862D01*
X181364683Y-117896838D01*
X181148559Y-118035910D01*
X181003569Y-118248110D01*
X181000149Y-118265000D01*
X178885000Y-118265000D01*
X178885000Y-117112630D01*
X178907342Y-117108426D01*
X179100000Y-117147440D01*
X180400000Y-117147440D01*
X180608850Y-117108142D01*
X180673691Y-117135000D01*
X181064250Y-117135000D01*
X181223000Y-116976250D01*
X181223000Y-116127000D01*
X181477000Y-116127000D01*
X181477000Y-116976250D01*
X181635750Y-117135000D01*
X182026309Y-117135000D01*
X182259698Y-117038327D01*
X182438327Y-116859699D01*
X182535000Y-116626310D01*
X182535000Y-116285750D01*
X182376250Y-116127000D01*
X181477000Y-116127000D01*
X181223000Y-116127000D01*
X181203000Y-116127000D01*
X181203000Y-115873000D01*
X181223000Y-115873000D01*
X181223000Y-115023750D01*
X181477000Y-115023750D01*
X181477000Y-115873000D01*
X182376250Y-115873000D01*
X182535000Y-115714250D01*
X182535000Y-115373690D01*
X182438327Y-115140301D01*
X182259698Y-114961673D01*
X182026309Y-114865000D01*
X181635750Y-114865000D01*
X181477000Y-115023750D01*
X181223000Y-115023750D01*
X181064250Y-114865000D01*
X180673691Y-114865000D01*
X180603993Y-114893870D01*
X180400000Y-114852560D01*
X180285040Y-114852560D01*
X180169724Y-114679977D01*
X178912562Y-113422815D01*
X187864630Y-113422815D01*
X188188980Y-114207800D01*
X188789041Y-114808909D01*
X189573459Y-115134628D01*
X190422815Y-115135370D01*
X191207800Y-114811020D01*
X191808909Y-114210959D01*
X192134628Y-113426541D01*
X192135370Y-112577185D01*
X191811020Y-111792200D01*
X191210959Y-111191091D01*
X190426541Y-110865372D01*
X189577185Y-110864630D01*
X188792200Y-111188980D01*
X188191091Y-111789041D01*
X187865372Y-112573459D01*
X187864630Y-113422815D01*
X178912562Y-113422815D01*
X176660823Y-111171077D01*
X176422372Y-111011749D01*
X176141100Y-110955800D01*
X160700600Y-110955800D01*
X160419328Y-111011749D01*
X160180877Y-111171076D01*
X159112477Y-112239477D01*
X158953149Y-112477928D01*
X158897200Y-112759200D01*
X158897200Y-114257500D01*
X158938415Y-114464700D01*
X158953149Y-114538772D01*
X159112477Y-114777223D01*
X159664429Y-115329175D01*
X159575528Y-115386382D01*
X159442823Y-115253677D01*
X159204372Y-115094349D01*
X158923100Y-115038400D01*
X154531800Y-115038400D01*
X154250528Y-115094349D01*
X154012077Y-115253676D01*
X152928677Y-116337077D01*
X152769349Y-116575528D01*
X152713400Y-116856800D01*
X143710000Y-116856800D01*
X143710000Y-113422815D01*
X143864630Y-113422815D01*
X144188980Y-114207800D01*
X144789041Y-114808909D01*
X145573459Y-115134628D01*
X146422815Y-115135370D01*
X147207800Y-114811020D01*
X147808909Y-114210959D01*
X148134628Y-113426541D01*
X148135370Y-112577185D01*
X147811020Y-111792200D01*
X147210959Y-111191091D01*
X146426541Y-110865372D01*
X145577185Y-110864630D01*
X144792200Y-111188980D01*
X144191091Y-111789041D01*
X143865372Y-112573459D01*
X143864630Y-113422815D01*
X143710000Y-113422815D01*
X143710000Y-111069930D01*
X143744926Y-110894345D01*
X143804774Y-110804775D01*
X143894345Y-110744926D01*
X144069930Y-110710000D01*
X191930070Y-110710000D01*
X192105655Y-110744926D01*
G36*
X167061673Y-119640301D02*
X166965000Y-119873690D01*
X166965000Y-120214250D01*
X167123750Y-120373000D01*
X168023000Y-120373000D01*
X168023000Y-120353000D01*
X168277000Y-120353000D01*
X168277000Y-120373000D01*
X168297000Y-120373000D01*
X168297000Y-120627000D01*
X168277000Y-120627000D01*
X168277000Y-121476250D01*
X168435750Y-121635000D01*
X168826309Y-121635000D01*
X168999541Y-121563245D01*
X169048110Y-121596431D01*
X169300000Y-121647440D01*
X170400000Y-121647440D01*
X170635317Y-121603162D01*
X170851441Y-121464090D01*
X170996431Y-121251890D01*
X171015815Y-121156171D01*
X171220023Y-121019723D01*
X171439747Y-120800000D01*
X175993061Y-120800000D01*
X175952560Y-121000000D01*
X175952560Y-122000000D01*
X175996838Y-122235317D01*
X176135910Y-122451441D01*
X176348110Y-122596431D01*
X176600000Y-122647440D01*
X177700000Y-122647440D01*
X177935317Y-122603162D01*
X177998478Y-122562519D01*
X178048110Y-122596431D01*
X178201653Y-122627524D01*
X178218382Y-122652560D01*
X178150000Y-122652560D01*
X178046329Y-122672067D01*
X177950000Y-122652560D01*
X177500000Y-122652560D01*
X177264683Y-122696838D01*
X177048559Y-122835910D01*
X176903569Y-123048110D01*
X176852560Y-123300000D01*
X176852560Y-124800000D01*
X176858527Y-124831713D01*
X176753529Y-124831621D01*
X176372985Y-124988858D01*
X176081581Y-125279754D01*
X175923680Y-125660023D01*
X175923321Y-126071771D01*
X176080558Y-126452315D01*
X176371454Y-126743719D01*
X176716032Y-126886800D01*
X174118400Y-126886800D01*
X173837128Y-126942749D01*
X173598676Y-127102077D01*
X171595354Y-129105400D01*
X169703000Y-129105400D01*
X169703000Y-128873000D01*
X169723000Y-128873000D01*
X169723000Y-128023750D01*
X169977000Y-128023750D01*
X169977000Y-128873000D01*
X170876250Y-128873000D01*
X171035000Y-128714250D01*
X171035000Y-128373690D01*
X170938327Y-128140301D01*
X170759698Y-127961673D01*
X170526309Y-127865000D01*
X170135750Y-127865000D01*
X169977000Y-128023750D01*
X169723000Y-128023750D01*
X169564250Y-127865000D01*
X169173691Y-127865000D01*
X169000459Y-127936755D01*
X168951890Y-127903569D01*
X168700000Y-127852560D01*
X168637187Y-127852560D01*
X168669724Y-127820023D01*
X168797269Y-127629138D01*
X168935317Y-127603162D01*
X168998568Y-127562461D01*
X169173691Y-127635000D01*
X169564250Y-127635000D01*
X169723000Y-127476250D01*
X169723000Y-126627000D01*
X169977000Y-126627000D01*
X169977000Y-127476250D01*
X170135750Y-127635000D01*
X170526309Y-127635000D01*
X170759698Y-127538327D01*
X170938327Y-127359699D01*
X171035000Y-127126310D01*
X171035000Y-126785750D01*
X170876250Y-126627000D01*
X169977000Y-126627000D01*
X169723000Y-126627000D01*
X169703000Y-126627000D01*
X169703000Y-126373000D01*
X169723000Y-126373000D01*
X169723000Y-125523750D01*
X169977000Y-125523750D01*
X169977000Y-126373000D01*
X170876250Y-126373000D01*
X171035000Y-126214250D01*
X171035000Y-125873690D01*
X170938327Y-125640301D01*
X170759698Y-125461673D01*
X170526309Y-125365000D01*
X170135750Y-125365000D01*
X169977000Y-125523750D01*
X169723000Y-125523750D01*
X169564250Y-125365000D01*
X169173691Y-125365000D01*
X169000459Y-125436755D01*
X168951890Y-125403569D01*
X168700000Y-125352560D01*
X167600000Y-125352560D01*
X167364683Y-125396838D01*
X167148559Y-125535910D01*
X167003569Y-125748110D01*
X166952560Y-126000000D01*
X166952560Y-127000000D01*
X166996838Y-127235317D01*
X167066805Y-127344049D01*
X166945454Y-127465400D01*
X164597440Y-127465400D01*
X164597440Y-127100000D01*
X164553162Y-126864683D01*
X164522349Y-126816798D01*
X164720123Y-126619024D01*
X164879451Y-126380572D01*
X164896218Y-126296277D01*
X164935400Y-126099300D01*
X164935400Y-123310271D01*
X165950821Y-123310271D01*
X166108058Y-123690815D01*
X166398954Y-123982219D01*
X166779223Y-124140120D01*
X167190971Y-124140479D01*
X167329067Y-124083419D01*
X167348110Y-124096431D01*
X167600000Y-124147440D01*
X168700000Y-124147440D01*
X168935317Y-124103162D01*
X168998568Y-124062461D01*
X169173691Y-124135000D01*
X169564250Y-124135000D01*
X169723000Y-123976250D01*
X169723000Y-123127000D01*
X169977000Y-123127000D01*
X169977000Y-123976250D01*
X170135750Y-124135000D01*
X170526309Y-124135000D01*
X170759698Y-124038327D01*
X170938327Y-123859699D01*
X171035000Y-123626310D01*
X171035000Y-123285750D01*
X170876250Y-123127000D01*
X169977000Y-123127000D01*
X169723000Y-123127000D01*
X169703000Y-123127000D01*
X169703000Y-122873000D01*
X169723000Y-122873000D01*
X169723000Y-122023750D01*
X169977000Y-122023750D01*
X169977000Y-122873000D01*
X170876250Y-122873000D01*
X171035000Y-122714250D01*
X171035000Y-122373690D01*
X170938327Y-122140301D01*
X170759698Y-121961673D01*
X170526309Y-121865000D01*
X170135750Y-121865000D01*
X169977000Y-122023750D01*
X169723000Y-122023750D01*
X169564250Y-121865000D01*
X169173691Y-121865000D01*
X169000459Y-121936755D01*
X168951890Y-121903569D01*
X168700000Y-121852560D01*
X167600000Y-121852560D01*
X167364683Y-121896838D01*
X167148559Y-122035910D01*
X167124979Y-122070421D01*
X166781029Y-122070121D01*
X166400485Y-122227358D01*
X166109081Y-122518254D01*
X165951180Y-122898523D01*
X165950821Y-123310271D01*
X164935400Y-123310271D01*
X164935400Y-120785750D01*
X166965000Y-120785750D01*
X166965000Y-121126310D01*
X167061673Y-121359699D01*
X167240302Y-121538327D01*
X167473691Y-121635000D01*
X167864250Y-121635000D01*
X168023000Y-121476250D01*
X168023000Y-120627000D01*
X167123750Y-120627000D01*
X166965000Y-120785750D01*
X164935400Y-120785750D01*
X164935400Y-119954346D01*
X165354447Y-119535300D01*
X167166675Y-119535300D01*
X167061673Y-119640301D01*
X167061673Y-119640301D01*
G37*
X167061673Y-119640301D02*
X166965000Y-119873690D01*
X166965000Y-120214250D01*
X167123750Y-120373000D01*
X168023000Y-120373000D01*
X168023000Y-120353000D01*
X168277000Y-120353000D01*
X168277000Y-120373000D01*
X168297000Y-120373000D01*
X168297000Y-120627000D01*
X168277000Y-120627000D01*
X168277000Y-121476250D01*
X168435750Y-121635000D01*
X168826309Y-121635000D01*
X168999541Y-121563245D01*
X169048110Y-121596431D01*
X169300000Y-121647440D01*
X170400000Y-121647440D01*
X170635317Y-121603162D01*
X170851441Y-121464090D01*
X170996431Y-121251890D01*
X171015815Y-121156171D01*
X171220023Y-121019723D01*
X171439747Y-120800000D01*
X175993061Y-120800000D01*
X175952560Y-121000000D01*
X175952560Y-122000000D01*
X175996838Y-122235317D01*
X176135910Y-122451441D01*
X176348110Y-122596431D01*
X176600000Y-122647440D01*
X177700000Y-122647440D01*
X177935317Y-122603162D01*
X177998478Y-122562519D01*
X178048110Y-122596431D01*
X178201653Y-122627524D01*
X178218382Y-122652560D01*
X178150000Y-122652560D01*
X178046329Y-122672067D01*
X177950000Y-122652560D01*
X177500000Y-122652560D01*
X177264683Y-122696838D01*
X177048559Y-122835910D01*
X176903569Y-123048110D01*
X176852560Y-123300000D01*
X176852560Y-124800000D01*
X176858527Y-124831713D01*
X176753529Y-124831621D01*
X176372985Y-124988858D01*
X176081581Y-125279754D01*
X175923680Y-125660023D01*
X175923321Y-126071771D01*
X176080558Y-126452315D01*
X176371454Y-126743719D01*
X176716032Y-126886800D01*
X174118400Y-126886800D01*
X173837128Y-126942749D01*
X173598676Y-127102077D01*
X171595354Y-129105400D01*
X169703000Y-129105400D01*
X169703000Y-128873000D01*
X169723000Y-128873000D01*
X169723000Y-128023750D01*
X169977000Y-128023750D01*
X169977000Y-128873000D01*
X170876250Y-128873000D01*
X171035000Y-128714250D01*
X171035000Y-128373690D01*
X170938327Y-128140301D01*
X170759698Y-127961673D01*
X170526309Y-127865000D01*
X170135750Y-127865000D01*
X169977000Y-128023750D01*
X169723000Y-128023750D01*
X169564250Y-127865000D01*
X169173691Y-127865000D01*
X169000459Y-127936755D01*
X168951890Y-127903569D01*
X168700000Y-127852560D01*
X168637187Y-127852560D01*
X168669724Y-127820023D01*
X168797269Y-127629138D01*
X168935317Y-127603162D01*
X168998568Y-127562461D01*
X169173691Y-127635000D01*
X169564250Y-127635000D01*
X169723000Y-127476250D01*
X169723000Y-126627000D01*
X169977000Y-126627000D01*
X169977000Y-127476250D01*
X170135750Y-127635000D01*
X170526309Y-127635000D01*
X170759698Y-127538327D01*
X170938327Y-127359699D01*
X171035000Y-127126310D01*
X171035000Y-126785750D01*
X170876250Y-126627000D01*
X169977000Y-126627000D01*
X169723000Y-126627000D01*
X169703000Y-126627000D01*
X169703000Y-126373000D01*
X169723000Y-126373000D01*
X169723000Y-125523750D01*
X169977000Y-125523750D01*
X169977000Y-126373000D01*
X170876250Y-126373000D01*
X171035000Y-126214250D01*
X171035000Y-125873690D01*
X170938327Y-125640301D01*
X170759698Y-125461673D01*
X170526309Y-125365000D01*
X170135750Y-125365000D01*
X169977000Y-125523750D01*
X169723000Y-125523750D01*
X169564250Y-125365000D01*
X169173691Y-125365000D01*
X169000459Y-125436755D01*
X168951890Y-125403569D01*
X168700000Y-125352560D01*
X167600000Y-125352560D01*
X167364683Y-125396838D01*
X167148559Y-125535910D01*
X167003569Y-125748110D01*
X166952560Y-126000000D01*
X166952560Y-127000000D01*
X166996838Y-127235317D01*
X167066805Y-127344049D01*
X166945454Y-127465400D01*
X164597440Y-127465400D01*
X164597440Y-127100000D01*
X164553162Y-126864683D01*
X164522349Y-126816798D01*
X164720123Y-126619024D01*
X164879451Y-126380572D01*
X164896218Y-126296277D01*
X164935400Y-126099300D01*
X164935400Y-123310271D01*
X165950821Y-123310271D01*
X166108058Y-123690815D01*
X166398954Y-123982219D01*
X166779223Y-124140120D01*
X167190971Y-124140479D01*
X167329067Y-124083419D01*
X167348110Y-124096431D01*
X167600000Y-124147440D01*
X168700000Y-124147440D01*
X168935317Y-124103162D01*
X168998568Y-124062461D01*
X169173691Y-124135000D01*
X169564250Y-124135000D01*
X169723000Y-123976250D01*
X169723000Y-123127000D01*
X169977000Y-123127000D01*
X169977000Y-123976250D01*
X170135750Y-124135000D01*
X170526309Y-124135000D01*
X170759698Y-124038327D01*
X170938327Y-123859699D01*
X171035000Y-123626310D01*
X171035000Y-123285750D01*
X170876250Y-123127000D01*
X169977000Y-123127000D01*
X169723000Y-123127000D01*
X169703000Y-123127000D01*
X169703000Y-122873000D01*
X169723000Y-122873000D01*
X169723000Y-122023750D01*
X169977000Y-122023750D01*
X169977000Y-122873000D01*
X170876250Y-122873000D01*
X171035000Y-122714250D01*
X171035000Y-122373690D01*
X170938327Y-122140301D01*
X170759698Y-121961673D01*
X170526309Y-121865000D01*
X170135750Y-121865000D01*
X169977000Y-122023750D01*
X169723000Y-122023750D01*
X169564250Y-121865000D01*
X169173691Y-121865000D01*
X169000459Y-121936755D01*
X168951890Y-121903569D01*
X168700000Y-121852560D01*
X167600000Y-121852560D01*
X167364683Y-121896838D01*
X167148559Y-122035910D01*
X167124979Y-122070421D01*
X166781029Y-122070121D01*
X166400485Y-122227358D01*
X166109081Y-122518254D01*
X165951180Y-122898523D01*
X165950821Y-123310271D01*
X164935400Y-123310271D01*
X164935400Y-120785750D01*
X166965000Y-120785750D01*
X166965000Y-121126310D01*
X167061673Y-121359699D01*
X167240302Y-121538327D01*
X167473691Y-121635000D01*
X167864250Y-121635000D01*
X168023000Y-121476250D01*
X168023000Y-120627000D01*
X167123750Y-120627000D01*
X166965000Y-120785750D01*
X164935400Y-120785750D01*
X164935400Y-119954346D01*
X165354447Y-119535300D01*
X167166675Y-119535300D01*
X167061673Y-119640301D01*
G36*
X162698559Y-112435910D02*
X162553569Y-112648110D01*
X162502560Y-112900000D01*
X162502560Y-114100000D01*
X162546838Y-114335317D01*
X162685910Y-114551441D01*
X162865000Y-114673808D01*
X162865000Y-115328808D01*
X162698559Y-115435910D01*
X162553569Y-115648110D01*
X162502560Y-115900000D01*
X162502560Y-117100000D01*
X162546838Y-117335317D01*
X162685910Y-117551441D01*
X162898110Y-117696431D01*
X163150000Y-117747440D01*
X164050000Y-117747440D01*
X164285317Y-117703162D01*
X164501441Y-117564090D01*
X164646431Y-117351890D01*
X164670102Y-117235000D01*
X167012527Y-117235000D01*
X167003569Y-117248110D01*
X166952560Y-117500000D01*
X166952560Y-118065300D01*
X165050000Y-118065300D01*
X164768728Y-118121249D01*
X164530276Y-118280577D01*
X164423911Y-118386942D01*
X164301890Y-118303569D01*
X164050000Y-118252560D01*
X163150000Y-118252560D01*
X162914683Y-118296838D01*
X162698559Y-118435910D01*
X162553569Y-118648110D01*
X162502560Y-118900000D01*
X162502560Y-120100000D01*
X162546838Y-120335317D01*
X162685910Y-120551441D01*
X162898110Y-120696431D01*
X163150000Y-120747440D01*
X163465400Y-120747440D01*
X163465400Y-125794853D01*
X162980277Y-126279977D01*
X162838351Y-126492385D01*
X162814683Y-126496838D01*
X162598559Y-126635910D01*
X162597440Y-126637548D01*
X162597440Y-126100000D01*
X162553162Y-125864683D01*
X162414090Y-125648559D01*
X162201890Y-125503569D01*
X162163995Y-125495895D01*
X162019724Y-125279977D01*
X161534700Y-124794954D01*
X161534700Y-124147440D01*
X162200000Y-124147440D01*
X162435317Y-124103162D01*
X162498568Y-124062461D01*
X162673691Y-124135000D01*
X163064250Y-124135000D01*
X163223000Y-123976250D01*
X163223000Y-123127000D01*
X163203000Y-123127000D01*
X163203000Y-122873000D01*
X163223000Y-122873000D01*
X163223000Y-122023750D01*
X163064250Y-121865000D01*
X162673691Y-121865000D01*
X162500459Y-121936755D01*
X162451890Y-121903569D01*
X162298347Y-121872476D01*
X162169723Y-121679977D01*
X161931272Y-121520649D01*
X161650000Y-121464700D01*
X161304947Y-121464700D01*
X160994547Y-121154301D01*
X161248172Y-121103851D01*
X161486623Y-120944523D01*
X161670123Y-120761024D01*
X161829451Y-120522572D01*
X161850147Y-120418525D01*
X161885400Y-120241300D01*
X161885400Y-115775700D01*
X161829451Y-115494428D01*
X161798802Y-115448559D01*
X161670123Y-115255976D01*
X161098524Y-114684377D01*
X161209698Y-114638327D01*
X161388327Y-114459699D01*
X161485000Y-114226310D01*
X161485000Y-113785750D01*
X161326250Y-113627000D01*
X160527000Y-113627000D01*
X160527000Y-113647000D01*
X160367200Y-113647000D01*
X160367200Y-113353000D01*
X160527000Y-113353000D01*
X160527000Y-113373000D01*
X161326250Y-113373000D01*
X161485000Y-113214250D01*
X161485000Y-112773690D01*
X161388327Y-112540301D01*
X161273825Y-112425800D01*
X162714270Y-112425800D01*
X162698559Y-112435910D01*
X162698559Y-112435910D01*
G37*
X162698559Y-112435910D02*
X162553569Y-112648110D01*
X162502560Y-112900000D01*
X162502560Y-114100000D01*
X162546838Y-114335317D01*
X162685910Y-114551441D01*
X162865000Y-114673808D01*
X162865000Y-115328808D01*
X162698559Y-115435910D01*
X162553569Y-115648110D01*
X162502560Y-115900000D01*
X162502560Y-117100000D01*
X162546838Y-117335317D01*
X162685910Y-117551441D01*
X162898110Y-117696431D01*
X163150000Y-117747440D01*
X164050000Y-117747440D01*
X164285317Y-117703162D01*
X164501441Y-117564090D01*
X164646431Y-117351890D01*
X164670102Y-117235000D01*
X167012527Y-117235000D01*
X167003569Y-117248110D01*
X166952560Y-117500000D01*
X166952560Y-118065300D01*
X165050000Y-118065300D01*
X164768728Y-118121249D01*
X164530276Y-118280577D01*
X164423911Y-118386942D01*
X164301890Y-118303569D01*
X164050000Y-118252560D01*
X163150000Y-118252560D01*
X162914683Y-118296838D01*
X162698559Y-118435910D01*
X162553569Y-118648110D01*
X162502560Y-118900000D01*
X162502560Y-120100000D01*
X162546838Y-120335317D01*
X162685910Y-120551441D01*
X162898110Y-120696431D01*
X163150000Y-120747440D01*
X163465400Y-120747440D01*
X163465400Y-125794853D01*
X162980277Y-126279977D01*
X162838351Y-126492385D01*
X162814683Y-126496838D01*
X162598559Y-126635910D01*
X162597440Y-126637548D01*
X162597440Y-126100000D01*
X162553162Y-125864683D01*
X162414090Y-125648559D01*
X162201890Y-125503569D01*
X162163995Y-125495895D01*
X162019724Y-125279977D01*
X161534700Y-124794954D01*
X161534700Y-124147440D01*
X162200000Y-124147440D01*
X162435317Y-124103162D01*
X162498568Y-124062461D01*
X162673691Y-124135000D01*
X163064250Y-124135000D01*
X163223000Y-123976250D01*
X163223000Y-123127000D01*
X163203000Y-123127000D01*
X163203000Y-122873000D01*
X163223000Y-122873000D01*
X163223000Y-122023750D01*
X163064250Y-121865000D01*
X162673691Y-121865000D01*
X162500459Y-121936755D01*
X162451890Y-121903569D01*
X162298347Y-121872476D01*
X162169723Y-121679977D01*
X161931272Y-121520649D01*
X161650000Y-121464700D01*
X161304947Y-121464700D01*
X160994547Y-121154301D01*
X161248172Y-121103851D01*
X161486623Y-120944523D01*
X161670123Y-120761024D01*
X161829451Y-120522572D01*
X161850147Y-120418525D01*
X161885400Y-120241300D01*
X161885400Y-115775700D01*
X161829451Y-115494428D01*
X161798802Y-115448559D01*
X161670123Y-115255976D01*
X161098524Y-114684377D01*
X161209698Y-114638327D01*
X161388327Y-114459699D01*
X161485000Y-114226310D01*
X161485000Y-113785750D01*
X161326250Y-113627000D01*
X160527000Y-113627000D01*
X160527000Y-113647000D01*
X160367200Y-113647000D01*
X160367200Y-113353000D01*
X160527000Y-113353000D01*
X160527000Y-113373000D01*
X161326250Y-113373000D01*
X161485000Y-113214250D01*
X161485000Y-112773690D01*
X161388327Y-112540301D01*
X161273825Y-112425800D01*
X162714270Y-112425800D01*
X162698559Y-112435910D01*
M02*
