G04 #@! TF.FileFunction,Copper,L1,Top,Signal*
%FSLAX46Y46*%
G04 Gerber Fmt 4.6, Leading zero omitted, Abs format (unit mm)*
G04 Created by KiCad (PCBNEW 4.0.1-stable) date 03/25/18 14:57:27*
%MOMM*%
G01*
G04 APERTURE LIST*
%ADD10C,0.050000*%
%ADD11O,1.800000X1.524000*%
%ADD12C,0.800000*%
%ADD13C,0.200000*%
%ADD14C,0.254000*%
G04 APERTURE END LIST*
D10*
D11*
X190000000Y-130000000D03*
X190000000Y-128000000D03*
X190000000Y-126000000D03*
X190000000Y-124000000D03*
D12*
X177650000Y-139632600D03*
X163750000Y-114500000D03*
X151750000Y-114000000D03*
X163500000Y-121750000D03*
X172250000Y-128250000D03*
X174000000Y-119000000D03*
X181000000Y-113000000D03*
X173000000Y-123000000D03*
X184000000Y-129750000D03*
X186250000Y-136000000D03*
X162500000Y-137250000D03*
X172750000Y-135750000D03*
X152250000Y-139250000D03*
X152526000Y-123518800D03*
X179349900Y-117640400D03*
X152693000Y-126781100D03*
X176008300Y-125766700D03*
X152296200Y-125030600D03*
X177783800Y-125405400D03*
X152671600Y-128553700D03*
X180781600Y-125855200D03*
X176883800Y-129227400D03*
X156712700Y-128069500D03*
D13*
X177650000Y-138350000D02*
X177650000Y-139632600D01*
X190000000Y-126000000D02*
X177650000Y-138350000D01*
X173000000Y-123000000D02*
X164750000Y-123000000D01*
X164750000Y-123000000D02*
X163500000Y-121750000D01*
X172250000Y-128250000D02*
X182750000Y-128250000D01*
X174000000Y-119000000D02*
X174000000Y-122000000D01*
X174000000Y-122000000D02*
X173000000Y-123000000D01*
X184000000Y-129500000D02*
X184000000Y-129750000D01*
X182750000Y-128250000D02*
X184000000Y-129500000D01*
X162500000Y-137250000D02*
X154250000Y-137250000D01*
X164000000Y-135750000D02*
X162500000Y-137250000D01*
X172750000Y-135750000D02*
X164000000Y-135750000D01*
X154250000Y-137250000D02*
X152250000Y-139250000D01*
X158404400Y-117640400D02*
X179349900Y-117640400D01*
X152526000Y-123518800D02*
X158404400Y-117640400D01*
X174993900Y-126781100D02*
X152693000Y-126781100D01*
X176008300Y-125766700D02*
X174993900Y-126781100D01*
X177409000Y-125030600D02*
X152296200Y-125030600D01*
X177783800Y-125405400D02*
X177409000Y-125030600D01*
X153914800Y-127310500D02*
X152671600Y-128553700D01*
X179326300Y-127310500D02*
X153914800Y-127310500D01*
X180781600Y-125855200D02*
X179326300Y-127310500D01*
X157870600Y-129227400D02*
X176883800Y-129227400D01*
X156712700Y-128069500D02*
X157870600Y-129227400D01*
D14*
G36*
X192105655Y-110744926D02*
X192195225Y-110804774D01*
X192255074Y-110894345D01*
X192290000Y-111069930D01*
X192290000Y-143930070D01*
X192255074Y-144105655D01*
X192195225Y-144195226D01*
X192105655Y-144255074D01*
X191930070Y-144290000D01*
X144069930Y-144290000D01*
X143894345Y-144255074D01*
X143804774Y-144195225D01*
X143744926Y-144105655D01*
X143710000Y-143930070D01*
X143710000Y-142422815D01*
X143864630Y-142422815D01*
X144188980Y-143207800D01*
X144789041Y-143808909D01*
X145573459Y-144134628D01*
X146422815Y-144135370D01*
X147207800Y-143811020D01*
X147808909Y-143210959D01*
X148134628Y-142426541D01*
X148134631Y-142422815D01*
X187864630Y-142422815D01*
X188188980Y-143207800D01*
X188789041Y-143808909D01*
X189573459Y-144134628D01*
X190422815Y-144135370D01*
X191207800Y-143811020D01*
X191808909Y-143210959D01*
X192134628Y-142426541D01*
X192135370Y-141577185D01*
X191811020Y-140792200D01*
X191210959Y-140191091D01*
X190426541Y-139865372D01*
X189577185Y-139864630D01*
X188792200Y-140188980D01*
X188191091Y-140789041D01*
X187865372Y-141573459D01*
X187864630Y-142422815D01*
X148134631Y-142422815D01*
X148135370Y-141577185D01*
X147811020Y-140792200D01*
X147210959Y-140191091D01*
X146426541Y-139865372D01*
X145577185Y-139864630D01*
X144792200Y-140188980D01*
X144191091Y-140789041D01*
X143865372Y-141573459D01*
X143864630Y-142422815D01*
X143710000Y-142422815D01*
X143710000Y-139837571D01*
X176614821Y-139837571D01*
X176772058Y-140218115D01*
X177062954Y-140509519D01*
X177443223Y-140667420D01*
X177854971Y-140667779D01*
X178235515Y-140510542D01*
X178526919Y-140219646D01*
X178684820Y-139839377D01*
X178685179Y-139427629D01*
X178527942Y-139047085D01*
X178385000Y-138903893D01*
X178385000Y-138654446D01*
X188535224Y-128504223D01*
X188541268Y-128534609D01*
X188844100Y-128987828D01*
X188862317Y-129000000D01*
X188844100Y-129012172D01*
X188541268Y-129465391D01*
X188434928Y-130000000D01*
X188541268Y-130534609D01*
X188844100Y-130987828D01*
X189297319Y-131290660D01*
X189831928Y-131397000D01*
X190168072Y-131397000D01*
X190702681Y-131290660D01*
X191155900Y-130987828D01*
X191458732Y-130534609D01*
X191565072Y-130000000D01*
X191458732Y-129465391D01*
X191155900Y-129012172D01*
X191137683Y-129000000D01*
X191155900Y-128987828D01*
X191458732Y-128534609D01*
X191565072Y-128000000D01*
X191458732Y-127465391D01*
X191155900Y-127012172D01*
X191137683Y-127000000D01*
X191155900Y-126987828D01*
X191458732Y-126534609D01*
X191565072Y-126000000D01*
X191458732Y-125465391D01*
X191155900Y-125012172D01*
X191101922Y-124976105D01*
X191262135Y-124830328D01*
X191492220Y-124343070D01*
X191369720Y-124127000D01*
X190127000Y-124127000D01*
X190127000Y-124147000D01*
X189873000Y-124147000D01*
X189873000Y-124127000D01*
X188630280Y-124127000D01*
X188507780Y-124343070D01*
X188737865Y-124830328D01*
X188898078Y-124976105D01*
X188844100Y-125012172D01*
X188541268Y-125465391D01*
X188434928Y-126000000D01*
X188522135Y-126438418D01*
X177130277Y-137830277D01*
X176970949Y-138068728D01*
X176915000Y-138350000D01*
X176915000Y-138903882D01*
X176773081Y-139045554D01*
X176615180Y-139425823D01*
X176614821Y-139837571D01*
X143710000Y-139837571D01*
X143710000Y-119000000D01*
X145290000Y-119000000D01*
X145290000Y-136000000D01*
X145303642Y-136068584D01*
X145303642Y-136138513D01*
X145379762Y-136521196D01*
X145399395Y-136568593D01*
X145485776Y-136777138D01*
X145702549Y-137101561D01*
X145702550Y-137101562D01*
X145898438Y-137297451D01*
X146222862Y-137514223D01*
X146328877Y-137558136D01*
X146478804Y-137620238D01*
X146861486Y-137696358D01*
X147138513Y-137696358D01*
X147521196Y-137620238D01*
X147596160Y-137589187D01*
X147777138Y-137514224D01*
X148101561Y-137297451D01*
X148101562Y-137297450D01*
X148297451Y-137101562D01*
X148514223Y-136777138D01*
X148564419Y-136655954D01*
X148620238Y-136521196D01*
X148696358Y-136138514D01*
X148696358Y-136068584D01*
X148710000Y-136000000D01*
X148710000Y-125235571D01*
X151261021Y-125235571D01*
X151418258Y-125616115D01*
X151709154Y-125907519D01*
X151987384Y-126023050D01*
X151816081Y-126194054D01*
X151658180Y-126574323D01*
X151657821Y-126986071D01*
X151815058Y-127366615D01*
X152105954Y-127658019D01*
X152117457Y-127662795D01*
X152086085Y-127675758D01*
X151794681Y-127966654D01*
X151636780Y-128346923D01*
X151636421Y-128758671D01*
X151793658Y-129139215D01*
X152084554Y-129430619D01*
X152464823Y-129588520D01*
X152876571Y-129588879D01*
X153257115Y-129431642D01*
X153548519Y-129140746D01*
X153706420Y-128760477D01*
X153706596Y-128558150D01*
X154219247Y-128045500D01*
X155677721Y-128045500D01*
X155677521Y-128274471D01*
X155834758Y-128655015D01*
X156125654Y-128946419D01*
X156505923Y-129104320D01*
X156708250Y-129104496D01*
X157350877Y-129747124D01*
X157589328Y-129906451D01*
X157870600Y-129962400D01*
X176155082Y-129962400D01*
X176296754Y-130104319D01*
X176677023Y-130262220D01*
X177088771Y-130262579D01*
X177469315Y-130105342D01*
X177760719Y-129814446D01*
X177918620Y-129434177D01*
X177918979Y-129022429D01*
X177761742Y-128641885D01*
X177470846Y-128350481D01*
X177090577Y-128192580D01*
X176678829Y-128192221D01*
X176298285Y-128349458D01*
X176155093Y-128492400D01*
X158175047Y-128492400D01*
X157747704Y-128065058D01*
X157747721Y-128045500D01*
X179326300Y-128045500D01*
X179607572Y-127989551D01*
X179846023Y-127830223D01*
X180786042Y-126890204D01*
X180986571Y-126890379D01*
X181367115Y-126733142D01*
X181658519Y-126442246D01*
X181816420Y-126061977D01*
X181816779Y-125650229D01*
X181659542Y-125269685D01*
X181368646Y-124978281D01*
X180988377Y-124820380D01*
X180576629Y-124820021D01*
X180196085Y-124977258D01*
X179904681Y-125268154D01*
X179746780Y-125648423D01*
X179746604Y-125850750D01*
X179021854Y-126575500D01*
X176663078Y-126575500D01*
X176885219Y-126353746D01*
X176997683Y-126082901D01*
X177196754Y-126282319D01*
X177577023Y-126440220D01*
X177988771Y-126440579D01*
X178369315Y-126283342D01*
X178660719Y-125992446D01*
X178818620Y-125612177D01*
X178818979Y-125200429D01*
X178661742Y-124819885D01*
X178370846Y-124528481D01*
X177990577Y-124370580D01*
X177718399Y-124370343D01*
X177690272Y-124351549D01*
X177409000Y-124295600D01*
X153212834Y-124295600D01*
X153402919Y-124105846D01*
X153560820Y-123725577D01*
X153560879Y-123656930D01*
X188507780Y-123656930D01*
X188630280Y-123873000D01*
X189873000Y-123873000D01*
X189873000Y-122761251D01*
X190127000Y-122761251D01*
X190127000Y-123873000D01*
X191369720Y-123873000D01*
X191492220Y-123656930D01*
X191262135Y-123169672D01*
X190858812Y-122802689D01*
X190345752Y-122617986D01*
X190127000Y-122761251D01*
X189873000Y-122761251D01*
X189654248Y-122617986D01*
X189141188Y-122802689D01*
X188737865Y-123169672D01*
X188507780Y-123656930D01*
X153560879Y-123656930D01*
X153560996Y-123523250D01*
X158708846Y-118375400D01*
X178621182Y-118375400D01*
X178762854Y-118517319D01*
X179143123Y-118675220D01*
X179554871Y-118675579D01*
X179935415Y-118518342D01*
X180226819Y-118227446D01*
X180384720Y-117847177D01*
X180385079Y-117435429D01*
X180227842Y-117054885D01*
X179936946Y-116763481D01*
X179556677Y-116605580D01*
X179144929Y-116605221D01*
X178764385Y-116762458D01*
X178621193Y-116905400D01*
X158404400Y-116905400D01*
X158123128Y-116961349D01*
X157884677Y-117120677D01*
X152521558Y-122483796D01*
X152321029Y-122483621D01*
X151940485Y-122640858D01*
X151649081Y-122931754D01*
X151491180Y-123312023D01*
X151490821Y-123723771D01*
X151648058Y-124104315D01*
X151703488Y-124159842D01*
X151419281Y-124443554D01*
X151261380Y-124823823D01*
X151261021Y-125235571D01*
X148710000Y-125235571D01*
X148710000Y-119000000D01*
X148696358Y-118931416D01*
X148696358Y-118861486D01*
X148620238Y-118478804D01*
X148542032Y-118290000D01*
X148514223Y-118222862D01*
X148297451Y-117898438D01*
X148101562Y-117702550D01*
X148101561Y-117702549D01*
X147777138Y-117485776D01*
X147593368Y-117409657D01*
X147521196Y-117379762D01*
X147138513Y-117303642D01*
X147000000Y-117303642D01*
X146478804Y-117379762D01*
X146406632Y-117409657D01*
X146222862Y-117485777D01*
X145898438Y-117702549D01*
X145755617Y-117845371D01*
X145702549Y-117898439D01*
X145485776Y-118222862D01*
X145414700Y-118394456D01*
X145379762Y-118478804D01*
X145303642Y-118861487D01*
X145303642Y-118931416D01*
X145290000Y-119000000D01*
X143710000Y-119000000D01*
X143710000Y-113422815D01*
X143864630Y-113422815D01*
X144188980Y-114207800D01*
X144789041Y-114808909D01*
X145573459Y-115134628D01*
X146422815Y-115135370D01*
X147207800Y-114811020D01*
X147808909Y-114210959D01*
X148134628Y-113426541D01*
X148134631Y-113422815D01*
X187864630Y-113422815D01*
X188188980Y-114207800D01*
X188789041Y-114808909D01*
X189573459Y-115134628D01*
X190422815Y-115135370D01*
X191207800Y-114811020D01*
X191808909Y-114210959D01*
X192134628Y-113426541D01*
X192135370Y-112577185D01*
X191811020Y-111792200D01*
X191210959Y-111191091D01*
X190426541Y-110865372D01*
X189577185Y-110864630D01*
X188792200Y-111188980D01*
X188191091Y-111789041D01*
X187865372Y-112573459D01*
X187864630Y-113422815D01*
X148134631Y-113422815D01*
X148135370Y-112577185D01*
X147811020Y-111792200D01*
X147210959Y-111191091D01*
X146426541Y-110865372D01*
X145577185Y-110864630D01*
X144792200Y-111188980D01*
X144191091Y-111789041D01*
X143865372Y-112573459D01*
X143864630Y-113422815D01*
X143710000Y-113422815D01*
X143710000Y-111069930D01*
X143744926Y-110894345D01*
X143804774Y-110804775D01*
X143894345Y-110744926D01*
X144069930Y-110710000D01*
X191930070Y-110710000D01*
X192105655Y-110744926D01*
X192105655Y-110744926D01*
G37*
X192105655Y-110744926D02*
X192195225Y-110804774D01*
X192255074Y-110894345D01*
X192290000Y-111069930D01*
X192290000Y-143930070D01*
X192255074Y-144105655D01*
X192195225Y-144195226D01*
X192105655Y-144255074D01*
X191930070Y-144290000D01*
X144069930Y-144290000D01*
X143894345Y-144255074D01*
X143804774Y-144195225D01*
X143744926Y-144105655D01*
X143710000Y-143930070D01*
X143710000Y-142422815D01*
X143864630Y-142422815D01*
X144188980Y-143207800D01*
X144789041Y-143808909D01*
X145573459Y-144134628D01*
X146422815Y-144135370D01*
X147207800Y-143811020D01*
X147808909Y-143210959D01*
X148134628Y-142426541D01*
X148134631Y-142422815D01*
X187864630Y-142422815D01*
X188188980Y-143207800D01*
X188789041Y-143808909D01*
X189573459Y-144134628D01*
X190422815Y-144135370D01*
X191207800Y-143811020D01*
X191808909Y-143210959D01*
X192134628Y-142426541D01*
X192135370Y-141577185D01*
X191811020Y-140792200D01*
X191210959Y-140191091D01*
X190426541Y-139865372D01*
X189577185Y-139864630D01*
X188792200Y-140188980D01*
X188191091Y-140789041D01*
X187865372Y-141573459D01*
X187864630Y-142422815D01*
X148134631Y-142422815D01*
X148135370Y-141577185D01*
X147811020Y-140792200D01*
X147210959Y-140191091D01*
X146426541Y-139865372D01*
X145577185Y-139864630D01*
X144792200Y-140188980D01*
X144191091Y-140789041D01*
X143865372Y-141573459D01*
X143864630Y-142422815D01*
X143710000Y-142422815D01*
X143710000Y-139837571D01*
X176614821Y-139837571D01*
X176772058Y-140218115D01*
X177062954Y-140509519D01*
X177443223Y-140667420D01*
X177854971Y-140667779D01*
X178235515Y-140510542D01*
X178526919Y-140219646D01*
X178684820Y-139839377D01*
X178685179Y-139427629D01*
X178527942Y-139047085D01*
X178385000Y-138903893D01*
X178385000Y-138654446D01*
X188535224Y-128504223D01*
X188541268Y-128534609D01*
X188844100Y-128987828D01*
X188862317Y-129000000D01*
X188844100Y-129012172D01*
X188541268Y-129465391D01*
X188434928Y-130000000D01*
X188541268Y-130534609D01*
X188844100Y-130987828D01*
X189297319Y-131290660D01*
X189831928Y-131397000D01*
X190168072Y-131397000D01*
X190702681Y-131290660D01*
X191155900Y-130987828D01*
X191458732Y-130534609D01*
X191565072Y-130000000D01*
X191458732Y-129465391D01*
X191155900Y-129012172D01*
X191137683Y-129000000D01*
X191155900Y-128987828D01*
X191458732Y-128534609D01*
X191565072Y-128000000D01*
X191458732Y-127465391D01*
X191155900Y-127012172D01*
X191137683Y-127000000D01*
X191155900Y-126987828D01*
X191458732Y-126534609D01*
X191565072Y-126000000D01*
X191458732Y-125465391D01*
X191155900Y-125012172D01*
X191101922Y-124976105D01*
X191262135Y-124830328D01*
X191492220Y-124343070D01*
X191369720Y-124127000D01*
X190127000Y-124127000D01*
X190127000Y-124147000D01*
X189873000Y-124147000D01*
X189873000Y-124127000D01*
X188630280Y-124127000D01*
X188507780Y-124343070D01*
X188737865Y-124830328D01*
X188898078Y-124976105D01*
X188844100Y-125012172D01*
X188541268Y-125465391D01*
X188434928Y-126000000D01*
X188522135Y-126438418D01*
X177130277Y-137830277D01*
X176970949Y-138068728D01*
X176915000Y-138350000D01*
X176915000Y-138903882D01*
X176773081Y-139045554D01*
X176615180Y-139425823D01*
X176614821Y-139837571D01*
X143710000Y-139837571D01*
X143710000Y-119000000D01*
X145290000Y-119000000D01*
X145290000Y-136000000D01*
X145303642Y-136068584D01*
X145303642Y-136138513D01*
X145379762Y-136521196D01*
X145399395Y-136568593D01*
X145485776Y-136777138D01*
X145702549Y-137101561D01*
X145702550Y-137101562D01*
X145898438Y-137297451D01*
X146222862Y-137514223D01*
X146328877Y-137558136D01*
X146478804Y-137620238D01*
X146861486Y-137696358D01*
X147138513Y-137696358D01*
X147521196Y-137620238D01*
X147596160Y-137589187D01*
X147777138Y-137514224D01*
X148101561Y-137297451D01*
X148101562Y-137297450D01*
X148297451Y-137101562D01*
X148514223Y-136777138D01*
X148564419Y-136655954D01*
X148620238Y-136521196D01*
X148696358Y-136138514D01*
X148696358Y-136068584D01*
X148710000Y-136000000D01*
X148710000Y-125235571D01*
X151261021Y-125235571D01*
X151418258Y-125616115D01*
X151709154Y-125907519D01*
X151987384Y-126023050D01*
X151816081Y-126194054D01*
X151658180Y-126574323D01*
X151657821Y-126986071D01*
X151815058Y-127366615D01*
X152105954Y-127658019D01*
X152117457Y-127662795D01*
X152086085Y-127675758D01*
X151794681Y-127966654D01*
X151636780Y-128346923D01*
X151636421Y-128758671D01*
X151793658Y-129139215D01*
X152084554Y-129430619D01*
X152464823Y-129588520D01*
X152876571Y-129588879D01*
X153257115Y-129431642D01*
X153548519Y-129140746D01*
X153706420Y-128760477D01*
X153706596Y-128558150D01*
X154219247Y-128045500D01*
X155677721Y-128045500D01*
X155677521Y-128274471D01*
X155834758Y-128655015D01*
X156125654Y-128946419D01*
X156505923Y-129104320D01*
X156708250Y-129104496D01*
X157350877Y-129747124D01*
X157589328Y-129906451D01*
X157870600Y-129962400D01*
X176155082Y-129962400D01*
X176296754Y-130104319D01*
X176677023Y-130262220D01*
X177088771Y-130262579D01*
X177469315Y-130105342D01*
X177760719Y-129814446D01*
X177918620Y-129434177D01*
X177918979Y-129022429D01*
X177761742Y-128641885D01*
X177470846Y-128350481D01*
X177090577Y-128192580D01*
X176678829Y-128192221D01*
X176298285Y-128349458D01*
X176155093Y-128492400D01*
X158175047Y-128492400D01*
X157747704Y-128065058D01*
X157747721Y-128045500D01*
X179326300Y-128045500D01*
X179607572Y-127989551D01*
X179846023Y-127830223D01*
X180786042Y-126890204D01*
X180986571Y-126890379D01*
X181367115Y-126733142D01*
X181658519Y-126442246D01*
X181816420Y-126061977D01*
X181816779Y-125650229D01*
X181659542Y-125269685D01*
X181368646Y-124978281D01*
X180988377Y-124820380D01*
X180576629Y-124820021D01*
X180196085Y-124977258D01*
X179904681Y-125268154D01*
X179746780Y-125648423D01*
X179746604Y-125850750D01*
X179021854Y-126575500D01*
X176663078Y-126575500D01*
X176885219Y-126353746D01*
X176997683Y-126082901D01*
X177196754Y-126282319D01*
X177577023Y-126440220D01*
X177988771Y-126440579D01*
X178369315Y-126283342D01*
X178660719Y-125992446D01*
X178818620Y-125612177D01*
X178818979Y-125200429D01*
X178661742Y-124819885D01*
X178370846Y-124528481D01*
X177990577Y-124370580D01*
X177718399Y-124370343D01*
X177690272Y-124351549D01*
X177409000Y-124295600D01*
X153212834Y-124295600D01*
X153402919Y-124105846D01*
X153560820Y-123725577D01*
X153560879Y-123656930D01*
X188507780Y-123656930D01*
X188630280Y-123873000D01*
X189873000Y-123873000D01*
X189873000Y-122761251D01*
X190127000Y-122761251D01*
X190127000Y-123873000D01*
X191369720Y-123873000D01*
X191492220Y-123656930D01*
X191262135Y-123169672D01*
X190858812Y-122802689D01*
X190345752Y-122617986D01*
X190127000Y-122761251D01*
X189873000Y-122761251D01*
X189654248Y-122617986D01*
X189141188Y-122802689D01*
X188737865Y-123169672D01*
X188507780Y-123656930D01*
X153560879Y-123656930D01*
X153560996Y-123523250D01*
X158708846Y-118375400D01*
X178621182Y-118375400D01*
X178762854Y-118517319D01*
X179143123Y-118675220D01*
X179554871Y-118675579D01*
X179935415Y-118518342D01*
X180226819Y-118227446D01*
X180384720Y-117847177D01*
X180385079Y-117435429D01*
X180227842Y-117054885D01*
X179936946Y-116763481D01*
X179556677Y-116605580D01*
X179144929Y-116605221D01*
X178764385Y-116762458D01*
X178621193Y-116905400D01*
X158404400Y-116905400D01*
X158123128Y-116961349D01*
X157884677Y-117120677D01*
X152521558Y-122483796D01*
X152321029Y-122483621D01*
X151940485Y-122640858D01*
X151649081Y-122931754D01*
X151491180Y-123312023D01*
X151490821Y-123723771D01*
X151648058Y-124104315D01*
X151703488Y-124159842D01*
X151419281Y-124443554D01*
X151261380Y-124823823D01*
X151261021Y-125235571D01*
X148710000Y-125235571D01*
X148710000Y-119000000D01*
X148696358Y-118931416D01*
X148696358Y-118861486D01*
X148620238Y-118478804D01*
X148542032Y-118290000D01*
X148514223Y-118222862D01*
X148297451Y-117898438D01*
X148101562Y-117702550D01*
X148101561Y-117702549D01*
X147777138Y-117485776D01*
X147593368Y-117409657D01*
X147521196Y-117379762D01*
X147138513Y-117303642D01*
X147000000Y-117303642D01*
X146478804Y-117379762D01*
X146406632Y-117409657D01*
X146222862Y-117485777D01*
X145898438Y-117702549D01*
X145755617Y-117845371D01*
X145702549Y-117898439D01*
X145485776Y-118222862D01*
X145414700Y-118394456D01*
X145379762Y-118478804D01*
X145303642Y-118861487D01*
X145303642Y-118931416D01*
X145290000Y-119000000D01*
X143710000Y-119000000D01*
X143710000Y-113422815D01*
X143864630Y-113422815D01*
X144188980Y-114207800D01*
X144789041Y-114808909D01*
X145573459Y-115134628D01*
X146422815Y-115135370D01*
X147207800Y-114811020D01*
X147808909Y-114210959D01*
X148134628Y-113426541D01*
X148134631Y-113422815D01*
X187864630Y-113422815D01*
X188188980Y-114207800D01*
X188789041Y-114808909D01*
X189573459Y-115134628D01*
X190422815Y-115135370D01*
X191207800Y-114811020D01*
X191808909Y-114210959D01*
X192134628Y-113426541D01*
X192135370Y-112577185D01*
X191811020Y-111792200D01*
X191210959Y-111191091D01*
X190426541Y-110865372D01*
X189577185Y-110864630D01*
X188792200Y-111188980D01*
X188191091Y-111789041D01*
X187865372Y-112573459D01*
X187864630Y-113422815D01*
X148134631Y-113422815D01*
X148135370Y-112577185D01*
X147811020Y-111792200D01*
X147210959Y-111191091D01*
X146426541Y-110865372D01*
X145577185Y-110864630D01*
X144792200Y-111188980D01*
X144191091Y-111789041D01*
X143865372Y-112573459D01*
X143864630Y-113422815D01*
X143710000Y-113422815D01*
X143710000Y-111069930D01*
X143744926Y-110894345D01*
X143804774Y-110804775D01*
X143894345Y-110744926D01*
X144069930Y-110710000D01*
X191930070Y-110710000D01*
X192105655Y-110744926D01*
M02*
