G04 #@! TF.FileFunction,Copper,L2,Bot,Signal*
%FSLAX46Y46*%
G04 Gerber Fmt 4.6, Leading zero omitted, Abs format (unit mm)*
G04 Created by KiCad (PCBNEW 4.0.1-stable) date 03/25/18 14:57:27*
%MOMM*%
G01*
G04 APERTURE LIST*
%ADD10C,0.050000*%
%ADD11R,1.100000X1.000000*%
%ADD12O,1.800000X1.524000*%
%ADD13R,1.597660X2.199640*%
%ADD14R,0.900000X0.800000*%
%ADD15R,0.450000X1.500000*%
%ADD16R,2.300000X2.650000*%
%ADD17R,1.400000X0.300000*%
%ADD18R,0.900000X1.200000*%
%ADD19C,0.800000*%
%ADD20C,0.200000*%
%ADD21C,0.254000*%
G04 APERTURE END LIST*
D10*
D11*
X180650000Y-132500000D03*
X182350000Y-132500000D03*
X167850000Y-120500000D03*
X166150000Y-120500000D03*
X166150000Y-118000000D03*
X167850000Y-118000000D03*
X166150000Y-133500000D03*
X167850000Y-133500000D03*
X166150000Y-136000000D03*
X167850000Y-136000000D03*
X166150000Y-138500000D03*
X167850000Y-138500000D03*
X166150000Y-141000000D03*
X167850000Y-141000000D03*
X158650000Y-133500000D03*
X160350000Y-133500000D03*
X158650000Y-136000000D03*
X160350000Y-136000000D03*
X158650000Y-123000000D03*
X160350000Y-123000000D03*
X158650000Y-138500000D03*
X160350000Y-138500000D03*
X166150000Y-123000000D03*
X167850000Y-123000000D03*
X158650000Y-141000000D03*
X160350000Y-141000000D03*
D12*
X190000000Y-130000000D03*
X190000000Y-128000000D03*
X190000000Y-126000000D03*
X190000000Y-124000000D03*
D13*
X166100460Y-113500000D03*
X168899540Y-113500000D03*
D14*
X158500000Y-128500000D03*
X158500000Y-126500000D03*
X160500000Y-127500000D03*
D11*
X177150000Y-121500000D03*
X178850000Y-121500000D03*
X179650000Y-116000000D03*
X181350000Y-116000000D03*
X166150000Y-129000000D03*
X167850000Y-129000000D03*
X166150000Y-126500000D03*
X167850000Y-126500000D03*
X177650000Y-136000000D03*
X179350000Y-136000000D03*
X179150000Y-136000000D03*
X180850000Y-136000000D03*
X177650000Y-138500000D03*
X179350000Y-138500000D03*
X179150000Y-138500000D03*
X180850000Y-138500000D03*
X177650000Y-141000000D03*
X179350000Y-141000000D03*
X179150000Y-141000000D03*
X180850000Y-141000000D03*
X178150000Y-116000000D03*
X179850000Y-116000000D03*
D15*
X177725000Y-124050000D03*
X178375000Y-124050000D03*
X179025000Y-124050000D03*
X179675000Y-124050000D03*
X180325000Y-124050000D03*
X180975000Y-124050000D03*
X181625000Y-124050000D03*
X182275000Y-124050000D03*
X182275000Y-129950000D03*
X181625000Y-129950000D03*
X180975000Y-129950000D03*
X180325000Y-129950000D03*
X179675000Y-129950000D03*
X179025000Y-129950000D03*
X178375000Y-129950000D03*
X177725000Y-129950000D03*
D16*
X153000000Y-119500000D03*
D17*
X154000000Y-133000000D03*
X154000000Y-132500000D03*
X154000000Y-132000000D03*
X154000000Y-131500000D03*
X154000000Y-131000000D03*
X154000000Y-130500000D03*
X154000000Y-130000000D03*
X154000000Y-129500000D03*
X154000000Y-129000000D03*
X154000000Y-128500000D03*
X154000000Y-128000000D03*
X154000000Y-127500000D03*
X154000000Y-127000000D03*
X154000000Y-126500000D03*
X154000000Y-126000000D03*
X154000000Y-125500000D03*
X154000000Y-125000000D03*
X154000000Y-124500000D03*
X154000000Y-124000000D03*
X154000000Y-123500000D03*
X154000000Y-123000000D03*
X154000000Y-122500000D03*
X154000000Y-122000000D03*
X154000000Y-121500000D03*
D16*
X153000000Y-135000000D03*
D18*
X158400000Y-113500000D03*
X161600000Y-113500000D03*
X161600000Y-116500000D03*
X158400000Y-116500000D03*
X158400000Y-119500000D03*
X161600000Y-119500000D03*
D11*
X182150000Y-121500000D03*
X183850000Y-121500000D03*
X182150000Y-119000000D03*
X183850000Y-119000000D03*
D19*
X177650000Y-139632600D03*
X163750000Y-114500000D03*
X151750000Y-114000000D03*
X163500000Y-121750000D03*
X172250000Y-128250000D03*
X174000000Y-119000000D03*
X181000000Y-113000000D03*
X173000000Y-123000000D03*
X184000000Y-129750000D03*
X186250000Y-136000000D03*
X162500000Y-137250000D03*
X172750000Y-135750000D03*
X152250000Y-139250000D03*
X152526000Y-123518800D03*
X179349900Y-117640400D03*
X152693000Y-126781100D03*
X176008300Y-125766700D03*
X152296200Y-125030600D03*
X177783800Y-125405400D03*
X152671600Y-128553700D03*
X180781600Y-125855200D03*
X176883800Y-129227400D03*
X156712700Y-128069500D03*
D20*
X180650000Y-132500000D02*
X180650000Y-131699700D01*
X178750600Y-135199700D02*
X180650000Y-133300300D01*
X177650000Y-135199700D02*
X178750600Y-135199700D01*
X180650000Y-132500000D02*
X180650000Y-133300300D01*
X177650000Y-135599800D02*
X177650000Y-135199700D01*
X177650000Y-135599800D02*
X177650000Y-136000000D01*
X180325000Y-131374700D02*
X180325000Y-129950000D01*
X180650000Y-131699700D02*
X180325000Y-131374700D01*
X180325000Y-129950000D02*
X180325000Y-128899700D01*
X166150000Y-133500000D02*
X166150000Y-132699700D01*
X182150000Y-121500000D02*
X182150000Y-120699700D01*
X182150000Y-120699700D02*
X184700300Y-120699700D01*
X184524400Y-118199700D02*
X182150000Y-118199700D01*
X184700300Y-118375600D02*
X184524400Y-118199700D01*
X184700300Y-120699700D02*
X184700300Y-118375600D01*
X155000300Y-128500000D02*
X155000300Y-129000000D01*
X154000000Y-128500000D02*
X155000300Y-128500000D01*
X154000000Y-129000000D02*
X154900200Y-129000000D01*
X154900200Y-129000000D02*
X155000300Y-129000000D01*
X165623800Y-132699700D02*
X166150000Y-132699700D01*
X163452700Y-130528600D02*
X165623800Y-132699700D01*
X157535300Y-130528600D02*
X163452700Y-130528600D01*
X156577100Y-129570400D02*
X157535300Y-130528600D01*
X156091100Y-129570400D02*
X156577100Y-129570400D01*
X155520700Y-129000000D02*
X156091100Y-129570400D01*
X155000300Y-129000000D02*
X155520700Y-129000000D01*
X177150000Y-121500000D02*
X177150000Y-120699700D01*
X178150000Y-116000000D02*
X178150000Y-116800300D01*
X184700300Y-120700300D02*
X190000000Y-126000000D01*
X184700300Y-120699700D02*
X184700300Y-120700300D01*
X190557400Y-131699700D02*
X180650000Y-131699700D01*
X191661000Y-130596100D02*
X190557400Y-131699700D01*
X191661000Y-127661000D02*
X191661000Y-130596100D01*
X190000000Y-126000000D02*
X191661000Y-127661000D01*
X172416400Y-132699700D02*
X166150000Y-132699700D01*
X176616700Y-128499400D02*
X172416400Y-132699700D01*
X179924700Y-128499400D02*
X176616700Y-128499400D01*
X180325000Y-128899700D02*
X179924700Y-128499400D01*
X177650000Y-141000000D02*
X177650000Y-139632600D01*
X177650000Y-139632600D02*
X177650000Y-138500000D01*
X182150000Y-119000000D02*
X182150000Y-118499800D01*
X182150000Y-118499800D02*
X182150000Y-118199700D01*
X167850000Y-120500000D02*
X168700300Y-120500000D01*
X177150000Y-120500000D02*
X177150000Y-120699700D01*
X179150100Y-118499900D02*
X177150000Y-120500000D01*
X178150000Y-117499900D02*
X179150100Y-118499900D01*
X178150000Y-116800300D02*
X178150000Y-117499900D01*
X179349900Y-118499800D02*
X182150000Y-118499800D01*
X179349700Y-118500000D02*
X179349900Y-118499800D01*
X179150100Y-118500000D02*
X179349700Y-118500000D01*
X179150100Y-118499900D02*
X179150100Y-118500000D01*
X168899500Y-113500000D02*
X168899500Y-114900100D01*
X169145800Y-115146400D02*
X169145800Y-120500000D01*
X168899500Y-114900100D02*
X169145800Y-115146400D01*
X177150000Y-120500000D02*
X169145800Y-120500000D01*
X169145800Y-120500000D02*
X168700300Y-120500000D01*
X164000000Y-112073300D02*
X164000000Y-114250000D01*
X164000000Y-114250000D02*
X163750000Y-114500000D01*
X158400000Y-113500000D02*
X152250000Y-113500000D01*
X152250000Y-113500000D02*
X151750000Y-114000000D01*
X173000000Y-127500000D02*
X172250000Y-128250000D01*
X176000000Y-113000000D02*
X174000000Y-115000000D01*
X174000000Y-115000000D02*
X174000000Y-119000000D01*
X181350000Y-116000000D02*
X181350000Y-113350000D01*
X181350000Y-113350000D02*
X181000000Y-113000000D01*
X181000000Y-113000000D02*
X176000000Y-113000000D01*
X173000000Y-123000000D02*
X173000000Y-127500000D01*
X182350000Y-132500000D02*
X182350000Y-135600000D01*
X182750000Y-136000000D02*
X186250000Y-136000000D01*
X182350000Y-135600000D02*
X182750000Y-136000000D01*
X173750000Y-142252900D02*
X173750000Y-136750000D01*
X173750000Y-136750000D02*
X172750000Y-135750000D01*
X160350000Y-136000000D02*
X160350000Y-133500000D01*
X158400000Y-113500000D02*
X159150300Y-113500000D01*
X160350000Y-141000000D02*
X160350000Y-138500000D01*
X160350000Y-138500000D02*
X160350000Y-136000000D01*
X154000000Y-129500000D02*
X155000300Y-129500000D01*
X167850000Y-136000000D02*
X167850000Y-134301900D01*
X167850000Y-134301900D02*
X167850000Y-133500000D01*
X167850000Y-129000000D02*
X167850000Y-128199700D01*
X167850000Y-126500000D02*
X167850000Y-128199700D01*
X160350000Y-123000000D02*
X160350000Y-122199700D01*
X159150300Y-121000000D02*
X159150300Y-113500000D01*
X160350000Y-122199700D02*
X159150300Y-121000000D01*
X166150000Y-120500000D02*
X166150000Y-119699700D01*
X166150000Y-120500000D02*
X166150000Y-120900100D01*
X167850000Y-126500000D02*
X167850000Y-125699700D01*
X181350000Y-116000000D02*
X181350000Y-116400100D01*
X181350000Y-116000000D02*
X181350000Y-115199700D01*
X178250100Y-112099800D02*
X181350000Y-115199700D01*
X167924400Y-112099800D02*
X178250100Y-112099800D01*
X167481300Y-112542900D02*
X167924400Y-112099800D01*
X167011700Y-112073300D02*
X167481300Y-112542900D01*
X160577000Y-112073300D02*
X164000000Y-112073300D01*
X164000000Y-112073300D02*
X167011700Y-112073300D01*
X159150300Y-113500000D02*
X160577000Y-112073300D01*
X167645800Y-119699700D02*
X166150000Y-119699700D01*
X168745400Y-118600100D02*
X167645800Y-119699700D01*
X168745400Y-116814400D02*
X168745400Y-118600100D01*
X167481300Y-115550300D02*
X168745400Y-116814400D01*
X167481300Y-112542900D02*
X167481300Y-115550300D01*
X165242900Y-134301900D02*
X167850000Y-134301900D01*
X161869900Y-130928900D02*
X165242900Y-134301900D01*
X157369500Y-130928900D02*
X161869900Y-130928900D01*
X156411300Y-129970700D02*
X157369500Y-130928900D01*
X155925300Y-129970700D02*
X156411300Y-129970700D01*
X155454600Y-129500000D02*
X155925300Y-129970700D01*
X155000300Y-129500000D02*
X155454600Y-129500000D01*
X190000000Y-124000000D02*
X190000000Y-123468800D01*
X190000000Y-123468800D02*
X190000000Y-122937700D01*
X167850000Y-141000000D02*
X167850000Y-138500000D01*
X167850000Y-138500000D02*
X167850000Y-136000000D01*
X183462400Y-116400100D02*
X190000000Y-122937700D01*
X181350000Y-116400100D02*
X183462400Y-116400100D01*
X180850000Y-136000000D02*
X180850000Y-138500000D01*
X180850000Y-138500000D02*
X180850000Y-141000000D01*
X168302600Y-142252900D02*
X167850000Y-141800300D01*
X180397400Y-142252900D02*
X173750000Y-142252900D01*
X173750000Y-142252900D02*
X168302600Y-142252900D01*
X180850000Y-141800300D02*
X180397400Y-142252900D01*
X180850000Y-141000000D02*
X180850000Y-141800300D01*
X167850000Y-141000000D02*
X167850000Y-141700200D01*
X167850000Y-141700200D02*
X167850000Y-141800300D01*
X167850000Y-141800300D02*
X160350000Y-141800300D01*
X160350000Y-141000000D02*
X160350000Y-141800300D01*
X190329300Y-132500000D02*
X182350000Y-132500000D01*
X192084500Y-130744800D02*
X190329300Y-132500000D01*
X192084500Y-125553300D02*
X192084500Y-130744800D01*
X190000000Y-123468800D02*
X192084500Y-125553300D01*
X180850000Y-136000000D02*
X180850000Y-135199700D01*
X182350000Y-133699700D02*
X180850000Y-135199700D01*
X182350000Y-132500000D02*
X182350000Y-133699700D01*
X165962600Y-121700100D02*
X166150000Y-121700100D01*
X165299600Y-122363100D02*
X165962600Y-121700100D01*
X165299600Y-123649500D02*
X165299600Y-122363100D01*
X167349800Y-125699700D02*
X165299600Y-123649500D01*
X167850000Y-125699700D02*
X167349800Y-125699700D01*
X166150000Y-121700100D02*
X166150000Y-120900100D01*
X167350400Y-121700100D02*
X167850000Y-122199700D01*
X166150000Y-121700100D02*
X167350400Y-121700100D01*
X167850000Y-123000000D02*
X167850000Y-122199700D01*
X170535500Y-126485800D02*
X167850000Y-123800300D01*
X178289500Y-126485800D02*
X170535500Y-126485800D01*
X179675000Y-125100300D02*
X178289500Y-126485800D01*
X179675000Y-124050000D02*
X179675000Y-125100300D01*
X167850000Y-123000000D02*
X167850000Y-123800300D01*
X161600000Y-116500000D02*
X161600000Y-113500000D01*
X166150000Y-118000000D02*
X166150000Y-117199700D01*
X165450300Y-116500000D02*
X166150000Y-117199700D01*
X161600000Y-116500000D02*
X165450300Y-116500000D01*
X160500000Y-127500000D02*
X160500000Y-126799700D01*
X166100500Y-115450200D02*
X166100500Y-113500000D01*
X167850000Y-117199700D02*
X166100500Y-115450200D01*
X167850000Y-118000000D02*
X167850000Y-117199700D01*
X161600000Y-125699700D02*
X161600000Y-119500000D01*
X160500000Y-126799700D02*
X161600000Y-125699700D01*
X163050000Y-118800300D02*
X167850000Y-118800300D01*
X162350300Y-119500000D02*
X163050000Y-118800300D01*
X161600000Y-119500000D02*
X162350300Y-119500000D01*
X167850000Y-118000000D02*
X167850000Y-118800300D01*
X154000000Y-130000000D02*
X155000300Y-130000000D01*
X166150000Y-136000000D02*
X166150000Y-135199700D01*
X165244100Y-135199700D02*
X166150000Y-135199700D01*
X161373600Y-131329200D02*
X165244100Y-135199700D01*
X156920600Y-131329200D02*
X161373600Y-131329200D01*
X155962400Y-130371000D02*
X156920600Y-131329200D01*
X155759500Y-130371000D02*
X155962400Y-130371000D01*
X155388500Y-130000000D02*
X155759500Y-130371000D01*
X155000300Y-130000000D02*
X155388500Y-130000000D01*
X166150000Y-138500000D02*
X166150000Y-137699700D01*
X164850700Y-136400400D02*
X166150000Y-137699700D01*
X164850700Y-135878300D02*
X164850700Y-136400400D01*
X160701900Y-131729500D02*
X164850700Y-135878300D01*
X156754800Y-131729500D02*
X160701900Y-131729500D01*
X155796600Y-130771300D02*
X156754800Y-131729500D01*
X155593700Y-130771300D02*
X155796600Y-130771300D01*
X155322400Y-130500000D02*
X155593700Y-130771300D01*
X154000000Y-130500000D02*
X155322400Y-130500000D01*
X166150000Y-141000000D02*
X166150000Y-140199700D01*
X164250300Y-138300000D02*
X166150000Y-140199700D01*
X164250300Y-135904200D02*
X164250300Y-138300000D01*
X160475900Y-132129800D02*
X164250300Y-135904200D01*
X156589000Y-132129800D02*
X160475900Y-132129800D01*
X155630800Y-131171600D02*
X156589000Y-132129800D01*
X155427900Y-131171600D02*
X155630800Y-131171600D01*
X155256300Y-131000000D02*
X155427900Y-131171600D01*
X154000000Y-131000000D02*
X155256300Y-131000000D01*
X158650000Y-133500000D02*
X158650000Y-132699700D01*
X156592800Y-132699700D02*
X158650000Y-132699700D01*
X155465000Y-131571900D02*
X156592800Y-132699700D01*
X155262100Y-131571900D02*
X155465000Y-131571900D01*
X155190200Y-131500000D02*
X155262100Y-131571900D01*
X154000000Y-131500000D02*
X155190200Y-131500000D01*
X150713400Y-129213700D02*
X152999700Y-131500000D01*
X150713400Y-117750400D02*
X150713400Y-129213700D01*
X151419500Y-117044300D02*
X150713400Y-117750400D01*
X155194000Y-117044300D02*
X151419500Y-117044300D01*
X157649700Y-119500000D02*
X155194000Y-117044300D01*
X158400000Y-119500000D02*
X157649700Y-119500000D01*
X154000000Y-131500000D02*
X152999700Y-131500000D01*
X154000000Y-132000000D02*
X155000300Y-132000000D01*
X158650000Y-136000000D02*
X158650000Y-135199700D01*
X158526700Y-135199700D02*
X158650000Y-135199700D01*
X155327000Y-132000000D02*
X158526700Y-135199700D01*
X155000300Y-132000000D02*
X155327000Y-132000000D01*
X158650000Y-123000000D02*
X158650000Y-122199700D01*
X154000000Y-123000000D02*
X152999700Y-123000000D01*
X151113800Y-121114100D02*
X152999700Y-123000000D01*
X151113800Y-117916700D02*
X151113800Y-121114100D01*
X151582100Y-117448400D02*
X151113800Y-117916700D01*
X154464800Y-117448400D02*
X151582100Y-117448400D01*
X158650000Y-121633600D02*
X154464800Y-117448400D01*
X158650000Y-122199700D02*
X158650000Y-121633600D01*
X155000300Y-134050000D02*
X158650000Y-137699700D01*
X155000300Y-132500000D02*
X155000300Y-134050000D01*
X154000000Y-132500000D02*
X155000300Y-132500000D01*
X158650000Y-138500000D02*
X158650000Y-137699700D01*
X150269800Y-129770100D02*
X152999700Y-132500000D01*
X150269800Y-117591900D02*
X150269800Y-129770100D01*
X151361700Y-116500000D02*
X150269800Y-117591900D01*
X158400000Y-116500000D02*
X151361700Y-116500000D01*
X154000000Y-132500000D02*
X152999700Y-132500000D01*
X154000000Y-123500000D02*
X155000300Y-123500000D01*
X166150000Y-123000000D02*
X166150000Y-123800300D01*
X157305800Y-125805500D02*
X155000300Y-123500000D01*
X157305800Y-127672200D02*
X157305800Y-125805500D01*
X157706100Y-128072500D02*
X157305800Y-127672200D01*
X157706100Y-129001000D02*
X157706100Y-128072500D01*
X158032800Y-129327700D02*
X157706100Y-129001000D01*
X164233100Y-129327700D02*
X158032800Y-129327700D01*
X164711400Y-129806000D02*
X164233100Y-129327700D01*
X168550300Y-129806000D02*
X164711400Y-129806000D01*
X168700400Y-129655900D02*
X168550300Y-129806000D01*
X168700400Y-125850500D02*
X168700400Y-129655900D01*
X166650200Y-123800300D02*
X168700400Y-125850500D01*
X166150000Y-123800300D02*
X166650200Y-123800300D01*
X154450400Y-136000100D02*
X158650000Y-140199700D01*
X154450400Y-133450400D02*
X154450400Y-136000100D01*
X154000000Y-133000000D02*
X154450400Y-133450400D01*
X158650000Y-141000000D02*
X158650000Y-140199700D01*
X182275000Y-124050000D02*
X182275000Y-122999700D01*
X183850000Y-121500000D02*
X183850000Y-122300300D01*
X183150600Y-123150600D02*
X183150600Y-122999700D01*
X190000000Y-130000000D02*
X183150600Y-123150600D01*
X182275000Y-122999700D02*
X183150600Y-122999700D01*
X183150600Y-122999700D02*
X183850000Y-122300300D01*
X182326000Y-119800300D02*
X183850000Y-119800300D01*
X181299600Y-120826700D02*
X182326000Y-119800300D01*
X181299600Y-122674300D02*
X181299600Y-120826700D01*
X181625000Y-122999700D02*
X181299600Y-122674300D01*
X181625000Y-124050000D02*
X181625000Y-122999700D01*
X183850000Y-119000000D02*
X183850000Y-119800300D01*
X187625800Y-131101100D02*
X181625000Y-125100300D01*
X190582000Y-131101100D02*
X187625800Y-131101100D01*
X191228800Y-130454300D02*
X190582000Y-131101100D01*
X191228800Y-129228800D02*
X191228800Y-130454300D01*
X190000000Y-128000000D02*
X191228800Y-129228800D01*
X181625000Y-124050000D02*
X181625000Y-125100300D01*
X166150000Y-129000000D02*
X165299700Y-129000000D01*
X158500000Y-128500000D02*
X159250300Y-128500000D01*
X159677700Y-128927400D02*
X159250300Y-128500000D01*
X165227100Y-128927400D02*
X159677700Y-128927400D01*
X165299700Y-129000000D02*
X165227100Y-128927400D01*
X157749700Y-127049400D02*
X158500000Y-127799700D01*
X157749700Y-124749400D02*
X157749700Y-127049400D01*
X155000300Y-122000000D02*
X157749700Y-124749400D01*
X154000000Y-122000000D02*
X155000300Y-122000000D01*
X158500000Y-128500000D02*
X158500000Y-127799700D01*
X158500000Y-124324700D02*
X158500000Y-126500000D01*
X155286200Y-121110900D02*
X158500000Y-124324700D01*
X155286200Y-118835900D02*
X155286200Y-121110900D01*
X154299000Y-117848700D02*
X155286200Y-118835900D01*
X151747900Y-117848700D02*
X154299000Y-117848700D01*
X151514100Y-118082500D02*
X151747900Y-117848700D01*
X151514100Y-120948100D02*
X151514100Y-118082500D01*
X153066000Y-122500000D02*
X151514100Y-120948100D01*
X154000000Y-122500000D02*
X153066000Y-122500000D01*
X165249900Y-128200400D02*
X166150000Y-127300300D01*
X159858600Y-128200400D02*
X165249900Y-128200400D01*
X158858500Y-127200300D02*
X159858600Y-128200400D01*
X158500000Y-127200300D02*
X158858500Y-127200300D01*
X158500000Y-126500000D02*
X158500000Y-127200300D01*
X166150000Y-126500000D02*
X166150000Y-127300300D01*
X179025000Y-122475300D02*
X178850000Y-122300300D01*
X179025000Y-124050000D02*
X179025000Y-122475300D01*
X178850000Y-121500000D02*
X178850000Y-122300300D01*
X152999700Y-123992500D02*
X152526000Y-123518800D01*
X152999700Y-125000000D02*
X152999700Y-123992500D01*
X154000000Y-125000000D02*
X152999700Y-125000000D01*
X179650000Y-117340300D02*
X179650000Y-116000000D01*
X179349900Y-117640400D02*
X179650000Y-117340300D01*
X179650000Y-116000000D02*
X179850000Y-116000000D01*
X179150000Y-136000000D02*
X179350000Y-136000000D01*
X176962000Y-136800300D02*
X179150000Y-136800300D01*
X176799600Y-136637900D02*
X176962000Y-136800300D01*
X176799600Y-135283100D02*
X176799600Y-136637900D01*
X179025000Y-133057700D02*
X176799600Y-135283100D01*
X179025000Y-129950000D02*
X179025000Y-133057700D01*
X179150000Y-136000000D02*
X179150000Y-136800300D01*
X179150000Y-138500000D02*
X179150000Y-138099800D01*
X179350000Y-138299800D02*
X179350000Y-138500000D01*
X179150000Y-138099800D02*
X179350000Y-138299800D01*
X178500200Y-137450000D02*
X179150000Y-138099800D01*
X177045600Y-137450000D02*
X178500200Y-137450000D01*
X176399300Y-136803700D02*
X177045600Y-137450000D01*
X176399300Y-134917300D02*
X176399300Y-136803700D01*
X178375000Y-132941600D02*
X176399300Y-134917300D01*
X178375000Y-129950000D02*
X178375000Y-132941600D01*
X179150000Y-141000000D02*
X179150000Y-141400100D01*
X179350000Y-141200100D02*
X179350000Y-141000000D01*
X179150000Y-141400100D02*
X179350000Y-141200100D01*
X178749700Y-141800400D02*
X179150000Y-141400100D01*
X176952100Y-141800400D02*
X178749700Y-141800400D01*
X175997400Y-140845700D02*
X176952100Y-141800400D01*
X175997400Y-132727900D02*
X175997400Y-140845700D01*
X177725000Y-131000300D02*
X175997400Y-132727900D01*
X177725000Y-129950000D02*
X177725000Y-131000300D01*
X177725000Y-124050000D02*
X176008300Y-125766700D01*
X152911900Y-127000000D02*
X152693000Y-126781100D01*
X154000000Y-127000000D02*
X152911900Y-127000000D01*
X178088900Y-125100300D02*
X177783800Y-125405400D01*
X178375000Y-125100300D02*
X178088900Y-125100300D01*
X178375000Y-124050000D02*
X178375000Y-125100300D01*
X152765600Y-125500000D02*
X152296200Y-125030600D01*
X154000000Y-125500000D02*
X152765600Y-125500000D01*
X180975000Y-125661800D02*
X180975000Y-124050000D01*
X180781600Y-125855200D02*
X180975000Y-125661800D01*
X152999700Y-128225600D02*
X152671600Y-128553700D01*
X152999700Y-128000000D02*
X152999700Y-128225600D01*
X154000000Y-128000000D02*
X152999700Y-128000000D01*
X181625000Y-129950000D02*
X181625000Y-128899700D01*
X154000000Y-126500000D02*
X155000300Y-126500000D01*
X180424100Y-127698800D02*
X181625000Y-128899700D01*
X175632900Y-127698800D02*
X180424100Y-127698800D01*
X173078700Y-130253000D02*
X175632900Y-127698800D01*
X164309300Y-130253000D02*
X173078700Y-130253000D01*
X163784300Y-129728000D02*
X164309300Y-130253000D01*
X157866900Y-129728000D02*
X163784300Y-129728000D01*
X156908700Y-128769800D02*
X157866900Y-129728000D01*
X156422700Y-128769800D02*
X156908700Y-128769800D01*
X156012400Y-128359500D02*
X156422700Y-128769800D01*
X156012400Y-127512100D02*
X156012400Y-128359500D01*
X155000300Y-126500000D02*
X156012400Y-127512100D01*
X180975000Y-129950000D02*
X180975000Y-128899700D01*
X180174400Y-128099100D02*
X180975000Y-128899700D01*
X176094600Y-128099100D02*
X180174400Y-128099100D01*
X173540400Y-130653300D02*
X176094600Y-128099100D01*
X164143500Y-130653300D02*
X173540400Y-130653300D01*
X163618500Y-130128300D02*
X164143500Y-130653300D01*
X157701100Y-130128300D02*
X163618500Y-130128300D01*
X156742900Y-129170100D02*
X157701100Y-130128300D01*
X156256900Y-129170100D02*
X156742900Y-129170100D01*
X155000300Y-127913500D02*
X156256900Y-129170100D01*
X155000300Y-127500000D02*
X155000300Y-127913500D01*
X154000000Y-127500000D02*
X155000300Y-127500000D01*
X155141300Y-126000000D02*
X154000000Y-126000000D01*
X156712700Y-127571400D02*
X155141300Y-126000000D01*
X156712700Y-128069500D02*
X156712700Y-127571400D01*
X177211500Y-128899700D02*
X176883800Y-129227400D01*
X179675000Y-128899700D02*
X177211500Y-128899700D01*
X179675000Y-129950000D02*
X179675000Y-128899700D01*
D21*
G36*
X192105655Y-110744926D02*
X192195225Y-110804774D01*
X192255074Y-110894345D01*
X192290000Y-111069930D01*
X192290000Y-127304821D01*
X192180724Y-127141277D01*
X191477865Y-126438419D01*
X191565072Y-126000000D01*
X191458732Y-125465391D01*
X191155900Y-125012172D01*
X191101922Y-124976105D01*
X191262135Y-124830328D01*
X191492220Y-124343070D01*
X191369720Y-124127000D01*
X190127000Y-124127000D01*
X190127000Y-124147000D01*
X189873000Y-124147000D01*
X189873000Y-124127000D01*
X189853000Y-124127000D01*
X189853000Y-123873000D01*
X189873000Y-123873000D01*
X189873000Y-122761251D01*
X190127000Y-122761251D01*
X190127000Y-123873000D01*
X191369720Y-123873000D01*
X191492220Y-123656930D01*
X191262135Y-123169672D01*
X190858812Y-122802689D01*
X190345752Y-122617986D01*
X190127000Y-122761251D01*
X189873000Y-122761251D01*
X189654248Y-122617986D01*
X189141188Y-122802689D01*
X188737865Y-123169672D01*
X188568272Y-123528825D01*
X185435300Y-120395854D01*
X185435300Y-118375600D01*
X185379351Y-118094328D01*
X185337486Y-118031672D01*
X185220023Y-117855876D01*
X185044123Y-117679977D01*
X184805672Y-117520649D01*
X184524400Y-117464700D01*
X182150000Y-117464700D01*
X181868728Y-117520649D01*
X181630277Y-117679977D01*
X181573600Y-117764800D01*
X180384792Y-117764800D01*
X180385079Y-117435429D01*
X180372252Y-117404386D01*
X180385000Y-117340300D01*
X180385000Y-117147440D01*
X180400000Y-117147440D01*
X180608850Y-117108142D01*
X180673691Y-117135000D01*
X181064250Y-117135000D01*
X181223000Y-116976250D01*
X181223000Y-116127000D01*
X181477000Y-116127000D01*
X181477000Y-116976250D01*
X181635750Y-117135000D01*
X182026309Y-117135000D01*
X182259698Y-117038327D01*
X182438327Y-116859699D01*
X182535000Y-116626310D01*
X182535000Y-116285750D01*
X182376250Y-116127000D01*
X181477000Y-116127000D01*
X181223000Y-116127000D01*
X181203000Y-116127000D01*
X181203000Y-115873000D01*
X181223000Y-115873000D01*
X181223000Y-115023750D01*
X181477000Y-115023750D01*
X181477000Y-115873000D01*
X182376250Y-115873000D01*
X182535000Y-115714250D01*
X182535000Y-115373690D01*
X182438327Y-115140301D01*
X182259698Y-114961673D01*
X182026309Y-114865000D01*
X181635750Y-114865000D01*
X181477000Y-115023750D01*
X181223000Y-115023750D01*
X181064250Y-114865000D01*
X180673691Y-114865000D01*
X180603993Y-114893870D01*
X180400000Y-114852560D01*
X179100000Y-114852560D01*
X178892658Y-114891574D01*
X178700000Y-114852560D01*
X177600000Y-114852560D01*
X177364683Y-114896838D01*
X177148559Y-115035910D01*
X177003569Y-115248110D01*
X176952560Y-115500000D01*
X176952560Y-116500000D01*
X176996838Y-116735317D01*
X177135910Y-116951441D01*
X177348110Y-117096431D01*
X177415000Y-117109977D01*
X177415000Y-117499900D01*
X177415004Y-117499921D01*
X177415001Y-117499937D01*
X177439202Y-117621572D01*
X177470949Y-117781172D01*
X177470959Y-117781187D01*
X177470963Y-117781206D01*
X177549304Y-117898438D01*
X177630277Y-118019623D01*
X177630293Y-118019633D01*
X177630303Y-118019649D01*
X178110627Y-118499926D01*
X176845554Y-119765000D01*
X169880800Y-119765000D01*
X169880800Y-115212933D01*
X169933687Y-115202982D01*
X170149811Y-115063910D01*
X170294801Y-114851710D01*
X170345810Y-114599820D01*
X170345810Y-113422815D01*
X187864630Y-113422815D01*
X188188980Y-114207800D01*
X188789041Y-114808909D01*
X189573459Y-115134628D01*
X190422815Y-115135370D01*
X191207800Y-114811020D01*
X191808909Y-114210959D01*
X192134628Y-113426541D01*
X192135370Y-112577185D01*
X191811020Y-111792200D01*
X191210959Y-111191091D01*
X190426541Y-110865372D01*
X189577185Y-110864630D01*
X188792200Y-111188980D01*
X188191091Y-111789041D01*
X187865372Y-112573459D01*
X187864630Y-113422815D01*
X170345810Y-113422815D01*
X170345810Y-112400180D01*
X170301532Y-112164863D01*
X170162460Y-111948739D01*
X169950260Y-111803749D01*
X169698370Y-111752740D01*
X168100710Y-111752740D01*
X167865393Y-111797018D01*
X167649269Y-111936090D01*
X167504279Y-112148290D01*
X167501289Y-112163056D01*
X167363380Y-111948739D01*
X167151180Y-111803749D01*
X166899290Y-111752740D01*
X165301630Y-111752740D01*
X165066313Y-111797018D01*
X164850189Y-111936090D01*
X164705199Y-112148290D01*
X164654190Y-112400180D01*
X164654190Y-114599820D01*
X164698468Y-114835137D01*
X164837540Y-115051261D01*
X165049740Y-115196251D01*
X165301630Y-115247260D01*
X165365500Y-115247260D01*
X165365500Y-115450200D01*
X165418023Y-115714250D01*
X165421449Y-115731472D01*
X165443852Y-115765000D01*
X162672038Y-115765000D01*
X162653162Y-115664683D01*
X162514090Y-115448559D01*
X162335000Y-115326192D01*
X162335000Y-114671192D01*
X162501441Y-114564090D01*
X162646431Y-114351890D01*
X162697440Y-114100000D01*
X162697440Y-112900000D01*
X162653162Y-112664683D01*
X162514090Y-112448559D01*
X162301890Y-112303569D01*
X162050000Y-112252560D01*
X161150000Y-112252560D01*
X160914683Y-112296838D01*
X160698559Y-112435910D01*
X160553569Y-112648110D01*
X160502560Y-112900000D01*
X160502560Y-114100000D01*
X160546838Y-114335317D01*
X160685910Y-114551441D01*
X160865000Y-114673808D01*
X160865000Y-115328808D01*
X160698559Y-115435910D01*
X160553569Y-115648110D01*
X160502560Y-115900000D01*
X160502560Y-117100000D01*
X160546838Y-117335317D01*
X160685910Y-117551441D01*
X160898110Y-117696431D01*
X161150000Y-117747440D01*
X162050000Y-117747440D01*
X162285317Y-117703162D01*
X162501441Y-117564090D01*
X162646431Y-117351890D01*
X162670102Y-117235000D01*
X165012527Y-117235000D01*
X165003569Y-117248110D01*
X164952560Y-117500000D01*
X164952560Y-118065300D01*
X163050000Y-118065300D01*
X162768728Y-118121249D01*
X162530276Y-118280577D01*
X162423911Y-118386942D01*
X162301890Y-118303569D01*
X162050000Y-118252560D01*
X161150000Y-118252560D01*
X160914683Y-118296838D01*
X160698559Y-118435910D01*
X160553569Y-118648110D01*
X160502560Y-118900000D01*
X160502560Y-120100000D01*
X160546838Y-120335317D01*
X160685910Y-120551441D01*
X160865000Y-120673808D01*
X160865000Y-121865000D01*
X160635750Y-121865000D01*
X160477000Y-122023750D01*
X160477000Y-122873000D01*
X160497000Y-122873000D01*
X160497000Y-123127000D01*
X160477000Y-123127000D01*
X160477000Y-123976250D01*
X160635750Y-124135000D01*
X160865000Y-124135000D01*
X160865000Y-125395253D01*
X159980277Y-126279977D01*
X159838351Y-126492385D01*
X159814683Y-126496838D01*
X159598559Y-126635910D01*
X159597440Y-126637548D01*
X159597440Y-126100000D01*
X159553162Y-125864683D01*
X159414090Y-125648559D01*
X159235000Y-125526192D01*
X159235000Y-124324700D01*
X159199740Y-124147440D01*
X159200000Y-124147440D01*
X159435317Y-124103162D01*
X159498568Y-124062461D01*
X159673691Y-124135000D01*
X160064250Y-124135000D01*
X160223000Y-123976250D01*
X160223000Y-123127000D01*
X160203000Y-123127000D01*
X160203000Y-122873000D01*
X160223000Y-122873000D01*
X160223000Y-122023750D01*
X160064250Y-121865000D01*
X159673691Y-121865000D01*
X159500459Y-121936755D01*
X159451890Y-121903569D01*
X159385000Y-121890023D01*
X159385000Y-121633600D01*
X159329051Y-121352328D01*
X159270701Y-121265001D01*
X159169724Y-121113877D01*
X158803287Y-120747440D01*
X158850000Y-120747440D01*
X159085317Y-120703162D01*
X159301441Y-120564090D01*
X159446431Y-120351890D01*
X159497440Y-120100000D01*
X159497440Y-118900000D01*
X159453162Y-118664683D01*
X159314090Y-118448559D01*
X159101890Y-118303569D01*
X158850000Y-118252560D01*
X157950000Y-118252560D01*
X157714683Y-118296838D01*
X157575528Y-118386382D01*
X156424146Y-117235000D01*
X157327962Y-117235000D01*
X157346838Y-117335317D01*
X157485910Y-117551441D01*
X157698110Y-117696431D01*
X157950000Y-117747440D01*
X158850000Y-117747440D01*
X159085317Y-117703162D01*
X159301441Y-117564090D01*
X159446431Y-117351890D01*
X159497440Y-117100000D01*
X159497440Y-115900000D01*
X159453162Y-115664683D01*
X159314090Y-115448559D01*
X159101890Y-115303569D01*
X158850000Y-115252560D01*
X157950000Y-115252560D01*
X157714683Y-115296838D01*
X157498559Y-115435910D01*
X157353569Y-115648110D01*
X157329898Y-115765000D01*
X151361700Y-115765000D01*
X151080428Y-115820949D01*
X150841977Y-115980276D01*
X149750077Y-117072177D01*
X149590749Y-117310628D01*
X149534800Y-117591900D01*
X149534800Y-129770100D01*
X149587751Y-130036300D01*
X149590749Y-130051372D01*
X149750077Y-130289823D01*
X152479977Y-133019724D01*
X152491704Y-133027560D01*
X151850000Y-133027560D01*
X151614683Y-133071838D01*
X151398559Y-133210910D01*
X151253569Y-133423110D01*
X151202560Y-133675000D01*
X151202560Y-136325000D01*
X151246838Y-136560317D01*
X151385910Y-136776441D01*
X151598110Y-136921431D01*
X151850000Y-136972440D01*
X154150000Y-136972440D01*
X154346348Y-136935494D01*
X157566646Y-140155793D01*
X157503569Y-140248110D01*
X157452560Y-140500000D01*
X157452560Y-141500000D01*
X157496838Y-141735317D01*
X157635910Y-141951441D01*
X157848110Y-142096431D01*
X158100000Y-142147440D01*
X159200000Y-142147440D01*
X159435317Y-142103162D01*
X159498568Y-142062461D01*
X159673691Y-142135000D01*
X160064250Y-142135000D01*
X160223000Y-141976250D01*
X160223000Y-141127000D01*
X160477000Y-141127000D01*
X160477000Y-141976250D01*
X160635750Y-142135000D01*
X161026309Y-142135000D01*
X161259698Y-142038327D01*
X161438327Y-141859699D01*
X161535000Y-141626310D01*
X161535000Y-141285750D01*
X161376250Y-141127000D01*
X160477000Y-141127000D01*
X160223000Y-141127000D01*
X160203000Y-141127000D01*
X160203000Y-140873000D01*
X160223000Y-140873000D01*
X160223000Y-140023750D01*
X160477000Y-140023750D01*
X160477000Y-140873000D01*
X161376250Y-140873000D01*
X161535000Y-140714250D01*
X161535000Y-140373690D01*
X161438327Y-140140301D01*
X161259698Y-139961673D01*
X161026309Y-139865000D01*
X160635750Y-139865000D01*
X160477000Y-140023750D01*
X160223000Y-140023750D01*
X160064250Y-139865000D01*
X159673691Y-139865000D01*
X159500459Y-139936755D01*
X159451890Y-139903569D01*
X159298347Y-139872476D01*
X159293104Y-139864630D01*
X159169723Y-139679976D01*
X159137187Y-139647440D01*
X159200000Y-139647440D01*
X159435317Y-139603162D01*
X159498568Y-139562461D01*
X159673691Y-139635000D01*
X160064250Y-139635000D01*
X160223000Y-139476250D01*
X160223000Y-138627000D01*
X160477000Y-138627000D01*
X160477000Y-139476250D01*
X160635750Y-139635000D01*
X161026309Y-139635000D01*
X161259698Y-139538327D01*
X161438327Y-139359699D01*
X161535000Y-139126310D01*
X161535000Y-138785750D01*
X161376250Y-138627000D01*
X160477000Y-138627000D01*
X160223000Y-138627000D01*
X160203000Y-138627000D01*
X160203000Y-138373000D01*
X160223000Y-138373000D01*
X160223000Y-137523750D01*
X160477000Y-137523750D01*
X160477000Y-138373000D01*
X161376250Y-138373000D01*
X161535000Y-138214250D01*
X161535000Y-137873690D01*
X161438327Y-137640301D01*
X161259698Y-137461673D01*
X161026309Y-137365000D01*
X160635750Y-137365000D01*
X160477000Y-137523750D01*
X160223000Y-137523750D01*
X160064250Y-137365000D01*
X159673691Y-137365000D01*
X159500459Y-137436755D01*
X159451890Y-137403569D01*
X159298347Y-137372476D01*
X159293218Y-137364800D01*
X159169723Y-137179976D01*
X159137187Y-137147440D01*
X159200000Y-137147440D01*
X159435317Y-137103162D01*
X159498568Y-137062461D01*
X159673691Y-137135000D01*
X160064250Y-137135000D01*
X160223000Y-136976250D01*
X160223000Y-136127000D01*
X160477000Y-136127000D01*
X160477000Y-136976250D01*
X160635750Y-137135000D01*
X161026309Y-137135000D01*
X161259698Y-137038327D01*
X161438327Y-136859699D01*
X161535000Y-136626310D01*
X161535000Y-136285750D01*
X161376250Y-136127000D01*
X160477000Y-136127000D01*
X160223000Y-136127000D01*
X160203000Y-136127000D01*
X160203000Y-135873000D01*
X160223000Y-135873000D01*
X160223000Y-135023750D01*
X160477000Y-135023750D01*
X160477000Y-135873000D01*
X161376250Y-135873000D01*
X161535000Y-135714250D01*
X161535000Y-135373690D01*
X161438327Y-135140301D01*
X161259698Y-134961673D01*
X161026309Y-134865000D01*
X160635750Y-134865000D01*
X160477000Y-135023750D01*
X160223000Y-135023750D01*
X160064250Y-134865000D01*
X159673691Y-134865000D01*
X159500459Y-134936755D01*
X159451890Y-134903569D01*
X159298347Y-134872476D01*
X159169723Y-134679977D01*
X159121028Y-134647440D01*
X159200000Y-134647440D01*
X159435317Y-134603162D01*
X159498568Y-134562461D01*
X159673691Y-134635000D01*
X160064250Y-134635000D01*
X160223000Y-134476250D01*
X160223000Y-133627000D01*
X160203000Y-133627000D01*
X160203000Y-133373000D01*
X160223000Y-133373000D01*
X160223000Y-133353000D01*
X160477000Y-133353000D01*
X160477000Y-133373000D01*
X160497000Y-133373000D01*
X160497000Y-133627000D01*
X160477000Y-133627000D01*
X160477000Y-134476250D01*
X160635750Y-134635000D01*
X161026309Y-134635000D01*
X161259698Y-134538327D01*
X161438327Y-134359699D01*
X161505114Y-134198461D01*
X163515300Y-136208647D01*
X163515300Y-138300000D01*
X163542094Y-138434699D01*
X163571249Y-138581272D01*
X163730577Y-138819723D01*
X165066646Y-140155793D01*
X165003569Y-140248110D01*
X164952560Y-140500000D01*
X164952560Y-141500000D01*
X164996838Y-141735317D01*
X165135910Y-141951441D01*
X165348110Y-142096431D01*
X165600000Y-142147440D01*
X166700000Y-142147440D01*
X166935317Y-142103162D01*
X166998568Y-142062461D01*
X167173691Y-142135000D01*
X167564250Y-142135000D01*
X167723000Y-141976250D01*
X167723000Y-141127000D01*
X167977000Y-141127000D01*
X167977000Y-141976250D01*
X168135750Y-142135000D01*
X168526309Y-142135000D01*
X168759698Y-142038327D01*
X168938327Y-141859699D01*
X169035000Y-141626310D01*
X169035000Y-141285750D01*
X168876250Y-141127000D01*
X167977000Y-141127000D01*
X167723000Y-141127000D01*
X167703000Y-141127000D01*
X167703000Y-140873000D01*
X167723000Y-140873000D01*
X167723000Y-140023750D01*
X167977000Y-140023750D01*
X167977000Y-140873000D01*
X168876250Y-140873000D01*
X169035000Y-140714250D01*
X169035000Y-140373690D01*
X168938327Y-140140301D01*
X168759698Y-139961673D01*
X168526309Y-139865000D01*
X168135750Y-139865000D01*
X167977000Y-140023750D01*
X167723000Y-140023750D01*
X167564250Y-139865000D01*
X167173691Y-139865000D01*
X167000459Y-139936755D01*
X166951890Y-139903569D01*
X166798347Y-139872476D01*
X166793352Y-139865000D01*
X166669724Y-139679977D01*
X166637187Y-139647440D01*
X166700000Y-139647440D01*
X166935317Y-139603162D01*
X166998568Y-139562461D01*
X167173691Y-139635000D01*
X167564250Y-139635000D01*
X167723000Y-139476250D01*
X167723000Y-138627000D01*
X167977000Y-138627000D01*
X167977000Y-139476250D01*
X168135750Y-139635000D01*
X168526309Y-139635000D01*
X168759698Y-139538327D01*
X168938327Y-139359699D01*
X169035000Y-139126310D01*
X169035000Y-138785750D01*
X168876250Y-138627000D01*
X167977000Y-138627000D01*
X167723000Y-138627000D01*
X167703000Y-138627000D01*
X167703000Y-138373000D01*
X167723000Y-138373000D01*
X167723000Y-137523750D01*
X167977000Y-137523750D01*
X167977000Y-138373000D01*
X168876250Y-138373000D01*
X169035000Y-138214250D01*
X169035000Y-137873690D01*
X168938327Y-137640301D01*
X168759698Y-137461673D01*
X168526309Y-137365000D01*
X168135750Y-137365000D01*
X167977000Y-137523750D01*
X167723000Y-137523750D01*
X167564250Y-137365000D01*
X167173691Y-137365000D01*
X167000459Y-137436755D01*
X166951890Y-137403569D01*
X166798347Y-137372476D01*
X166793218Y-137364800D01*
X166669724Y-137179977D01*
X166637187Y-137147440D01*
X166700000Y-137147440D01*
X166935317Y-137103162D01*
X166998568Y-137062461D01*
X167173691Y-137135000D01*
X167564250Y-137135000D01*
X167723000Y-136976250D01*
X167723000Y-136127000D01*
X167977000Y-136127000D01*
X167977000Y-136976250D01*
X168135750Y-137135000D01*
X168526309Y-137135000D01*
X168759698Y-137038327D01*
X168938327Y-136859699D01*
X169035000Y-136626310D01*
X169035000Y-136285750D01*
X168876250Y-136127000D01*
X167977000Y-136127000D01*
X167723000Y-136127000D01*
X167703000Y-136127000D01*
X167703000Y-135873000D01*
X167723000Y-135873000D01*
X167723000Y-135023750D01*
X167977000Y-135023750D01*
X167977000Y-135873000D01*
X168876250Y-135873000D01*
X169035000Y-135714250D01*
X169035000Y-135373690D01*
X168938327Y-135140301D01*
X168759698Y-134961673D01*
X168526309Y-134865000D01*
X168135750Y-134865000D01*
X167977000Y-135023750D01*
X167723000Y-135023750D01*
X167564250Y-134865000D01*
X167173691Y-134865000D01*
X167000459Y-134936755D01*
X166951890Y-134903569D01*
X166798347Y-134872476D01*
X166669723Y-134679977D01*
X166621028Y-134647440D01*
X166700000Y-134647440D01*
X166935317Y-134603162D01*
X166998568Y-134562461D01*
X167173691Y-134635000D01*
X167564250Y-134635000D01*
X167723000Y-134476250D01*
X167723000Y-133627000D01*
X167977000Y-133627000D01*
X167977000Y-134476250D01*
X168135750Y-134635000D01*
X168526309Y-134635000D01*
X168759698Y-134538327D01*
X168938327Y-134359699D01*
X169035000Y-134126310D01*
X169035000Y-133785750D01*
X168876250Y-133627000D01*
X167977000Y-133627000D01*
X167723000Y-133627000D01*
X167703000Y-133627000D01*
X167703000Y-133434700D01*
X172416400Y-133434700D01*
X172697672Y-133378751D01*
X172936123Y-133219423D01*
X176174098Y-129981449D01*
X176296754Y-130104319D01*
X176677023Y-130262220D01*
X176852560Y-130262373D01*
X176852560Y-130700000D01*
X176873669Y-130812184D01*
X175477677Y-132208177D01*
X175318349Y-132446628D01*
X175262400Y-132727900D01*
X175262400Y-140845700D01*
X175316729Y-141118828D01*
X175318349Y-141126972D01*
X175477677Y-141365423D01*
X176432377Y-142320124D01*
X176670828Y-142479451D01*
X176952100Y-142535400D01*
X178749700Y-142535400D01*
X179030972Y-142479451D01*
X179115733Y-142422815D01*
X187864630Y-142422815D01*
X188188980Y-143207800D01*
X188789041Y-143808909D01*
X189573459Y-144134628D01*
X190422815Y-144135370D01*
X191207800Y-143811020D01*
X191808909Y-143210959D01*
X192134628Y-142426541D01*
X192135370Y-141577185D01*
X191811020Y-140792200D01*
X191210959Y-140191091D01*
X190426541Y-139865372D01*
X189577185Y-139864630D01*
X188792200Y-140188980D01*
X188191091Y-140789041D01*
X187865372Y-141573459D01*
X187864630Y-142422815D01*
X179115733Y-142422815D01*
X179269423Y-142320123D01*
X179442106Y-142147440D01*
X179900000Y-142147440D01*
X180108850Y-142108142D01*
X180173691Y-142135000D01*
X180564250Y-142135000D01*
X180723000Y-141976250D01*
X180723000Y-141127000D01*
X180977000Y-141127000D01*
X180977000Y-141976250D01*
X181135750Y-142135000D01*
X181526309Y-142135000D01*
X181759698Y-142038327D01*
X181938327Y-141859699D01*
X182035000Y-141626310D01*
X182035000Y-141285750D01*
X181876250Y-141127000D01*
X180977000Y-141127000D01*
X180723000Y-141127000D01*
X180703000Y-141127000D01*
X180703000Y-140873000D01*
X180723000Y-140873000D01*
X180723000Y-140023750D01*
X180977000Y-140023750D01*
X180977000Y-140873000D01*
X181876250Y-140873000D01*
X182035000Y-140714250D01*
X182035000Y-140373690D01*
X181938327Y-140140301D01*
X181759698Y-139961673D01*
X181526309Y-139865000D01*
X181135750Y-139865000D01*
X180977000Y-140023750D01*
X180723000Y-140023750D01*
X180564250Y-139865000D01*
X180173691Y-139865000D01*
X180103993Y-139893870D01*
X179900000Y-139852560D01*
X178679346Y-139852560D01*
X178684820Y-139839377D01*
X178684987Y-139647440D01*
X179900000Y-139647440D01*
X180108850Y-139608142D01*
X180173691Y-139635000D01*
X180564250Y-139635000D01*
X180723000Y-139476250D01*
X180723000Y-138627000D01*
X180977000Y-138627000D01*
X180977000Y-139476250D01*
X181135750Y-139635000D01*
X181526309Y-139635000D01*
X181759698Y-139538327D01*
X181938327Y-139359699D01*
X182035000Y-139126310D01*
X182035000Y-138785750D01*
X181876250Y-138627000D01*
X180977000Y-138627000D01*
X180723000Y-138627000D01*
X180703000Y-138627000D01*
X180703000Y-138373000D01*
X180723000Y-138373000D01*
X180723000Y-137523750D01*
X180977000Y-137523750D01*
X180977000Y-138373000D01*
X181876250Y-138373000D01*
X182035000Y-138214250D01*
X182035000Y-137873690D01*
X181938327Y-137640301D01*
X181759698Y-137461673D01*
X181526309Y-137365000D01*
X181135750Y-137365000D01*
X180977000Y-137523750D01*
X180723000Y-137523750D01*
X180564250Y-137365000D01*
X180173691Y-137365000D01*
X180103993Y-137393870D01*
X179900000Y-137352560D01*
X179621028Y-137352560D01*
X179669723Y-137320023D01*
X179785039Y-137147440D01*
X179900000Y-137147440D01*
X180108850Y-137108142D01*
X180173691Y-137135000D01*
X180564250Y-137135000D01*
X180723000Y-136976250D01*
X180723000Y-136127000D01*
X180977000Y-136127000D01*
X180977000Y-136976250D01*
X181135750Y-137135000D01*
X181526309Y-137135000D01*
X181759698Y-137038327D01*
X181938327Y-136859699D01*
X182035000Y-136626310D01*
X182035000Y-136285750D01*
X181876250Y-136127000D01*
X180977000Y-136127000D01*
X180723000Y-136127000D01*
X180703000Y-136127000D01*
X180703000Y-135873000D01*
X180723000Y-135873000D01*
X180723000Y-135023750D01*
X180977000Y-135023750D01*
X180977000Y-135873000D01*
X181876250Y-135873000D01*
X182035000Y-135714250D01*
X182035000Y-135373690D01*
X181938327Y-135140301D01*
X181759698Y-134961673D01*
X181526309Y-134865000D01*
X181135750Y-134865000D01*
X180977000Y-135023750D01*
X180723000Y-135023750D01*
X180564250Y-134865000D01*
X180173691Y-134865000D01*
X180103993Y-134893870D01*
X180097244Y-134892503D01*
X181169723Y-133820024D01*
X181297269Y-133629138D01*
X181435317Y-133603162D01*
X181498568Y-133562461D01*
X181673691Y-133635000D01*
X182064250Y-133635000D01*
X182223000Y-133476250D01*
X182223000Y-132627000D01*
X182477000Y-132627000D01*
X182477000Y-133476250D01*
X182635750Y-133635000D01*
X183026309Y-133635000D01*
X183259698Y-133538327D01*
X183438327Y-133359699D01*
X183535000Y-133126310D01*
X183535000Y-132785750D01*
X183376250Y-132627000D01*
X182477000Y-132627000D01*
X182223000Y-132627000D01*
X182203000Y-132627000D01*
X182203000Y-132434700D01*
X190557400Y-132434700D01*
X190838672Y-132378751D01*
X191077123Y-132219423D01*
X192180723Y-131115824D01*
X192290000Y-130952279D01*
X192290000Y-143930070D01*
X192255074Y-144105655D01*
X192195225Y-144195226D01*
X192105655Y-144255074D01*
X191930070Y-144290000D01*
X144069930Y-144290000D01*
X143894345Y-144255074D01*
X143804774Y-144195225D01*
X143744926Y-144105655D01*
X143710000Y-143930070D01*
X143710000Y-142422815D01*
X143864630Y-142422815D01*
X144188980Y-143207800D01*
X144789041Y-143808909D01*
X145573459Y-144134628D01*
X146422815Y-144135370D01*
X147207800Y-143811020D01*
X147808909Y-143210959D01*
X148134628Y-142426541D01*
X148135370Y-141577185D01*
X147811020Y-140792200D01*
X147210959Y-140191091D01*
X146426541Y-139865372D01*
X145577185Y-139864630D01*
X144792200Y-140188980D01*
X144191091Y-140789041D01*
X143865372Y-141573459D01*
X143864630Y-142422815D01*
X143710000Y-142422815D01*
X143710000Y-119000000D01*
X145290000Y-119000000D01*
X145290000Y-136000000D01*
X145303642Y-136068584D01*
X145303642Y-136138513D01*
X145379762Y-136521196D01*
X145405466Y-136583251D01*
X145485776Y-136777138D01*
X145702549Y-137101561D01*
X145702550Y-137101562D01*
X145898438Y-137297451D01*
X146222862Y-137514223D01*
X146281955Y-137538700D01*
X146478804Y-137620238D01*
X146861486Y-137696358D01*
X147138513Y-137696358D01*
X147521196Y-137620238D01*
X147618153Y-137580077D01*
X147777138Y-137514224D01*
X148101561Y-137297451D01*
X148101562Y-137297450D01*
X148297451Y-137101562D01*
X148514223Y-136777138D01*
X148582087Y-136613299D01*
X148620238Y-136521196D01*
X148696358Y-136138514D01*
X148696358Y-136068584D01*
X148710000Y-136000000D01*
X148710000Y-119000000D01*
X148696358Y-118931416D01*
X148696358Y-118861486D01*
X148620238Y-118478804D01*
X148519209Y-118234900D01*
X148514223Y-118222862D01*
X148297451Y-117898438D01*
X148101562Y-117702550D01*
X148101561Y-117702549D01*
X147777138Y-117485776D01*
X147562756Y-117396977D01*
X147521196Y-117379762D01*
X147138513Y-117303642D01*
X147000000Y-117303642D01*
X146478804Y-117379762D01*
X146406632Y-117409657D01*
X146222862Y-117485777D01*
X145898438Y-117702549D01*
X145799760Y-117801228D01*
X145702549Y-117898439D01*
X145485776Y-118222862D01*
X145425483Y-118368424D01*
X145379762Y-118478804D01*
X145303642Y-118861487D01*
X145303642Y-118931416D01*
X145290000Y-119000000D01*
X143710000Y-119000000D01*
X143710000Y-113422815D01*
X143864630Y-113422815D01*
X144188980Y-114207800D01*
X144789041Y-114808909D01*
X145573459Y-115134628D01*
X146422815Y-115135370D01*
X147207800Y-114811020D01*
X147808909Y-114210959D01*
X147985471Y-113785750D01*
X157315000Y-113785750D01*
X157315000Y-114226310D01*
X157411673Y-114459699D01*
X157590302Y-114638327D01*
X157823691Y-114735000D01*
X158114250Y-114735000D01*
X158273000Y-114576250D01*
X158273000Y-113627000D01*
X158527000Y-113627000D01*
X158527000Y-114576250D01*
X158685750Y-114735000D01*
X158976309Y-114735000D01*
X159209698Y-114638327D01*
X159388327Y-114459699D01*
X159485000Y-114226310D01*
X159485000Y-113785750D01*
X159326250Y-113627000D01*
X158527000Y-113627000D01*
X158273000Y-113627000D01*
X157473750Y-113627000D01*
X157315000Y-113785750D01*
X147985471Y-113785750D01*
X148134628Y-113426541D01*
X148135198Y-112773690D01*
X157315000Y-112773690D01*
X157315000Y-113214250D01*
X157473750Y-113373000D01*
X158273000Y-113373000D01*
X158273000Y-112423750D01*
X158527000Y-112423750D01*
X158527000Y-113373000D01*
X159326250Y-113373000D01*
X159485000Y-113214250D01*
X159485000Y-112773690D01*
X159388327Y-112540301D01*
X159209698Y-112361673D01*
X158976309Y-112265000D01*
X158685750Y-112265000D01*
X158527000Y-112423750D01*
X158273000Y-112423750D01*
X158114250Y-112265000D01*
X157823691Y-112265000D01*
X157590302Y-112361673D01*
X157411673Y-112540301D01*
X157315000Y-112773690D01*
X148135198Y-112773690D01*
X148135370Y-112577185D01*
X147811020Y-111792200D01*
X147210959Y-111191091D01*
X146426541Y-110865372D01*
X145577185Y-110864630D01*
X144792200Y-111188980D01*
X144191091Y-111789041D01*
X143865372Y-112573459D01*
X143864630Y-113422815D01*
X143710000Y-113422815D01*
X143710000Y-111069930D01*
X143744926Y-110894345D01*
X143804774Y-110804775D01*
X143894345Y-110744926D01*
X144069930Y-110710000D01*
X191930070Y-110710000D01*
X192105655Y-110744926D01*
X192105655Y-110744926D01*
G37*
X192105655Y-110744926D02*
X192195225Y-110804774D01*
X192255074Y-110894345D01*
X192290000Y-111069930D01*
X192290000Y-127304821D01*
X192180724Y-127141277D01*
X191477865Y-126438419D01*
X191565072Y-126000000D01*
X191458732Y-125465391D01*
X191155900Y-125012172D01*
X191101922Y-124976105D01*
X191262135Y-124830328D01*
X191492220Y-124343070D01*
X191369720Y-124127000D01*
X190127000Y-124127000D01*
X190127000Y-124147000D01*
X189873000Y-124147000D01*
X189873000Y-124127000D01*
X189853000Y-124127000D01*
X189853000Y-123873000D01*
X189873000Y-123873000D01*
X189873000Y-122761251D01*
X190127000Y-122761251D01*
X190127000Y-123873000D01*
X191369720Y-123873000D01*
X191492220Y-123656930D01*
X191262135Y-123169672D01*
X190858812Y-122802689D01*
X190345752Y-122617986D01*
X190127000Y-122761251D01*
X189873000Y-122761251D01*
X189654248Y-122617986D01*
X189141188Y-122802689D01*
X188737865Y-123169672D01*
X188568272Y-123528825D01*
X185435300Y-120395854D01*
X185435300Y-118375600D01*
X185379351Y-118094328D01*
X185337486Y-118031672D01*
X185220023Y-117855876D01*
X185044123Y-117679977D01*
X184805672Y-117520649D01*
X184524400Y-117464700D01*
X182150000Y-117464700D01*
X181868728Y-117520649D01*
X181630277Y-117679977D01*
X181573600Y-117764800D01*
X180384792Y-117764800D01*
X180385079Y-117435429D01*
X180372252Y-117404386D01*
X180385000Y-117340300D01*
X180385000Y-117147440D01*
X180400000Y-117147440D01*
X180608850Y-117108142D01*
X180673691Y-117135000D01*
X181064250Y-117135000D01*
X181223000Y-116976250D01*
X181223000Y-116127000D01*
X181477000Y-116127000D01*
X181477000Y-116976250D01*
X181635750Y-117135000D01*
X182026309Y-117135000D01*
X182259698Y-117038327D01*
X182438327Y-116859699D01*
X182535000Y-116626310D01*
X182535000Y-116285750D01*
X182376250Y-116127000D01*
X181477000Y-116127000D01*
X181223000Y-116127000D01*
X181203000Y-116127000D01*
X181203000Y-115873000D01*
X181223000Y-115873000D01*
X181223000Y-115023750D01*
X181477000Y-115023750D01*
X181477000Y-115873000D01*
X182376250Y-115873000D01*
X182535000Y-115714250D01*
X182535000Y-115373690D01*
X182438327Y-115140301D01*
X182259698Y-114961673D01*
X182026309Y-114865000D01*
X181635750Y-114865000D01*
X181477000Y-115023750D01*
X181223000Y-115023750D01*
X181064250Y-114865000D01*
X180673691Y-114865000D01*
X180603993Y-114893870D01*
X180400000Y-114852560D01*
X179100000Y-114852560D01*
X178892658Y-114891574D01*
X178700000Y-114852560D01*
X177600000Y-114852560D01*
X177364683Y-114896838D01*
X177148559Y-115035910D01*
X177003569Y-115248110D01*
X176952560Y-115500000D01*
X176952560Y-116500000D01*
X176996838Y-116735317D01*
X177135910Y-116951441D01*
X177348110Y-117096431D01*
X177415000Y-117109977D01*
X177415000Y-117499900D01*
X177415004Y-117499921D01*
X177415001Y-117499937D01*
X177439202Y-117621572D01*
X177470949Y-117781172D01*
X177470959Y-117781187D01*
X177470963Y-117781206D01*
X177549304Y-117898438D01*
X177630277Y-118019623D01*
X177630293Y-118019633D01*
X177630303Y-118019649D01*
X178110627Y-118499926D01*
X176845554Y-119765000D01*
X169880800Y-119765000D01*
X169880800Y-115212933D01*
X169933687Y-115202982D01*
X170149811Y-115063910D01*
X170294801Y-114851710D01*
X170345810Y-114599820D01*
X170345810Y-113422815D01*
X187864630Y-113422815D01*
X188188980Y-114207800D01*
X188789041Y-114808909D01*
X189573459Y-115134628D01*
X190422815Y-115135370D01*
X191207800Y-114811020D01*
X191808909Y-114210959D01*
X192134628Y-113426541D01*
X192135370Y-112577185D01*
X191811020Y-111792200D01*
X191210959Y-111191091D01*
X190426541Y-110865372D01*
X189577185Y-110864630D01*
X188792200Y-111188980D01*
X188191091Y-111789041D01*
X187865372Y-112573459D01*
X187864630Y-113422815D01*
X170345810Y-113422815D01*
X170345810Y-112400180D01*
X170301532Y-112164863D01*
X170162460Y-111948739D01*
X169950260Y-111803749D01*
X169698370Y-111752740D01*
X168100710Y-111752740D01*
X167865393Y-111797018D01*
X167649269Y-111936090D01*
X167504279Y-112148290D01*
X167501289Y-112163056D01*
X167363380Y-111948739D01*
X167151180Y-111803749D01*
X166899290Y-111752740D01*
X165301630Y-111752740D01*
X165066313Y-111797018D01*
X164850189Y-111936090D01*
X164705199Y-112148290D01*
X164654190Y-112400180D01*
X164654190Y-114599820D01*
X164698468Y-114835137D01*
X164837540Y-115051261D01*
X165049740Y-115196251D01*
X165301630Y-115247260D01*
X165365500Y-115247260D01*
X165365500Y-115450200D01*
X165418023Y-115714250D01*
X165421449Y-115731472D01*
X165443852Y-115765000D01*
X162672038Y-115765000D01*
X162653162Y-115664683D01*
X162514090Y-115448559D01*
X162335000Y-115326192D01*
X162335000Y-114671192D01*
X162501441Y-114564090D01*
X162646431Y-114351890D01*
X162697440Y-114100000D01*
X162697440Y-112900000D01*
X162653162Y-112664683D01*
X162514090Y-112448559D01*
X162301890Y-112303569D01*
X162050000Y-112252560D01*
X161150000Y-112252560D01*
X160914683Y-112296838D01*
X160698559Y-112435910D01*
X160553569Y-112648110D01*
X160502560Y-112900000D01*
X160502560Y-114100000D01*
X160546838Y-114335317D01*
X160685910Y-114551441D01*
X160865000Y-114673808D01*
X160865000Y-115328808D01*
X160698559Y-115435910D01*
X160553569Y-115648110D01*
X160502560Y-115900000D01*
X160502560Y-117100000D01*
X160546838Y-117335317D01*
X160685910Y-117551441D01*
X160898110Y-117696431D01*
X161150000Y-117747440D01*
X162050000Y-117747440D01*
X162285317Y-117703162D01*
X162501441Y-117564090D01*
X162646431Y-117351890D01*
X162670102Y-117235000D01*
X165012527Y-117235000D01*
X165003569Y-117248110D01*
X164952560Y-117500000D01*
X164952560Y-118065300D01*
X163050000Y-118065300D01*
X162768728Y-118121249D01*
X162530276Y-118280577D01*
X162423911Y-118386942D01*
X162301890Y-118303569D01*
X162050000Y-118252560D01*
X161150000Y-118252560D01*
X160914683Y-118296838D01*
X160698559Y-118435910D01*
X160553569Y-118648110D01*
X160502560Y-118900000D01*
X160502560Y-120100000D01*
X160546838Y-120335317D01*
X160685910Y-120551441D01*
X160865000Y-120673808D01*
X160865000Y-121865000D01*
X160635750Y-121865000D01*
X160477000Y-122023750D01*
X160477000Y-122873000D01*
X160497000Y-122873000D01*
X160497000Y-123127000D01*
X160477000Y-123127000D01*
X160477000Y-123976250D01*
X160635750Y-124135000D01*
X160865000Y-124135000D01*
X160865000Y-125395253D01*
X159980277Y-126279977D01*
X159838351Y-126492385D01*
X159814683Y-126496838D01*
X159598559Y-126635910D01*
X159597440Y-126637548D01*
X159597440Y-126100000D01*
X159553162Y-125864683D01*
X159414090Y-125648559D01*
X159235000Y-125526192D01*
X159235000Y-124324700D01*
X159199740Y-124147440D01*
X159200000Y-124147440D01*
X159435317Y-124103162D01*
X159498568Y-124062461D01*
X159673691Y-124135000D01*
X160064250Y-124135000D01*
X160223000Y-123976250D01*
X160223000Y-123127000D01*
X160203000Y-123127000D01*
X160203000Y-122873000D01*
X160223000Y-122873000D01*
X160223000Y-122023750D01*
X160064250Y-121865000D01*
X159673691Y-121865000D01*
X159500459Y-121936755D01*
X159451890Y-121903569D01*
X159385000Y-121890023D01*
X159385000Y-121633600D01*
X159329051Y-121352328D01*
X159270701Y-121265001D01*
X159169724Y-121113877D01*
X158803287Y-120747440D01*
X158850000Y-120747440D01*
X159085317Y-120703162D01*
X159301441Y-120564090D01*
X159446431Y-120351890D01*
X159497440Y-120100000D01*
X159497440Y-118900000D01*
X159453162Y-118664683D01*
X159314090Y-118448559D01*
X159101890Y-118303569D01*
X158850000Y-118252560D01*
X157950000Y-118252560D01*
X157714683Y-118296838D01*
X157575528Y-118386382D01*
X156424146Y-117235000D01*
X157327962Y-117235000D01*
X157346838Y-117335317D01*
X157485910Y-117551441D01*
X157698110Y-117696431D01*
X157950000Y-117747440D01*
X158850000Y-117747440D01*
X159085317Y-117703162D01*
X159301441Y-117564090D01*
X159446431Y-117351890D01*
X159497440Y-117100000D01*
X159497440Y-115900000D01*
X159453162Y-115664683D01*
X159314090Y-115448559D01*
X159101890Y-115303569D01*
X158850000Y-115252560D01*
X157950000Y-115252560D01*
X157714683Y-115296838D01*
X157498559Y-115435910D01*
X157353569Y-115648110D01*
X157329898Y-115765000D01*
X151361700Y-115765000D01*
X151080428Y-115820949D01*
X150841977Y-115980276D01*
X149750077Y-117072177D01*
X149590749Y-117310628D01*
X149534800Y-117591900D01*
X149534800Y-129770100D01*
X149587751Y-130036300D01*
X149590749Y-130051372D01*
X149750077Y-130289823D01*
X152479977Y-133019724D01*
X152491704Y-133027560D01*
X151850000Y-133027560D01*
X151614683Y-133071838D01*
X151398559Y-133210910D01*
X151253569Y-133423110D01*
X151202560Y-133675000D01*
X151202560Y-136325000D01*
X151246838Y-136560317D01*
X151385910Y-136776441D01*
X151598110Y-136921431D01*
X151850000Y-136972440D01*
X154150000Y-136972440D01*
X154346348Y-136935494D01*
X157566646Y-140155793D01*
X157503569Y-140248110D01*
X157452560Y-140500000D01*
X157452560Y-141500000D01*
X157496838Y-141735317D01*
X157635910Y-141951441D01*
X157848110Y-142096431D01*
X158100000Y-142147440D01*
X159200000Y-142147440D01*
X159435317Y-142103162D01*
X159498568Y-142062461D01*
X159673691Y-142135000D01*
X160064250Y-142135000D01*
X160223000Y-141976250D01*
X160223000Y-141127000D01*
X160477000Y-141127000D01*
X160477000Y-141976250D01*
X160635750Y-142135000D01*
X161026309Y-142135000D01*
X161259698Y-142038327D01*
X161438327Y-141859699D01*
X161535000Y-141626310D01*
X161535000Y-141285750D01*
X161376250Y-141127000D01*
X160477000Y-141127000D01*
X160223000Y-141127000D01*
X160203000Y-141127000D01*
X160203000Y-140873000D01*
X160223000Y-140873000D01*
X160223000Y-140023750D01*
X160477000Y-140023750D01*
X160477000Y-140873000D01*
X161376250Y-140873000D01*
X161535000Y-140714250D01*
X161535000Y-140373690D01*
X161438327Y-140140301D01*
X161259698Y-139961673D01*
X161026309Y-139865000D01*
X160635750Y-139865000D01*
X160477000Y-140023750D01*
X160223000Y-140023750D01*
X160064250Y-139865000D01*
X159673691Y-139865000D01*
X159500459Y-139936755D01*
X159451890Y-139903569D01*
X159298347Y-139872476D01*
X159293104Y-139864630D01*
X159169723Y-139679976D01*
X159137187Y-139647440D01*
X159200000Y-139647440D01*
X159435317Y-139603162D01*
X159498568Y-139562461D01*
X159673691Y-139635000D01*
X160064250Y-139635000D01*
X160223000Y-139476250D01*
X160223000Y-138627000D01*
X160477000Y-138627000D01*
X160477000Y-139476250D01*
X160635750Y-139635000D01*
X161026309Y-139635000D01*
X161259698Y-139538327D01*
X161438327Y-139359699D01*
X161535000Y-139126310D01*
X161535000Y-138785750D01*
X161376250Y-138627000D01*
X160477000Y-138627000D01*
X160223000Y-138627000D01*
X160203000Y-138627000D01*
X160203000Y-138373000D01*
X160223000Y-138373000D01*
X160223000Y-137523750D01*
X160477000Y-137523750D01*
X160477000Y-138373000D01*
X161376250Y-138373000D01*
X161535000Y-138214250D01*
X161535000Y-137873690D01*
X161438327Y-137640301D01*
X161259698Y-137461673D01*
X161026309Y-137365000D01*
X160635750Y-137365000D01*
X160477000Y-137523750D01*
X160223000Y-137523750D01*
X160064250Y-137365000D01*
X159673691Y-137365000D01*
X159500459Y-137436755D01*
X159451890Y-137403569D01*
X159298347Y-137372476D01*
X159293218Y-137364800D01*
X159169723Y-137179976D01*
X159137187Y-137147440D01*
X159200000Y-137147440D01*
X159435317Y-137103162D01*
X159498568Y-137062461D01*
X159673691Y-137135000D01*
X160064250Y-137135000D01*
X160223000Y-136976250D01*
X160223000Y-136127000D01*
X160477000Y-136127000D01*
X160477000Y-136976250D01*
X160635750Y-137135000D01*
X161026309Y-137135000D01*
X161259698Y-137038327D01*
X161438327Y-136859699D01*
X161535000Y-136626310D01*
X161535000Y-136285750D01*
X161376250Y-136127000D01*
X160477000Y-136127000D01*
X160223000Y-136127000D01*
X160203000Y-136127000D01*
X160203000Y-135873000D01*
X160223000Y-135873000D01*
X160223000Y-135023750D01*
X160477000Y-135023750D01*
X160477000Y-135873000D01*
X161376250Y-135873000D01*
X161535000Y-135714250D01*
X161535000Y-135373690D01*
X161438327Y-135140301D01*
X161259698Y-134961673D01*
X161026309Y-134865000D01*
X160635750Y-134865000D01*
X160477000Y-135023750D01*
X160223000Y-135023750D01*
X160064250Y-134865000D01*
X159673691Y-134865000D01*
X159500459Y-134936755D01*
X159451890Y-134903569D01*
X159298347Y-134872476D01*
X159169723Y-134679977D01*
X159121028Y-134647440D01*
X159200000Y-134647440D01*
X159435317Y-134603162D01*
X159498568Y-134562461D01*
X159673691Y-134635000D01*
X160064250Y-134635000D01*
X160223000Y-134476250D01*
X160223000Y-133627000D01*
X160203000Y-133627000D01*
X160203000Y-133373000D01*
X160223000Y-133373000D01*
X160223000Y-133353000D01*
X160477000Y-133353000D01*
X160477000Y-133373000D01*
X160497000Y-133373000D01*
X160497000Y-133627000D01*
X160477000Y-133627000D01*
X160477000Y-134476250D01*
X160635750Y-134635000D01*
X161026309Y-134635000D01*
X161259698Y-134538327D01*
X161438327Y-134359699D01*
X161505114Y-134198461D01*
X163515300Y-136208647D01*
X163515300Y-138300000D01*
X163542094Y-138434699D01*
X163571249Y-138581272D01*
X163730577Y-138819723D01*
X165066646Y-140155793D01*
X165003569Y-140248110D01*
X164952560Y-140500000D01*
X164952560Y-141500000D01*
X164996838Y-141735317D01*
X165135910Y-141951441D01*
X165348110Y-142096431D01*
X165600000Y-142147440D01*
X166700000Y-142147440D01*
X166935317Y-142103162D01*
X166998568Y-142062461D01*
X167173691Y-142135000D01*
X167564250Y-142135000D01*
X167723000Y-141976250D01*
X167723000Y-141127000D01*
X167977000Y-141127000D01*
X167977000Y-141976250D01*
X168135750Y-142135000D01*
X168526309Y-142135000D01*
X168759698Y-142038327D01*
X168938327Y-141859699D01*
X169035000Y-141626310D01*
X169035000Y-141285750D01*
X168876250Y-141127000D01*
X167977000Y-141127000D01*
X167723000Y-141127000D01*
X167703000Y-141127000D01*
X167703000Y-140873000D01*
X167723000Y-140873000D01*
X167723000Y-140023750D01*
X167977000Y-140023750D01*
X167977000Y-140873000D01*
X168876250Y-140873000D01*
X169035000Y-140714250D01*
X169035000Y-140373690D01*
X168938327Y-140140301D01*
X168759698Y-139961673D01*
X168526309Y-139865000D01*
X168135750Y-139865000D01*
X167977000Y-140023750D01*
X167723000Y-140023750D01*
X167564250Y-139865000D01*
X167173691Y-139865000D01*
X167000459Y-139936755D01*
X166951890Y-139903569D01*
X166798347Y-139872476D01*
X166793352Y-139865000D01*
X166669724Y-139679977D01*
X166637187Y-139647440D01*
X166700000Y-139647440D01*
X166935317Y-139603162D01*
X166998568Y-139562461D01*
X167173691Y-139635000D01*
X167564250Y-139635000D01*
X167723000Y-139476250D01*
X167723000Y-138627000D01*
X167977000Y-138627000D01*
X167977000Y-139476250D01*
X168135750Y-139635000D01*
X168526309Y-139635000D01*
X168759698Y-139538327D01*
X168938327Y-139359699D01*
X169035000Y-139126310D01*
X169035000Y-138785750D01*
X168876250Y-138627000D01*
X167977000Y-138627000D01*
X167723000Y-138627000D01*
X167703000Y-138627000D01*
X167703000Y-138373000D01*
X167723000Y-138373000D01*
X167723000Y-137523750D01*
X167977000Y-137523750D01*
X167977000Y-138373000D01*
X168876250Y-138373000D01*
X169035000Y-138214250D01*
X169035000Y-137873690D01*
X168938327Y-137640301D01*
X168759698Y-137461673D01*
X168526309Y-137365000D01*
X168135750Y-137365000D01*
X167977000Y-137523750D01*
X167723000Y-137523750D01*
X167564250Y-137365000D01*
X167173691Y-137365000D01*
X167000459Y-137436755D01*
X166951890Y-137403569D01*
X166798347Y-137372476D01*
X166793218Y-137364800D01*
X166669724Y-137179977D01*
X166637187Y-137147440D01*
X166700000Y-137147440D01*
X166935317Y-137103162D01*
X166998568Y-137062461D01*
X167173691Y-137135000D01*
X167564250Y-137135000D01*
X167723000Y-136976250D01*
X167723000Y-136127000D01*
X167977000Y-136127000D01*
X167977000Y-136976250D01*
X168135750Y-137135000D01*
X168526309Y-137135000D01*
X168759698Y-137038327D01*
X168938327Y-136859699D01*
X169035000Y-136626310D01*
X169035000Y-136285750D01*
X168876250Y-136127000D01*
X167977000Y-136127000D01*
X167723000Y-136127000D01*
X167703000Y-136127000D01*
X167703000Y-135873000D01*
X167723000Y-135873000D01*
X167723000Y-135023750D01*
X167977000Y-135023750D01*
X167977000Y-135873000D01*
X168876250Y-135873000D01*
X169035000Y-135714250D01*
X169035000Y-135373690D01*
X168938327Y-135140301D01*
X168759698Y-134961673D01*
X168526309Y-134865000D01*
X168135750Y-134865000D01*
X167977000Y-135023750D01*
X167723000Y-135023750D01*
X167564250Y-134865000D01*
X167173691Y-134865000D01*
X167000459Y-134936755D01*
X166951890Y-134903569D01*
X166798347Y-134872476D01*
X166669723Y-134679977D01*
X166621028Y-134647440D01*
X166700000Y-134647440D01*
X166935317Y-134603162D01*
X166998568Y-134562461D01*
X167173691Y-134635000D01*
X167564250Y-134635000D01*
X167723000Y-134476250D01*
X167723000Y-133627000D01*
X167977000Y-133627000D01*
X167977000Y-134476250D01*
X168135750Y-134635000D01*
X168526309Y-134635000D01*
X168759698Y-134538327D01*
X168938327Y-134359699D01*
X169035000Y-134126310D01*
X169035000Y-133785750D01*
X168876250Y-133627000D01*
X167977000Y-133627000D01*
X167723000Y-133627000D01*
X167703000Y-133627000D01*
X167703000Y-133434700D01*
X172416400Y-133434700D01*
X172697672Y-133378751D01*
X172936123Y-133219423D01*
X176174098Y-129981449D01*
X176296754Y-130104319D01*
X176677023Y-130262220D01*
X176852560Y-130262373D01*
X176852560Y-130700000D01*
X176873669Y-130812184D01*
X175477677Y-132208177D01*
X175318349Y-132446628D01*
X175262400Y-132727900D01*
X175262400Y-140845700D01*
X175316729Y-141118828D01*
X175318349Y-141126972D01*
X175477677Y-141365423D01*
X176432377Y-142320124D01*
X176670828Y-142479451D01*
X176952100Y-142535400D01*
X178749700Y-142535400D01*
X179030972Y-142479451D01*
X179115733Y-142422815D01*
X187864630Y-142422815D01*
X188188980Y-143207800D01*
X188789041Y-143808909D01*
X189573459Y-144134628D01*
X190422815Y-144135370D01*
X191207800Y-143811020D01*
X191808909Y-143210959D01*
X192134628Y-142426541D01*
X192135370Y-141577185D01*
X191811020Y-140792200D01*
X191210959Y-140191091D01*
X190426541Y-139865372D01*
X189577185Y-139864630D01*
X188792200Y-140188980D01*
X188191091Y-140789041D01*
X187865372Y-141573459D01*
X187864630Y-142422815D01*
X179115733Y-142422815D01*
X179269423Y-142320123D01*
X179442106Y-142147440D01*
X179900000Y-142147440D01*
X180108850Y-142108142D01*
X180173691Y-142135000D01*
X180564250Y-142135000D01*
X180723000Y-141976250D01*
X180723000Y-141127000D01*
X180977000Y-141127000D01*
X180977000Y-141976250D01*
X181135750Y-142135000D01*
X181526309Y-142135000D01*
X181759698Y-142038327D01*
X181938327Y-141859699D01*
X182035000Y-141626310D01*
X182035000Y-141285750D01*
X181876250Y-141127000D01*
X180977000Y-141127000D01*
X180723000Y-141127000D01*
X180703000Y-141127000D01*
X180703000Y-140873000D01*
X180723000Y-140873000D01*
X180723000Y-140023750D01*
X180977000Y-140023750D01*
X180977000Y-140873000D01*
X181876250Y-140873000D01*
X182035000Y-140714250D01*
X182035000Y-140373690D01*
X181938327Y-140140301D01*
X181759698Y-139961673D01*
X181526309Y-139865000D01*
X181135750Y-139865000D01*
X180977000Y-140023750D01*
X180723000Y-140023750D01*
X180564250Y-139865000D01*
X180173691Y-139865000D01*
X180103993Y-139893870D01*
X179900000Y-139852560D01*
X178679346Y-139852560D01*
X178684820Y-139839377D01*
X178684987Y-139647440D01*
X179900000Y-139647440D01*
X180108850Y-139608142D01*
X180173691Y-139635000D01*
X180564250Y-139635000D01*
X180723000Y-139476250D01*
X180723000Y-138627000D01*
X180977000Y-138627000D01*
X180977000Y-139476250D01*
X181135750Y-139635000D01*
X181526309Y-139635000D01*
X181759698Y-139538327D01*
X181938327Y-139359699D01*
X182035000Y-139126310D01*
X182035000Y-138785750D01*
X181876250Y-138627000D01*
X180977000Y-138627000D01*
X180723000Y-138627000D01*
X180703000Y-138627000D01*
X180703000Y-138373000D01*
X180723000Y-138373000D01*
X180723000Y-137523750D01*
X180977000Y-137523750D01*
X180977000Y-138373000D01*
X181876250Y-138373000D01*
X182035000Y-138214250D01*
X182035000Y-137873690D01*
X181938327Y-137640301D01*
X181759698Y-137461673D01*
X181526309Y-137365000D01*
X181135750Y-137365000D01*
X180977000Y-137523750D01*
X180723000Y-137523750D01*
X180564250Y-137365000D01*
X180173691Y-137365000D01*
X180103993Y-137393870D01*
X179900000Y-137352560D01*
X179621028Y-137352560D01*
X179669723Y-137320023D01*
X179785039Y-137147440D01*
X179900000Y-137147440D01*
X180108850Y-137108142D01*
X180173691Y-137135000D01*
X180564250Y-137135000D01*
X180723000Y-136976250D01*
X180723000Y-136127000D01*
X180977000Y-136127000D01*
X180977000Y-136976250D01*
X181135750Y-137135000D01*
X181526309Y-137135000D01*
X181759698Y-137038327D01*
X181938327Y-136859699D01*
X182035000Y-136626310D01*
X182035000Y-136285750D01*
X181876250Y-136127000D01*
X180977000Y-136127000D01*
X180723000Y-136127000D01*
X180703000Y-136127000D01*
X180703000Y-135873000D01*
X180723000Y-135873000D01*
X180723000Y-135023750D01*
X180977000Y-135023750D01*
X180977000Y-135873000D01*
X181876250Y-135873000D01*
X182035000Y-135714250D01*
X182035000Y-135373690D01*
X181938327Y-135140301D01*
X181759698Y-134961673D01*
X181526309Y-134865000D01*
X181135750Y-134865000D01*
X180977000Y-135023750D01*
X180723000Y-135023750D01*
X180564250Y-134865000D01*
X180173691Y-134865000D01*
X180103993Y-134893870D01*
X180097244Y-134892503D01*
X181169723Y-133820024D01*
X181297269Y-133629138D01*
X181435317Y-133603162D01*
X181498568Y-133562461D01*
X181673691Y-133635000D01*
X182064250Y-133635000D01*
X182223000Y-133476250D01*
X182223000Y-132627000D01*
X182477000Y-132627000D01*
X182477000Y-133476250D01*
X182635750Y-133635000D01*
X183026309Y-133635000D01*
X183259698Y-133538327D01*
X183438327Y-133359699D01*
X183535000Y-133126310D01*
X183535000Y-132785750D01*
X183376250Y-132627000D01*
X182477000Y-132627000D01*
X182223000Y-132627000D01*
X182203000Y-132627000D01*
X182203000Y-132434700D01*
X190557400Y-132434700D01*
X190838672Y-132378751D01*
X191077123Y-132219423D01*
X192180723Y-131115824D01*
X192290000Y-130952279D01*
X192290000Y-143930070D01*
X192255074Y-144105655D01*
X192195225Y-144195226D01*
X192105655Y-144255074D01*
X191930070Y-144290000D01*
X144069930Y-144290000D01*
X143894345Y-144255074D01*
X143804774Y-144195225D01*
X143744926Y-144105655D01*
X143710000Y-143930070D01*
X143710000Y-142422815D01*
X143864630Y-142422815D01*
X144188980Y-143207800D01*
X144789041Y-143808909D01*
X145573459Y-144134628D01*
X146422815Y-144135370D01*
X147207800Y-143811020D01*
X147808909Y-143210959D01*
X148134628Y-142426541D01*
X148135370Y-141577185D01*
X147811020Y-140792200D01*
X147210959Y-140191091D01*
X146426541Y-139865372D01*
X145577185Y-139864630D01*
X144792200Y-140188980D01*
X144191091Y-140789041D01*
X143865372Y-141573459D01*
X143864630Y-142422815D01*
X143710000Y-142422815D01*
X143710000Y-119000000D01*
X145290000Y-119000000D01*
X145290000Y-136000000D01*
X145303642Y-136068584D01*
X145303642Y-136138513D01*
X145379762Y-136521196D01*
X145405466Y-136583251D01*
X145485776Y-136777138D01*
X145702549Y-137101561D01*
X145702550Y-137101562D01*
X145898438Y-137297451D01*
X146222862Y-137514223D01*
X146281955Y-137538700D01*
X146478804Y-137620238D01*
X146861486Y-137696358D01*
X147138513Y-137696358D01*
X147521196Y-137620238D01*
X147618153Y-137580077D01*
X147777138Y-137514224D01*
X148101561Y-137297451D01*
X148101562Y-137297450D01*
X148297451Y-137101562D01*
X148514223Y-136777138D01*
X148582087Y-136613299D01*
X148620238Y-136521196D01*
X148696358Y-136138514D01*
X148696358Y-136068584D01*
X148710000Y-136000000D01*
X148710000Y-119000000D01*
X148696358Y-118931416D01*
X148696358Y-118861486D01*
X148620238Y-118478804D01*
X148519209Y-118234900D01*
X148514223Y-118222862D01*
X148297451Y-117898438D01*
X148101562Y-117702550D01*
X148101561Y-117702549D01*
X147777138Y-117485776D01*
X147562756Y-117396977D01*
X147521196Y-117379762D01*
X147138513Y-117303642D01*
X147000000Y-117303642D01*
X146478804Y-117379762D01*
X146406632Y-117409657D01*
X146222862Y-117485777D01*
X145898438Y-117702549D01*
X145799760Y-117801228D01*
X145702549Y-117898439D01*
X145485776Y-118222862D01*
X145425483Y-118368424D01*
X145379762Y-118478804D01*
X145303642Y-118861487D01*
X145303642Y-118931416D01*
X145290000Y-119000000D01*
X143710000Y-119000000D01*
X143710000Y-113422815D01*
X143864630Y-113422815D01*
X144188980Y-114207800D01*
X144789041Y-114808909D01*
X145573459Y-115134628D01*
X146422815Y-115135370D01*
X147207800Y-114811020D01*
X147808909Y-114210959D01*
X147985471Y-113785750D01*
X157315000Y-113785750D01*
X157315000Y-114226310D01*
X157411673Y-114459699D01*
X157590302Y-114638327D01*
X157823691Y-114735000D01*
X158114250Y-114735000D01*
X158273000Y-114576250D01*
X158273000Y-113627000D01*
X158527000Y-113627000D01*
X158527000Y-114576250D01*
X158685750Y-114735000D01*
X158976309Y-114735000D01*
X159209698Y-114638327D01*
X159388327Y-114459699D01*
X159485000Y-114226310D01*
X159485000Y-113785750D01*
X159326250Y-113627000D01*
X158527000Y-113627000D01*
X158273000Y-113627000D01*
X157473750Y-113627000D01*
X157315000Y-113785750D01*
X147985471Y-113785750D01*
X148134628Y-113426541D01*
X148135198Y-112773690D01*
X157315000Y-112773690D01*
X157315000Y-113214250D01*
X157473750Y-113373000D01*
X158273000Y-113373000D01*
X158273000Y-112423750D01*
X158527000Y-112423750D01*
X158527000Y-113373000D01*
X159326250Y-113373000D01*
X159485000Y-113214250D01*
X159485000Y-112773690D01*
X159388327Y-112540301D01*
X159209698Y-112361673D01*
X158976309Y-112265000D01*
X158685750Y-112265000D01*
X158527000Y-112423750D01*
X158273000Y-112423750D01*
X158114250Y-112265000D01*
X157823691Y-112265000D01*
X157590302Y-112361673D01*
X157411673Y-112540301D01*
X157315000Y-112773690D01*
X148135198Y-112773690D01*
X148135370Y-112577185D01*
X147811020Y-111792200D01*
X147210959Y-111191091D01*
X146426541Y-110865372D01*
X145577185Y-110864630D01*
X144792200Y-111188980D01*
X144191091Y-111789041D01*
X143865372Y-112573459D01*
X143864630Y-113422815D01*
X143710000Y-113422815D01*
X143710000Y-111069930D01*
X143744926Y-110894345D01*
X143804774Y-110804775D01*
X143894345Y-110744926D01*
X144069930Y-110710000D01*
X191930070Y-110710000D01*
X192105655Y-110744926D01*
G36*
X165061673Y-119640301D02*
X164965000Y-119873690D01*
X164965000Y-120214250D01*
X165123750Y-120373000D01*
X166023000Y-120373000D01*
X166023000Y-120353000D01*
X166277000Y-120353000D01*
X166277000Y-120373000D01*
X166297000Y-120373000D01*
X166297000Y-120627000D01*
X166277000Y-120627000D01*
X166277000Y-121476250D01*
X166435750Y-121635000D01*
X166826309Y-121635000D01*
X166999541Y-121563245D01*
X167048110Y-121596431D01*
X167300000Y-121647440D01*
X168400000Y-121647440D01*
X168635317Y-121603162D01*
X168851441Y-121464090D01*
X168996431Y-121251890D01*
X168999851Y-121235000D01*
X175952560Y-121235000D01*
X175952560Y-122000000D01*
X175996838Y-122235317D01*
X176135910Y-122451441D01*
X176348110Y-122596431D01*
X176600000Y-122647440D01*
X177700000Y-122647440D01*
X177935317Y-122603162D01*
X177998478Y-122562519D01*
X178048110Y-122596431D01*
X178201653Y-122627524D01*
X178218382Y-122652560D01*
X178150000Y-122652560D01*
X178046329Y-122672067D01*
X177950000Y-122652560D01*
X177500000Y-122652560D01*
X177264683Y-122696838D01*
X177048559Y-122835910D01*
X176903569Y-123048110D01*
X176852560Y-123300000D01*
X176852560Y-123882993D01*
X176003858Y-124731696D01*
X175803329Y-124731521D01*
X175422785Y-124888758D01*
X175131381Y-125179654D01*
X174973480Y-125559923D01*
X174973121Y-125971671D01*
X175130358Y-126352215D01*
X175421254Y-126643619D01*
X175801523Y-126801520D01*
X176213271Y-126801879D01*
X176593815Y-126644642D01*
X176885219Y-126353746D01*
X176997683Y-126082901D01*
X177196754Y-126282319D01*
X177577023Y-126440220D01*
X177988771Y-126440579D01*
X178369315Y-126283342D01*
X178660719Y-125992446D01*
X178784888Y-125693412D01*
X178894723Y-125620023D01*
X179010039Y-125447440D01*
X179250000Y-125447440D01*
X179321323Y-125434020D01*
X179323690Y-125435000D01*
X179403750Y-125435000D01*
X179424062Y-125414688D01*
X179485317Y-125403162D01*
X179677227Y-125279671D01*
X179848110Y-125396431D01*
X179851159Y-125397049D01*
X179746780Y-125648423D01*
X179746421Y-126060171D01*
X179903658Y-126440715D01*
X180194554Y-126732119D01*
X180574823Y-126890020D01*
X180986571Y-126890379D01*
X181367115Y-126733142D01*
X181658519Y-126442246D01*
X181737439Y-126252185D01*
X186449953Y-130964700D01*
X183087678Y-130964700D01*
X183096431Y-130951890D01*
X183147440Y-130700000D01*
X183147440Y-129200000D01*
X183103162Y-128964683D01*
X182964090Y-128748559D01*
X182751890Y-128603569D01*
X182500000Y-128552560D01*
X182260040Y-128552560D01*
X182144723Y-128379976D01*
X180943823Y-127179077D01*
X180705372Y-127019749D01*
X180667280Y-127012172D01*
X180424100Y-126963800D01*
X175632900Y-126963800D01*
X175389720Y-127012172D01*
X175351628Y-127019749D01*
X175113176Y-127179077D01*
X172774254Y-129518000D01*
X169435400Y-129518000D01*
X169435400Y-125850500D01*
X169379451Y-125569228D01*
X169335579Y-125503569D01*
X169220124Y-125330777D01*
X167977002Y-124087656D01*
X167977002Y-123976252D01*
X168135750Y-124135000D01*
X168526309Y-124135000D01*
X168759698Y-124038327D01*
X168938327Y-123859699D01*
X169035000Y-123626310D01*
X169035000Y-123285750D01*
X168876250Y-123127000D01*
X167977000Y-123127000D01*
X167977000Y-123147000D01*
X167723000Y-123147000D01*
X167723000Y-123127000D01*
X167703000Y-123127000D01*
X167703000Y-122873000D01*
X167723000Y-122873000D01*
X167723000Y-122023750D01*
X167977000Y-122023750D01*
X167977000Y-122873000D01*
X168876250Y-122873000D01*
X169035000Y-122714250D01*
X169035000Y-122373690D01*
X168938327Y-122140301D01*
X168759698Y-121961673D01*
X168526309Y-121865000D01*
X168135750Y-121865000D01*
X167977000Y-122023750D01*
X167723000Y-122023750D01*
X167564250Y-121865000D01*
X167173691Y-121865000D01*
X167000459Y-121936755D01*
X166951890Y-121903569D01*
X166700000Y-121852560D01*
X165600000Y-121852560D01*
X165364683Y-121896838D01*
X165148559Y-122035910D01*
X165003569Y-122248110D01*
X164952560Y-122500000D01*
X164952560Y-123500000D01*
X164996838Y-123735317D01*
X165135910Y-123951441D01*
X165348110Y-124096431D01*
X165501653Y-124127524D01*
X165630277Y-124320023D01*
X165868728Y-124479351D01*
X166150000Y-124535300D01*
X166345754Y-124535300D01*
X167175453Y-125365000D01*
X167173691Y-125365000D01*
X167000459Y-125436755D01*
X166951890Y-125403569D01*
X166700000Y-125352560D01*
X165600000Y-125352560D01*
X165364683Y-125396838D01*
X165148559Y-125535910D01*
X165003569Y-125748110D01*
X164952560Y-126000000D01*
X164952560Y-127000000D01*
X164996838Y-127235317D01*
X165066805Y-127344049D01*
X164945454Y-127465400D01*
X161597440Y-127465400D01*
X161597440Y-127100000D01*
X161553162Y-126864683D01*
X161522349Y-126816798D01*
X162119724Y-126219423D01*
X162279051Y-125980972D01*
X162294529Y-125903158D01*
X162335000Y-125699700D01*
X162335000Y-120785750D01*
X164965000Y-120785750D01*
X164965000Y-121126310D01*
X165061673Y-121359699D01*
X165240302Y-121538327D01*
X165473691Y-121635000D01*
X165864250Y-121635000D01*
X166023000Y-121476250D01*
X166023000Y-120627000D01*
X165123750Y-120627000D01*
X164965000Y-120785750D01*
X162335000Y-120785750D01*
X162335000Y-120671192D01*
X162501441Y-120564090D01*
X162646431Y-120351890D01*
X162689234Y-120140522D01*
X162870023Y-120019723D01*
X163354447Y-119535300D01*
X165166675Y-119535300D01*
X165061673Y-119640301D01*
X165061673Y-119640301D01*
G37*
X165061673Y-119640301D02*
X164965000Y-119873690D01*
X164965000Y-120214250D01*
X165123750Y-120373000D01*
X166023000Y-120373000D01*
X166023000Y-120353000D01*
X166277000Y-120353000D01*
X166277000Y-120373000D01*
X166297000Y-120373000D01*
X166297000Y-120627000D01*
X166277000Y-120627000D01*
X166277000Y-121476250D01*
X166435750Y-121635000D01*
X166826309Y-121635000D01*
X166999541Y-121563245D01*
X167048110Y-121596431D01*
X167300000Y-121647440D01*
X168400000Y-121647440D01*
X168635317Y-121603162D01*
X168851441Y-121464090D01*
X168996431Y-121251890D01*
X168999851Y-121235000D01*
X175952560Y-121235000D01*
X175952560Y-122000000D01*
X175996838Y-122235317D01*
X176135910Y-122451441D01*
X176348110Y-122596431D01*
X176600000Y-122647440D01*
X177700000Y-122647440D01*
X177935317Y-122603162D01*
X177998478Y-122562519D01*
X178048110Y-122596431D01*
X178201653Y-122627524D01*
X178218382Y-122652560D01*
X178150000Y-122652560D01*
X178046329Y-122672067D01*
X177950000Y-122652560D01*
X177500000Y-122652560D01*
X177264683Y-122696838D01*
X177048559Y-122835910D01*
X176903569Y-123048110D01*
X176852560Y-123300000D01*
X176852560Y-123882993D01*
X176003858Y-124731696D01*
X175803329Y-124731521D01*
X175422785Y-124888758D01*
X175131381Y-125179654D01*
X174973480Y-125559923D01*
X174973121Y-125971671D01*
X175130358Y-126352215D01*
X175421254Y-126643619D01*
X175801523Y-126801520D01*
X176213271Y-126801879D01*
X176593815Y-126644642D01*
X176885219Y-126353746D01*
X176997683Y-126082901D01*
X177196754Y-126282319D01*
X177577023Y-126440220D01*
X177988771Y-126440579D01*
X178369315Y-126283342D01*
X178660719Y-125992446D01*
X178784888Y-125693412D01*
X178894723Y-125620023D01*
X179010039Y-125447440D01*
X179250000Y-125447440D01*
X179321323Y-125434020D01*
X179323690Y-125435000D01*
X179403750Y-125435000D01*
X179424062Y-125414688D01*
X179485317Y-125403162D01*
X179677227Y-125279671D01*
X179848110Y-125396431D01*
X179851159Y-125397049D01*
X179746780Y-125648423D01*
X179746421Y-126060171D01*
X179903658Y-126440715D01*
X180194554Y-126732119D01*
X180574823Y-126890020D01*
X180986571Y-126890379D01*
X181367115Y-126733142D01*
X181658519Y-126442246D01*
X181737439Y-126252185D01*
X186449953Y-130964700D01*
X183087678Y-130964700D01*
X183096431Y-130951890D01*
X183147440Y-130700000D01*
X183147440Y-129200000D01*
X183103162Y-128964683D01*
X182964090Y-128748559D01*
X182751890Y-128603569D01*
X182500000Y-128552560D01*
X182260040Y-128552560D01*
X182144723Y-128379976D01*
X180943823Y-127179077D01*
X180705372Y-127019749D01*
X180667280Y-127012172D01*
X180424100Y-126963800D01*
X175632900Y-126963800D01*
X175389720Y-127012172D01*
X175351628Y-127019749D01*
X175113176Y-127179077D01*
X172774254Y-129518000D01*
X169435400Y-129518000D01*
X169435400Y-125850500D01*
X169379451Y-125569228D01*
X169335579Y-125503569D01*
X169220124Y-125330777D01*
X167977002Y-124087656D01*
X167977002Y-123976252D01*
X168135750Y-124135000D01*
X168526309Y-124135000D01*
X168759698Y-124038327D01*
X168938327Y-123859699D01*
X169035000Y-123626310D01*
X169035000Y-123285750D01*
X168876250Y-123127000D01*
X167977000Y-123127000D01*
X167977000Y-123147000D01*
X167723000Y-123147000D01*
X167723000Y-123127000D01*
X167703000Y-123127000D01*
X167703000Y-122873000D01*
X167723000Y-122873000D01*
X167723000Y-122023750D01*
X167977000Y-122023750D01*
X167977000Y-122873000D01*
X168876250Y-122873000D01*
X169035000Y-122714250D01*
X169035000Y-122373690D01*
X168938327Y-122140301D01*
X168759698Y-121961673D01*
X168526309Y-121865000D01*
X168135750Y-121865000D01*
X167977000Y-122023750D01*
X167723000Y-122023750D01*
X167564250Y-121865000D01*
X167173691Y-121865000D01*
X167000459Y-121936755D01*
X166951890Y-121903569D01*
X166700000Y-121852560D01*
X165600000Y-121852560D01*
X165364683Y-121896838D01*
X165148559Y-122035910D01*
X165003569Y-122248110D01*
X164952560Y-122500000D01*
X164952560Y-123500000D01*
X164996838Y-123735317D01*
X165135910Y-123951441D01*
X165348110Y-124096431D01*
X165501653Y-124127524D01*
X165630277Y-124320023D01*
X165868728Y-124479351D01*
X166150000Y-124535300D01*
X166345754Y-124535300D01*
X167175453Y-125365000D01*
X167173691Y-125365000D01*
X167000459Y-125436755D01*
X166951890Y-125403569D01*
X166700000Y-125352560D01*
X165600000Y-125352560D01*
X165364683Y-125396838D01*
X165148559Y-125535910D01*
X165003569Y-125748110D01*
X164952560Y-126000000D01*
X164952560Y-127000000D01*
X164996838Y-127235317D01*
X165066805Y-127344049D01*
X164945454Y-127465400D01*
X161597440Y-127465400D01*
X161597440Y-127100000D01*
X161553162Y-126864683D01*
X161522349Y-126816798D01*
X162119724Y-126219423D01*
X162279051Y-125980972D01*
X162294529Y-125903158D01*
X162335000Y-125699700D01*
X162335000Y-120785750D01*
X164965000Y-120785750D01*
X164965000Y-121126310D01*
X165061673Y-121359699D01*
X165240302Y-121538327D01*
X165473691Y-121635000D01*
X165864250Y-121635000D01*
X166023000Y-121476250D01*
X166023000Y-120627000D01*
X165123750Y-120627000D01*
X164965000Y-120785750D01*
X162335000Y-120785750D01*
X162335000Y-120671192D01*
X162501441Y-120564090D01*
X162646431Y-120351890D01*
X162689234Y-120140522D01*
X162870023Y-120019723D01*
X163354447Y-119535300D01*
X165166675Y-119535300D01*
X165061673Y-119640301D01*
G36*
X167965400Y-129071000D02*
X167703000Y-129071000D01*
X167703000Y-128873000D01*
X167723000Y-128873000D01*
X167723000Y-128023750D01*
X167564250Y-127865000D01*
X167173691Y-127865000D01*
X167000459Y-127936755D01*
X166951890Y-127903569D01*
X166700000Y-127852560D01*
X166637187Y-127852560D01*
X166669724Y-127820023D01*
X166797269Y-127629138D01*
X166935317Y-127603162D01*
X166998568Y-127562461D01*
X167173691Y-127635000D01*
X167564250Y-127635000D01*
X167723000Y-127476250D01*
X167723000Y-126627000D01*
X167703000Y-126627000D01*
X167703000Y-126373000D01*
X167723000Y-126373000D01*
X167723000Y-126353000D01*
X167965400Y-126353000D01*
X167965400Y-129071000D01*
X167965400Y-129071000D01*
G37*
X167965400Y-129071000D02*
X167703000Y-129071000D01*
X167703000Y-128873000D01*
X167723000Y-128873000D01*
X167723000Y-128023750D01*
X167564250Y-127865000D01*
X167173691Y-127865000D01*
X167000459Y-127936755D01*
X166951890Y-127903569D01*
X166700000Y-127852560D01*
X166637187Y-127852560D01*
X166669724Y-127820023D01*
X166797269Y-127629138D01*
X166935317Y-127603162D01*
X166998568Y-127562461D01*
X167173691Y-127635000D01*
X167564250Y-127635000D01*
X167723000Y-127476250D01*
X167723000Y-126627000D01*
X167703000Y-126627000D01*
X167703000Y-126373000D01*
X167723000Y-126373000D01*
X167723000Y-126353000D01*
X167965400Y-126353000D01*
X167965400Y-129071000D01*
G36*
X167636620Y-115051261D02*
X167848820Y-115196251D01*
X168100710Y-115247260D01*
X168264474Y-115247260D01*
X168379777Y-115419823D01*
X168410800Y-115450846D01*
X168410800Y-116741452D01*
X168369724Y-116679977D01*
X166931033Y-115241287D01*
X167134607Y-115202982D01*
X167350731Y-115063910D01*
X167495721Y-114851710D01*
X167498711Y-114836944D01*
X167636620Y-115051261D01*
X167636620Y-115051261D01*
G37*
X167636620Y-115051261D02*
X167848820Y-115196251D01*
X168100710Y-115247260D01*
X168264474Y-115247260D01*
X168379777Y-115419823D01*
X168410800Y-115450846D01*
X168410800Y-116741452D01*
X168369724Y-116679977D01*
X166931033Y-115241287D01*
X167134607Y-115202982D01*
X167350731Y-115063910D01*
X167495721Y-114851710D01*
X167498711Y-114836944D01*
X167636620Y-115051261D01*
M02*
