M48
;DRILL file {KiCad 4.0.1-stable} date 03/25/18 14:57:38
;FORMAT={-:-/ absolute / metric / decimal}
FMAT,2
METRIC,TZ
T1C0.400
T2C0.762
T3C3.000
%
G90
G05
M71
T1
X151.75Y-114.
X152.25Y-139.25
X152.296Y-125.031
X152.526Y-123.519
X152.672Y-128.554
X152.693Y-126.781
X156.713Y-128.07
X162.5Y-137.25
X163.5Y-121.75
X163.75Y-114.5
X172.25Y-128.25
X172.75Y-135.75
X173.Y-123.
X174.Y-119.
X176.008Y-125.767
X176.884Y-129.227
X177.65Y-139.633
X177.784Y-125.405
X179.35Y-117.64
X180.782Y-125.855
X181.Y-113.
X184.Y-129.75
X186.25Y-136.
T2
X190.Y-124.
X190.Y-126.
X190.Y-128.
X190.Y-130.
T3
X146.Y-113.
X146.Y-142.
X190.Y-113.
X190.Y-142.
T0
M30
