G04 #@! TF.FileFunction,Copper,L1,Top,Signal*
%FSLAX46Y46*%
G04 Gerber Fmt 4.6, Leading zero omitted, Abs format (unit mm)*
G04 Created by KiCad (PCBNEW 4.0.1-stable) date 2018/04/18 7:14:41*
%MOMM*%
G01*
G04 APERTURE LIST*
%ADD10C,0.050000*%
%ADD11O,1.800000X1.524000*%
%ADD12C,0.800000*%
%ADD13C,0.200000*%
%ADD14C,0.254000*%
G04 APERTURE END LIST*
D10*
D11*
X190000000Y-130000000D03*
X190000000Y-128000000D03*
X190000000Y-126000000D03*
X190000000Y-124000000D03*
D12*
X177889500Y-134625700D03*
X177650000Y-139641100D03*
X153000000Y-139000000D03*
X162000000Y-114000000D03*
X153000000Y-114000000D03*
X166000000Y-121000000D03*
X171000000Y-129000000D03*
X174000000Y-133000000D03*
X184000000Y-140000000D03*
X185000000Y-116000000D03*
X156152700Y-130347000D03*
X166999700Y-140700000D03*
X158943500Y-123105300D03*
X166986000Y-123105300D03*
X156194500Y-126089500D03*
X176958500Y-125866800D03*
X156177900Y-125000000D03*
X178147500Y-125698900D03*
X180062100Y-125956800D03*
X156196500Y-127911700D03*
X160458200Y-127777800D03*
X176339100Y-129132500D03*
D13*
X190000000Y-126000000D02*
X188799700Y-126000000D01*
X177889500Y-139401600D02*
X177889500Y-134625700D01*
X177650000Y-139641100D02*
X177889500Y-139401600D01*
X180174000Y-134625700D02*
X177889500Y-134625700D01*
X188799700Y-126000000D02*
X180174000Y-134625700D01*
X153000000Y-114000000D02*
X162000000Y-114000000D01*
X166505700Y-140700000D02*
X166999700Y-140700000D01*
X156152700Y-130347000D02*
X166505700Y-140700000D01*
X158943500Y-123105300D02*
X166986000Y-123105300D01*
X176735800Y-126089500D02*
X156194500Y-126089500D01*
X176958500Y-125866800D02*
X176735800Y-126089500D01*
X156177900Y-125000100D02*
X156177900Y-125000000D01*
X177448700Y-125000100D02*
X156177900Y-125000100D01*
X178147500Y-125698900D02*
X177448700Y-125000100D01*
X179448000Y-126570900D02*
X180062100Y-125956800D01*
X157537300Y-126570900D02*
X179448000Y-126570900D01*
X156196500Y-127911700D02*
X157537300Y-126570900D01*
X174984400Y-127777800D02*
X176339100Y-129132500D01*
X160458200Y-127777800D02*
X174984400Y-127777800D01*
D14*
G36*
X192105655Y-110744926D02*
X192195225Y-110804774D01*
X192255074Y-110894345D01*
X192290000Y-111069930D01*
X192290000Y-143930070D01*
X192255074Y-144105655D01*
X192195225Y-144195226D01*
X192105655Y-144255074D01*
X191930070Y-144290000D01*
X144069930Y-144290000D01*
X143894345Y-144255074D01*
X143804774Y-144195225D01*
X143744926Y-144105655D01*
X143710000Y-143930070D01*
X143710000Y-142422815D01*
X143864630Y-142422815D01*
X144188980Y-143207800D01*
X144789041Y-143808909D01*
X145573459Y-144134628D01*
X146422815Y-144135370D01*
X147207800Y-143811020D01*
X147808909Y-143210959D01*
X148134628Y-142426541D01*
X148134631Y-142422815D01*
X187864630Y-142422815D01*
X188188980Y-143207800D01*
X188789041Y-143808909D01*
X189573459Y-144134628D01*
X190422815Y-144135370D01*
X191207800Y-143811020D01*
X191808909Y-143210959D01*
X192134628Y-142426541D01*
X192135370Y-141577185D01*
X191811020Y-140792200D01*
X191210959Y-140191091D01*
X190426541Y-139865372D01*
X189577185Y-139864630D01*
X188792200Y-140188980D01*
X188191091Y-140789041D01*
X187865372Y-141573459D01*
X187864630Y-142422815D01*
X148134631Y-142422815D01*
X148135370Y-141577185D01*
X147811020Y-140792200D01*
X147210959Y-140191091D01*
X146426541Y-139865372D01*
X145577185Y-139864630D01*
X144792200Y-140188980D01*
X144191091Y-140789041D01*
X143865372Y-141573459D01*
X143864630Y-142422815D01*
X143710000Y-142422815D01*
X143710000Y-119000000D01*
X145290000Y-119000000D01*
X145290000Y-136000000D01*
X145303642Y-136068584D01*
X145303642Y-136138513D01*
X145379762Y-136521196D01*
X145399395Y-136568593D01*
X145485776Y-136777138D01*
X145702549Y-137101561D01*
X145702550Y-137101562D01*
X145898438Y-137297451D01*
X146222862Y-137514223D01*
X146328877Y-137558136D01*
X146478804Y-137620238D01*
X146861486Y-137696358D01*
X147138513Y-137696358D01*
X147521196Y-137620238D01*
X147596160Y-137589187D01*
X147777138Y-137514224D01*
X148101561Y-137297451D01*
X148101562Y-137297450D01*
X148297451Y-137101562D01*
X148514223Y-136777138D01*
X148564419Y-136655954D01*
X148620238Y-136521196D01*
X148696358Y-136138514D01*
X148696358Y-136068584D01*
X148710000Y-136000000D01*
X148710000Y-130551971D01*
X155117521Y-130551971D01*
X155274758Y-130932515D01*
X155565654Y-131223919D01*
X155945923Y-131381820D01*
X156148250Y-131381996D01*
X165985977Y-141219723D01*
X166196508Y-141360395D01*
X166412654Y-141576919D01*
X166792923Y-141734820D01*
X167204671Y-141735179D01*
X167585215Y-141577942D01*
X167876619Y-141287046D01*
X168034520Y-140906777D01*
X168034879Y-140495029D01*
X167877642Y-140114485D01*
X167609696Y-139846071D01*
X176614821Y-139846071D01*
X176772058Y-140226615D01*
X177062954Y-140518019D01*
X177443223Y-140675920D01*
X177854971Y-140676279D01*
X178235515Y-140519042D01*
X178526919Y-140228146D01*
X178684820Y-139847877D01*
X178685179Y-139436129D01*
X178624500Y-139289274D01*
X178624500Y-135360700D01*
X180174000Y-135360700D01*
X180455272Y-135304751D01*
X180693723Y-135145423D01*
X188848427Y-126990720D01*
X188862317Y-127000000D01*
X188844100Y-127012172D01*
X188541268Y-127465391D01*
X188434928Y-128000000D01*
X188541268Y-128534609D01*
X188844100Y-128987828D01*
X188862317Y-129000000D01*
X188844100Y-129012172D01*
X188541268Y-129465391D01*
X188434928Y-130000000D01*
X188541268Y-130534609D01*
X188844100Y-130987828D01*
X189297319Y-131290660D01*
X189831928Y-131397000D01*
X190168072Y-131397000D01*
X190702681Y-131290660D01*
X191155900Y-130987828D01*
X191458732Y-130534609D01*
X191565072Y-130000000D01*
X191458732Y-129465391D01*
X191155900Y-129012172D01*
X191137683Y-129000000D01*
X191155900Y-128987828D01*
X191458732Y-128534609D01*
X191565072Y-128000000D01*
X191458732Y-127465391D01*
X191155900Y-127012172D01*
X191137683Y-127000000D01*
X191155900Y-126987828D01*
X191458732Y-126534609D01*
X191565072Y-126000000D01*
X191458732Y-125465391D01*
X191155900Y-125012172D01*
X191101922Y-124976105D01*
X191262135Y-124830328D01*
X191492220Y-124343070D01*
X191369720Y-124127000D01*
X190127000Y-124127000D01*
X190127000Y-124147000D01*
X189873000Y-124147000D01*
X189873000Y-124127000D01*
X188630280Y-124127000D01*
X188507780Y-124343070D01*
X188737865Y-124830328D01*
X188898078Y-124976105D01*
X188844100Y-125012172D01*
X188656076Y-125293569D01*
X188518428Y-125320949D01*
X188279977Y-125480276D01*
X179869554Y-133890700D01*
X178618218Y-133890700D01*
X178476546Y-133748781D01*
X178096277Y-133590880D01*
X177684529Y-133590521D01*
X177303985Y-133747758D01*
X177012581Y-134038654D01*
X176854680Y-134418923D01*
X176854321Y-134830671D01*
X177011558Y-135211215D01*
X177154500Y-135354407D01*
X177154500Y-138725965D01*
X177064485Y-138763158D01*
X176773081Y-139054054D01*
X176615180Y-139434323D01*
X176614821Y-139846071D01*
X167609696Y-139846071D01*
X167586746Y-139823081D01*
X167206477Y-139665180D01*
X166794729Y-139664821D01*
X166593226Y-139748080D01*
X157187704Y-130342558D01*
X157187879Y-130142029D01*
X157030642Y-129761485D01*
X156739746Y-129470081D01*
X156359477Y-129312180D01*
X155947729Y-129311821D01*
X155567185Y-129469058D01*
X155275781Y-129759954D01*
X155117880Y-130140223D01*
X155117521Y-130551971D01*
X148710000Y-130551971D01*
X148710000Y-125204971D01*
X155142721Y-125204971D01*
X155291545Y-125565155D01*
X155159680Y-125882723D01*
X155159321Y-126294471D01*
X155316558Y-126675015D01*
X155607454Y-126966419D01*
X155690501Y-127000903D01*
X155610985Y-127033758D01*
X155319581Y-127324654D01*
X155161680Y-127704923D01*
X155161321Y-128116671D01*
X155318558Y-128497215D01*
X155609454Y-128788619D01*
X155989723Y-128946520D01*
X156401471Y-128946879D01*
X156782015Y-128789642D01*
X157073419Y-128498746D01*
X157231320Y-128118477D01*
X157231496Y-127916150D01*
X157841747Y-127305900D01*
X159533468Y-127305900D01*
X159423380Y-127571023D01*
X159423021Y-127982771D01*
X159580258Y-128363315D01*
X159871154Y-128654719D01*
X160251423Y-128812620D01*
X160663171Y-128812979D01*
X161043715Y-128655742D01*
X161186907Y-128512800D01*
X174679954Y-128512800D01*
X175304096Y-129136942D01*
X175303921Y-129337471D01*
X175461158Y-129718015D01*
X175752054Y-130009419D01*
X176132323Y-130167320D01*
X176544071Y-130167679D01*
X176924615Y-130010442D01*
X177216019Y-129719546D01*
X177373920Y-129339277D01*
X177374279Y-128927529D01*
X177217042Y-128546985D01*
X176926146Y-128255581D01*
X176545877Y-128097680D01*
X176343550Y-128097504D01*
X175551946Y-127305900D01*
X179448000Y-127305900D01*
X179729272Y-127249951D01*
X179967723Y-127090623D01*
X180066542Y-126991804D01*
X180267071Y-126991979D01*
X180647615Y-126834742D01*
X180939019Y-126543846D01*
X181096920Y-126163577D01*
X181097279Y-125751829D01*
X180940042Y-125371285D01*
X180649146Y-125079881D01*
X180268877Y-124921980D01*
X179857129Y-124921621D01*
X179476585Y-125078858D01*
X179185181Y-125369754D01*
X179158210Y-125434708D01*
X179025442Y-125113385D01*
X178734546Y-124821981D01*
X178354277Y-124664080D01*
X178151950Y-124663904D01*
X177968423Y-124480377D01*
X177729972Y-124321049D01*
X177729469Y-124320949D01*
X177448700Y-124265100D01*
X156906717Y-124265100D01*
X156764946Y-124123081D01*
X156384677Y-123965180D01*
X155972929Y-123964821D01*
X155592385Y-124122058D01*
X155300981Y-124412954D01*
X155143080Y-124793223D01*
X155142721Y-125204971D01*
X148710000Y-125204971D01*
X148710000Y-123310271D01*
X157908321Y-123310271D01*
X158065558Y-123690815D01*
X158356454Y-123982219D01*
X158736723Y-124140120D01*
X159148471Y-124140479D01*
X159529015Y-123983242D01*
X159672207Y-123840300D01*
X166257282Y-123840300D01*
X166398954Y-123982219D01*
X166779223Y-124140120D01*
X167190971Y-124140479D01*
X167571515Y-123983242D01*
X167862919Y-123692346D01*
X167877624Y-123656930D01*
X188507780Y-123656930D01*
X188630280Y-123873000D01*
X189873000Y-123873000D01*
X189873000Y-122761251D01*
X190127000Y-122761251D01*
X190127000Y-123873000D01*
X191369720Y-123873000D01*
X191492220Y-123656930D01*
X191262135Y-123169672D01*
X190858812Y-122802689D01*
X190345752Y-122617986D01*
X190127000Y-122761251D01*
X189873000Y-122761251D01*
X189654248Y-122617986D01*
X189141188Y-122802689D01*
X188737865Y-123169672D01*
X188507780Y-123656930D01*
X167877624Y-123656930D01*
X168020820Y-123312077D01*
X168021179Y-122900329D01*
X167863942Y-122519785D01*
X167573046Y-122228381D01*
X167192777Y-122070480D01*
X166781029Y-122070121D01*
X166400485Y-122227358D01*
X166257293Y-122370300D01*
X159672218Y-122370300D01*
X159530546Y-122228381D01*
X159150277Y-122070480D01*
X158738529Y-122070121D01*
X158357985Y-122227358D01*
X158066581Y-122518254D01*
X157908680Y-122898523D01*
X157908321Y-123310271D01*
X148710000Y-123310271D01*
X148710000Y-119000000D01*
X148696358Y-118931416D01*
X148696358Y-118861486D01*
X148620238Y-118478804D01*
X148514223Y-118222863D01*
X148514223Y-118222862D01*
X148297451Y-117898438D01*
X148101562Y-117702550D01*
X148101561Y-117702549D01*
X147777138Y-117485776D01*
X147593368Y-117409657D01*
X147521196Y-117379762D01*
X147138513Y-117303642D01*
X147000000Y-117303642D01*
X146478804Y-117379762D01*
X146406632Y-117409657D01*
X146222862Y-117485777D01*
X145898438Y-117702549D01*
X145739501Y-117861487D01*
X145702549Y-117898439D01*
X145485776Y-118222862D01*
X145435581Y-118344046D01*
X145379762Y-118478804D01*
X145303642Y-118861487D01*
X145303642Y-118931416D01*
X145290000Y-119000000D01*
X143710000Y-119000000D01*
X143710000Y-113422815D01*
X143864630Y-113422815D01*
X144188980Y-114207800D01*
X144789041Y-114808909D01*
X145573459Y-115134628D01*
X146422815Y-115135370D01*
X147207800Y-114811020D01*
X147808909Y-114210959D01*
X148134628Y-113426541D01*
X148134631Y-113422815D01*
X187864630Y-113422815D01*
X188188980Y-114207800D01*
X188789041Y-114808909D01*
X189573459Y-115134628D01*
X190422815Y-115135370D01*
X191207800Y-114811020D01*
X191808909Y-114210959D01*
X192134628Y-113426541D01*
X192135370Y-112577185D01*
X191811020Y-111792200D01*
X191210959Y-111191091D01*
X190426541Y-110865372D01*
X189577185Y-110864630D01*
X188792200Y-111188980D01*
X188191091Y-111789041D01*
X187865372Y-112573459D01*
X187864630Y-113422815D01*
X148134631Y-113422815D01*
X148135370Y-112577185D01*
X147811020Y-111792200D01*
X147210959Y-111191091D01*
X146426541Y-110865372D01*
X145577185Y-110864630D01*
X144792200Y-111188980D01*
X144191091Y-111789041D01*
X143865372Y-112573459D01*
X143864630Y-113422815D01*
X143710000Y-113422815D01*
X143710000Y-111069930D01*
X143744926Y-110894345D01*
X143804774Y-110804775D01*
X143894345Y-110744926D01*
X144069930Y-110710000D01*
X191930070Y-110710000D01*
X192105655Y-110744926D01*
X192105655Y-110744926D01*
G37*
X192105655Y-110744926D02*
X192195225Y-110804774D01*
X192255074Y-110894345D01*
X192290000Y-111069930D01*
X192290000Y-143930070D01*
X192255074Y-144105655D01*
X192195225Y-144195226D01*
X192105655Y-144255074D01*
X191930070Y-144290000D01*
X144069930Y-144290000D01*
X143894345Y-144255074D01*
X143804774Y-144195225D01*
X143744926Y-144105655D01*
X143710000Y-143930070D01*
X143710000Y-142422815D01*
X143864630Y-142422815D01*
X144188980Y-143207800D01*
X144789041Y-143808909D01*
X145573459Y-144134628D01*
X146422815Y-144135370D01*
X147207800Y-143811020D01*
X147808909Y-143210959D01*
X148134628Y-142426541D01*
X148134631Y-142422815D01*
X187864630Y-142422815D01*
X188188980Y-143207800D01*
X188789041Y-143808909D01*
X189573459Y-144134628D01*
X190422815Y-144135370D01*
X191207800Y-143811020D01*
X191808909Y-143210959D01*
X192134628Y-142426541D01*
X192135370Y-141577185D01*
X191811020Y-140792200D01*
X191210959Y-140191091D01*
X190426541Y-139865372D01*
X189577185Y-139864630D01*
X188792200Y-140188980D01*
X188191091Y-140789041D01*
X187865372Y-141573459D01*
X187864630Y-142422815D01*
X148134631Y-142422815D01*
X148135370Y-141577185D01*
X147811020Y-140792200D01*
X147210959Y-140191091D01*
X146426541Y-139865372D01*
X145577185Y-139864630D01*
X144792200Y-140188980D01*
X144191091Y-140789041D01*
X143865372Y-141573459D01*
X143864630Y-142422815D01*
X143710000Y-142422815D01*
X143710000Y-119000000D01*
X145290000Y-119000000D01*
X145290000Y-136000000D01*
X145303642Y-136068584D01*
X145303642Y-136138513D01*
X145379762Y-136521196D01*
X145399395Y-136568593D01*
X145485776Y-136777138D01*
X145702549Y-137101561D01*
X145702550Y-137101562D01*
X145898438Y-137297451D01*
X146222862Y-137514223D01*
X146328877Y-137558136D01*
X146478804Y-137620238D01*
X146861486Y-137696358D01*
X147138513Y-137696358D01*
X147521196Y-137620238D01*
X147596160Y-137589187D01*
X147777138Y-137514224D01*
X148101561Y-137297451D01*
X148101562Y-137297450D01*
X148297451Y-137101562D01*
X148514223Y-136777138D01*
X148564419Y-136655954D01*
X148620238Y-136521196D01*
X148696358Y-136138514D01*
X148696358Y-136068584D01*
X148710000Y-136000000D01*
X148710000Y-130551971D01*
X155117521Y-130551971D01*
X155274758Y-130932515D01*
X155565654Y-131223919D01*
X155945923Y-131381820D01*
X156148250Y-131381996D01*
X165985977Y-141219723D01*
X166196508Y-141360395D01*
X166412654Y-141576919D01*
X166792923Y-141734820D01*
X167204671Y-141735179D01*
X167585215Y-141577942D01*
X167876619Y-141287046D01*
X168034520Y-140906777D01*
X168034879Y-140495029D01*
X167877642Y-140114485D01*
X167609696Y-139846071D01*
X176614821Y-139846071D01*
X176772058Y-140226615D01*
X177062954Y-140518019D01*
X177443223Y-140675920D01*
X177854971Y-140676279D01*
X178235515Y-140519042D01*
X178526919Y-140228146D01*
X178684820Y-139847877D01*
X178685179Y-139436129D01*
X178624500Y-139289274D01*
X178624500Y-135360700D01*
X180174000Y-135360700D01*
X180455272Y-135304751D01*
X180693723Y-135145423D01*
X188848427Y-126990720D01*
X188862317Y-127000000D01*
X188844100Y-127012172D01*
X188541268Y-127465391D01*
X188434928Y-128000000D01*
X188541268Y-128534609D01*
X188844100Y-128987828D01*
X188862317Y-129000000D01*
X188844100Y-129012172D01*
X188541268Y-129465391D01*
X188434928Y-130000000D01*
X188541268Y-130534609D01*
X188844100Y-130987828D01*
X189297319Y-131290660D01*
X189831928Y-131397000D01*
X190168072Y-131397000D01*
X190702681Y-131290660D01*
X191155900Y-130987828D01*
X191458732Y-130534609D01*
X191565072Y-130000000D01*
X191458732Y-129465391D01*
X191155900Y-129012172D01*
X191137683Y-129000000D01*
X191155900Y-128987828D01*
X191458732Y-128534609D01*
X191565072Y-128000000D01*
X191458732Y-127465391D01*
X191155900Y-127012172D01*
X191137683Y-127000000D01*
X191155900Y-126987828D01*
X191458732Y-126534609D01*
X191565072Y-126000000D01*
X191458732Y-125465391D01*
X191155900Y-125012172D01*
X191101922Y-124976105D01*
X191262135Y-124830328D01*
X191492220Y-124343070D01*
X191369720Y-124127000D01*
X190127000Y-124127000D01*
X190127000Y-124147000D01*
X189873000Y-124147000D01*
X189873000Y-124127000D01*
X188630280Y-124127000D01*
X188507780Y-124343070D01*
X188737865Y-124830328D01*
X188898078Y-124976105D01*
X188844100Y-125012172D01*
X188656076Y-125293569D01*
X188518428Y-125320949D01*
X188279977Y-125480276D01*
X179869554Y-133890700D01*
X178618218Y-133890700D01*
X178476546Y-133748781D01*
X178096277Y-133590880D01*
X177684529Y-133590521D01*
X177303985Y-133747758D01*
X177012581Y-134038654D01*
X176854680Y-134418923D01*
X176854321Y-134830671D01*
X177011558Y-135211215D01*
X177154500Y-135354407D01*
X177154500Y-138725965D01*
X177064485Y-138763158D01*
X176773081Y-139054054D01*
X176615180Y-139434323D01*
X176614821Y-139846071D01*
X167609696Y-139846071D01*
X167586746Y-139823081D01*
X167206477Y-139665180D01*
X166794729Y-139664821D01*
X166593226Y-139748080D01*
X157187704Y-130342558D01*
X157187879Y-130142029D01*
X157030642Y-129761485D01*
X156739746Y-129470081D01*
X156359477Y-129312180D01*
X155947729Y-129311821D01*
X155567185Y-129469058D01*
X155275781Y-129759954D01*
X155117880Y-130140223D01*
X155117521Y-130551971D01*
X148710000Y-130551971D01*
X148710000Y-125204971D01*
X155142721Y-125204971D01*
X155291545Y-125565155D01*
X155159680Y-125882723D01*
X155159321Y-126294471D01*
X155316558Y-126675015D01*
X155607454Y-126966419D01*
X155690501Y-127000903D01*
X155610985Y-127033758D01*
X155319581Y-127324654D01*
X155161680Y-127704923D01*
X155161321Y-128116671D01*
X155318558Y-128497215D01*
X155609454Y-128788619D01*
X155989723Y-128946520D01*
X156401471Y-128946879D01*
X156782015Y-128789642D01*
X157073419Y-128498746D01*
X157231320Y-128118477D01*
X157231496Y-127916150D01*
X157841747Y-127305900D01*
X159533468Y-127305900D01*
X159423380Y-127571023D01*
X159423021Y-127982771D01*
X159580258Y-128363315D01*
X159871154Y-128654719D01*
X160251423Y-128812620D01*
X160663171Y-128812979D01*
X161043715Y-128655742D01*
X161186907Y-128512800D01*
X174679954Y-128512800D01*
X175304096Y-129136942D01*
X175303921Y-129337471D01*
X175461158Y-129718015D01*
X175752054Y-130009419D01*
X176132323Y-130167320D01*
X176544071Y-130167679D01*
X176924615Y-130010442D01*
X177216019Y-129719546D01*
X177373920Y-129339277D01*
X177374279Y-128927529D01*
X177217042Y-128546985D01*
X176926146Y-128255581D01*
X176545877Y-128097680D01*
X176343550Y-128097504D01*
X175551946Y-127305900D01*
X179448000Y-127305900D01*
X179729272Y-127249951D01*
X179967723Y-127090623D01*
X180066542Y-126991804D01*
X180267071Y-126991979D01*
X180647615Y-126834742D01*
X180939019Y-126543846D01*
X181096920Y-126163577D01*
X181097279Y-125751829D01*
X180940042Y-125371285D01*
X180649146Y-125079881D01*
X180268877Y-124921980D01*
X179857129Y-124921621D01*
X179476585Y-125078858D01*
X179185181Y-125369754D01*
X179158210Y-125434708D01*
X179025442Y-125113385D01*
X178734546Y-124821981D01*
X178354277Y-124664080D01*
X178151950Y-124663904D01*
X177968423Y-124480377D01*
X177729972Y-124321049D01*
X177729469Y-124320949D01*
X177448700Y-124265100D01*
X156906717Y-124265100D01*
X156764946Y-124123081D01*
X156384677Y-123965180D01*
X155972929Y-123964821D01*
X155592385Y-124122058D01*
X155300981Y-124412954D01*
X155143080Y-124793223D01*
X155142721Y-125204971D01*
X148710000Y-125204971D01*
X148710000Y-123310271D01*
X157908321Y-123310271D01*
X158065558Y-123690815D01*
X158356454Y-123982219D01*
X158736723Y-124140120D01*
X159148471Y-124140479D01*
X159529015Y-123983242D01*
X159672207Y-123840300D01*
X166257282Y-123840300D01*
X166398954Y-123982219D01*
X166779223Y-124140120D01*
X167190971Y-124140479D01*
X167571515Y-123983242D01*
X167862919Y-123692346D01*
X167877624Y-123656930D01*
X188507780Y-123656930D01*
X188630280Y-123873000D01*
X189873000Y-123873000D01*
X189873000Y-122761251D01*
X190127000Y-122761251D01*
X190127000Y-123873000D01*
X191369720Y-123873000D01*
X191492220Y-123656930D01*
X191262135Y-123169672D01*
X190858812Y-122802689D01*
X190345752Y-122617986D01*
X190127000Y-122761251D01*
X189873000Y-122761251D01*
X189654248Y-122617986D01*
X189141188Y-122802689D01*
X188737865Y-123169672D01*
X188507780Y-123656930D01*
X167877624Y-123656930D01*
X168020820Y-123312077D01*
X168021179Y-122900329D01*
X167863942Y-122519785D01*
X167573046Y-122228381D01*
X167192777Y-122070480D01*
X166781029Y-122070121D01*
X166400485Y-122227358D01*
X166257293Y-122370300D01*
X159672218Y-122370300D01*
X159530546Y-122228381D01*
X159150277Y-122070480D01*
X158738529Y-122070121D01*
X158357985Y-122227358D01*
X158066581Y-122518254D01*
X157908680Y-122898523D01*
X157908321Y-123310271D01*
X148710000Y-123310271D01*
X148710000Y-119000000D01*
X148696358Y-118931416D01*
X148696358Y-118861486D01*
X148620238Y-118478804D01*
X148514223Y-118222863D01*
X148514223Y-118222862D01*
X148297451Y-117898438D01*
X148101562Y-117702550D01*
X148101561Y-117702549D01*
X147777138Y-117485776D01*
X147593368Y-117409657D01*
X147521196Y-117379762D01*
X147138513Y-117303642D01*
X147000000Y-117303642D01*
X146478804Y-117379762D01*
X146406632Y-117409657D01*
X146222862Y-117485777D01*
X145898438Y-117702549D01*
X145739501Y-117861487D01*
X145702549Y-117898439D01*
X145485776Y-118222862D01*
X145435581Y-118344046D01*
X145379762Y-118478804D01*
X145303642Y-118861487D01*
X145303642Y-118931416D01*
X145290000Y-119000000D01*
X143710000Y-119000000D01*
X143710000Y-113422815D01*
X143864630Y-113422815D01*
X144188980Y-114207800D01*
X144789041Y-114808909D01*
X145573459Y-115134628D01*
X146422815Y-115135370D01*
X147207800Y-114811020D01*
X147808909Y-114210959D01*
X148134628Y-113426541D01*
X148134631Y-113422815D01*
X187864630Y-113422815D01*
X188188980Y-114207800D01*
X188789041Y-114808909D01*
X189573459Y-115134628D01*
X190422815Y-115135370D01*
X191207800Y-114811020D01*
X191808909Y-114210959D01*
X192134628Y-113426541D01*
X192135370Y-112577185D01*
X191811020Y-111792200D01*
X191210959Y-111191091D01*
X190426541Y-110865372D01*
X189577185Y-110864630D01*
X188792200Y-111188980D01*
X188191091Y-111789041D01*
X187865372Y-112573459D01*
X187864630Y-113422815D01*
X148134631Y-113422815D01*
X148135370Y-112577185D01*
X147811020Y-111792200D01*
X147210959Y-111191091D01*
X146426541Y-110865372D01*
X145577185Y-110864630D01*
X144792200Y-111188980D01*
X144191091Y-111789041D01*
X143865372Y-112573459D01*
X143864630Y-113422815D01*
X143710000Y-113422815D01*
X143710000Y-111069930D01*
X143744926Y-110894345D01*
X143804774Y-110804775D01*
X143894345Y-110744926D01*
X144069930Y-110710000D01*
X191930070Y-110710000D01*
X192105655Y-110744926D01*
M02*
