M48
;DRILL file {KiCad 4.0.1-stable} date 2018/04/18 7:14:43
;FORMAT={-:-/ absolute / metric / decimal}
FMAT,2
METRIC,TZ
T1C0.400
T2C0.762
T3C3.000
%
G90
G05
M71
T1
X153.Y-114.
X153.Y-139.
X156.153Y-130.347
X156.178Y-125.
X156.195Y-126.09
X156.196Y-127.912
X158.944Y-123.105
X160.458Y-127.778
X162.Y-114.
X166.Y-121.
X166.986Y-123.105
X167.Y-140.7
X171.Y-129.
X174.Y-133.
X176.339Y-129.132
X176.958Y-125.867
X177.65Y-139.641
X177.889Y-134.626
X178.147Y-125.699
X180.062Y-125.957
X184.Y-140.
X185.Y-116.
T2
X190.Y-124.
X190.Y-126.
X190.Y-128.
X190.Y-130.
T3
X146.Y-113.
X146.Y-142.
X190.Y-113.
X190.Y-142.
T0
M30
